<svg width="20" height="20" viewBox="0 0 20 20" fill="none" xmlns="http://www.w3.org/2000/svg">
<g clip-path="url(#clip0_207_7851)">
<mask id="mask0_207_7851" style="mask-type:luminance" maskUnits="userSpaceOnUse" x="-1" y="0" width="21" height="20">
<path d="M-0.000976562 0H19.996V19.9969H-0.000976562V0Z" fill="white"/>
</mask>
<g mask="url(#mask0_207_7851)">
<path fill-rule="evenodd" clip-rule="evenodd" d="M-7.5 0H27.4987V19.9969H-7.5V0Z" fill="white"/>
<path fill-rule="evenodd" clip-rule="evenodd" d="M-7.5 13.4294H27.4987V20.001H-7.5V13.4294Z" fill="#DA0000"/>
<path fill-rule="evenodd" clip-rule="evenodd" d="M-0.847656 13.7076H1.0714V13.8406H-0.847656V13.7076ZM-0.56141 14.3688H-0.428366V14.4978H-0.565441L-0.56141 14.3688ZM1.07544 14.3647V14.4978H0.69243V14.3647H1.07544ZM1.28105 13.7076H1.41409V14.4978H1.28105V13.7076Z" fill="white"/>
<path fill-rule="evenodd" clip-rule="evenodd" d="M2.04298 14.3648V14.4978H1.31729V14.3648H2.04298ZM0.692383 14.0583H0.825427V14.4978H0.692383V14.0583Z" fill="white"/>
<path fill-rule="evenodd" clip-rule="evenodd" d="M1.93418 13.7076H2.06722V14.4978H1.93821L1.93418 13.7076ZM1.60761 13.7076H1.73663V14.4978H1.61164L1.60761 13.7076ZM-0.142119 14.022V14.1551H-0.847656V14.022H-0.142119ZM1.3899 14.022V14.1551H0.69243V14.022H1.3899Z" fill="white"/>
<path fill-rule="evenodd" clip-rule="evenodd" d="M0.692383 14.0543H0.825427V14.4978H0.692383V14.0543Z" fill="white"/>
<path fill-rule="evenodd" clip-rule="evenodd" d="M0.692383 14.0543H0.825427V14.4978H0.692383V14.0543Z" fill="white"/>
<path fill-rule="evenodd" clip-rule="evenodd" d="M0.69243 14.0543H0.825475V14.4978H0.69243V14.0543ZM-0.839593 14.0543H-0.710581V14.4978H-0.847656L-0.839593 14.0543ZM0.281203 14.0543H0.414247V14.4978H0.281203V14.0543ZM-0.275163 14.0543H-0.142119V14.4978H-0.275163V14.0543Z" fill="white"/>
<path fill-rule="evenodd" clip-rule="evenodd" d="M0.373901 14.3647V14.4978H-0.21875V14.3647H0.373901ZM0.414217 14.022V14.1551H0.0392747V14.022H0.414217Z" fill="white"/>
<path fill-rule="evenodd" clip-rule="evenodd" d="M2.27686 13.7076H4.19188V13.8406H2.27686V13.7076ZM2.55907 14.3688H2.69211V14.4978H2.5631L2.55907 14.3688ZM4.19592 14.3647V14.4978H3.81291V14.3647H4.19592ZM4.40153 13.7076H4.53457V14.4978H4.40153V13.7076Z" fill="white"/>
<path fill-rule="evenodd" clip-rule="evenodd" d="M5.16762 14.3648V14.4978H4.44192V14.3648H5.16762ZM3.81299 14.0583H3.94603V14.4978H3.81299V14.0583Z" fill="white"/>
<path fill-rule="evenodd" clip-rule="evenodd" d="M5.05856 13.7076H5.19161V14.4978H5.05856V13.7076ZM4.72797 13.7076H4.86101V14.4978H4.72797V13.7076ZM2.97824 14.022V14.1551H2.28076V14.022H2.97824ZM4.51026 14.022V14.1551H3.81279V14.022H4.51026Z" fill="white"/>
<path fill-rule="evenodd" clip-rule="evenodd" d="M3.81299 14.0543H3.94603V14.4978H3.81299V14.0543Z" fill="white"/>
<path fill-rule="evenodd" clip-rule="evenodd" d="M3.81299 14.0543H3.94603V14.4978H3.81299V14.0543Z" fill="white"/>
<path fill-rule="evenodd" clip-rule="evenodd" d="M3.81279 14.0543H3.94583V14.4978H3.81279V14.0543ZM2.28076 14.0543H2.40977V14.4978H2.28076V14.0543ZM3.40559 14.0543H3.5346V14.4978H3.40559V14.0543ZM2.84519 14.0543H2.97824V14.4978H2.84519V14.0543Z" fill="white"/>
<path fill-rule="evenodd" clip-rule="evenodd" d="M3.49854 14.3647V14.4978H2.90186V14.3647H3.49854ZM3.53885 14.022V14.1551H3.15988V14.022H3.53885Z" fill="white"/>
<path fill-rule="evenodd" clip-rule="evenodd" d="M5.41748 13.7076H7.33251V13.8406H5.41748V13.7076ZM5.70373 14.3688H5.83677V14.4978H5.70373V14.3688ZM7.34057 14.3647V14.4978H6.95757V14.3647H7.34057ZM7.54216 13.7076H7.6752V14.4978H7.54619L7.54216 13.7076Z" fill="white"/>
<path fill-rule="evenodd" clip-rule="evenodd" d="M8.30812 14.3648V14.4978H7.58242V14.3648H8.30812ZM6.95752 14.0583H7.08653V14.4978H6.95752V14.0583Z" fill="white"/>
<path fill-rule="evenodd" clip-rule="evenodd" d="M8.19919 13.7076H8.33223V14.4978H8.19919V13.7076ZM7.87262 13.7076H8.00164V14.4978H7.86859L7.87262 13.7076ZM6.11886 14.022V14.1551H5.42139V14.022H6.11886ZM7.65492 14.022V14.1551H6.95744V14.022H7.65492Z" fill="white"/>
<path fill-rule="evenodd" clip-rule="evenodd" d="M6.95752 14.0543H7.08653V14.4978H6.95752V14.0543Z" fill="white"/>
<path fill-rule="evenodd" clip-rule="evenodd" d="M6.95752 14.0543H7.08653V14.4978H6.95752V14.0543Z" fill="white"/>
<path fill-rule="evenodd" clip-rule="evenodd" d="M6.95744 14.0543H7.08645V14.4978H6.95744V14.0543ZM5.42139 14.0543H5.55443V14.4978H5.42139V14.0543ZM6.54621 14.0543H6.67926V14.4978H6.54621V14.0543ZM5.98985 14.0543H6.12289V14.4978H5.98985V14.0543Z" fill="white"/>
<path fill-rule="evenodd" clip-rule="evenodd" d="M6.63904 14.3647V14.4978H6.04639V14.3647H6.63904ZM6.67935 14.022V14.1551H6.30441V14.022H6.67935Z" fill="white"/>
<path fill-rule="evenodd" clip-rule="evenodd" d="M8.57031 13.7076H10.4894V13.8406H8.57031V13.7076ZM8.85656 14.3688H8.9896V14.4978H8.85656V14.3688ZM10.4934 14.3647V14.4978H10.1104V14.3647H10.4934ZM10.699 13.7076H10.8321V14.4978H10.699V13.7076Z" fill="white"/>
<path fill-rule="evenodd" clip-rule="evenodd" d="M11.461 14.3648V14.4978H10.7353V14.3648H11.461ZM10.1104 14.0583H10.2434V14.4978H10.1104V14.0583Z" fill="white"/>
<path fill-rule="evenodd" clip-rule="evenodd" d="M11.352 13.7076H11.4851V14.4978H11.352V13.7076ZM11.0255 13.7076H11.1545V14.4978H11.0255V13.7076ZM9.27572 14.022V14.1551H8.57422V14.022H9.27572ZM10.8077 14.022V14.1551H10.1103V14.022H10.8077Z" fill="white"/>
<path fill-rule="evenodd" clip-rule="evenodd" d="M10.1104 14.0543H10.2434V14.4978H10.1104V14.0543Z" fill="white"/>
<path fill-rule="evenodd" clip-rule="evenodd" d="M10.1104 14.0543H10.2434V14.4978H10.1104V14.0543Z" fill="white"/>
<path fill-rule="evenodd" clip-rule="evenodd" d="M10.1103 14.0543H10.2433V14.4978H10.1103V14.0543ZM8.57825 14.0543H8.70726V14.4978H8.57422L8.57825 14.0543ZM9.69905 14.0543H9.83209V14.4978H9.69905V14.0543ZM9.14268 14.0543H9.27572V14.4978H9.14268V14.0543Z" fill="white"/>
<path fill-rule="evenodd" clip-rule="evenodd" d="M9.79578 14.3647V14.4978H9.20312V14.3647H9.79578ZM9.83206 14.022V14.1551H9.45712V14.022H9.83206Z" fill="white"/>
<path fill-rule="evenodd" clip-rule="evenodd" d="M-7.5 0H27.4987V6.57157H-7.5V0Z" fill="#239F40"/>
<path fill-rule="evenodd" clip-rule="evenodd" d="M11.7432 13.7076H13.6582V13.8406H11.7432V13.7076ZM12.0294 14.3688H12.1625V14.4978H12.0294V14.3688ZM13.6663 14.3647V14.4978H13.2833V14.3647H13.6663ZM13.8678 13.7076H14.0049V14.4978H13.8678V13.7076Z" fill="white"/>
<path fill-rule="evenodd" clip-rule="evenodd" d="M14.6338 14.3648V14.4978H13.9081V14.3648H14.6338ZM13.2832 14.0583H13.4122V14.4978H13.2832V14.0583Z" fill="white"/>
<path fill-rule="evenodd" clip-rule="evenodd" d="M14.5249 13.7076H14.6579V14.4978H14.5249V13.7076ZM14.1983 13.7076H14.3273V14.4978H14.1983V13.7076ZM12.4486 14.022V14.1551H11.7471V14.022H12.4486ZM13.9806 14.022V14.1551H13.2831V14.022H13.9806Z" fill="white"/>
<path fill-rule="evenodd" clip-rule="evenodd" d="M13.2832 14.0543H13.4122V14.4978H13.2832V14.0543Z" fill="white"/>
<path fill-rule="evenodd" clip-rule="evenodd" d="M13.2832 14.0543H13.4122V14.4978H13.2832V14.0543Z" fill="white"/>
<path fill-rule="evenodd" clip-rule="evenodd" d="M13.2831 14.0543H13.4121V14.4978H13.2831V14.0543ZM11.7471 14.0543H11.8801V14.4978H11.7471V14.0543ZM12.8719 14.0543H13.0049V14.4978H12.8719V14.0543ZM12.3155 14.0543H12.4486V14.4978H12.3155V14.0543Z" fill="white"/>
<path fill-rule="evenodd" clip-rule="evenodd" d="M12.9647 14.3647V14.4978H12.3721V14.3647H12.9647ZM13.005 14.022V14.1551H12.6301V14.022H13.005Z" fill="white"/>
<path fill-rule="evenodd" clip-rule="evenodd" d="M14.896 13.7076H16.8151V13.8406H14.896V13.7076ZM15.1822 14.3688H15.3153V14.4978H15.1822V14.3688ZM16.8191 14.3647V14.4978H16.4361V14.3647H16.8191ZM17.0247 13.7076H17.1577V14.4978H17.0247V13.7076Z" fill="white"/>
<path fill-rule="evenodd" clip-rule="evenodd" d="M17.7866 14.3648V14.4978H17.0609V14.3648H17.7866ZM16.436 14.0583H16.5691V14.4978H16.436V14.0583Z" fill="white"/>
<path fill-rule="evenodd" clip-rule="evenodd" d="M17.6817 13.7076H17.8107V14.4978H17.6817V13.7076ZM17.3511 13.7076H17.4842V14.4978H17.3511V13.7076ZM15.6014 14.022V14.1551H14.8999V14.022H15.6014ZM17.1334 14.022V14.1551H16.436V14.022H17.1334Z" fill="white"/>
<path fill-rule="evenodd" clip-rule="evenodd" d="M16.436 14.0543H16.5691V14.4978H16.436V14.0543Z" fill="white"/>
<path fill-rule="evenodd" clip-rule="evenodd" d="M16.436 14.0543H16.5691V14.4978H16.436V14.0543Z" fill="white"/>
<path fill-rule="evenodd" clip-rule="evenodd" d="M16.436 14.0543H16.569V14.4978H16.436V14.0543ZM14.9039 14.0543H15.0329V14.4978H14.8999L14.9039 14.0543ZM16.0247 14.0543H16.1578V14.4978H16.0247V14.0543ZM15.4684 14.0543H15.6014V14.4978H15.4684V14.0543Z" fill="white"/>
<path fill-rule="evenodd" clip-rule="evenodd" d="M16.1174 14.3647V14.4978H15.5288V14.3647H16.1174ZM16.1577 14.022V14.1551H15.7828V14.022H16.1577Z" fill="white"/>
<path fill-rule="evenodd" clip-rule="evenodd" d="M18.0527 13.7076H19.9678V13.8406H18.0527V13.7076ZM18.3349 14.3688H18.468V14.4978H18.3349V14.3688ZM19.9718 14.3647V14.4978H19.5928V14.3647H19.9718ZM20.1774 13.7076H20.3105V14.4978H20.1774V13.7076Z" fill="white"/>
<path fill-rule="evenodd" clip-rule="evenodd" d="M20.9435 14.3648V14.4978H20.2178V14.3648H20.9435ZM19.5889 14.0583H19.7219V14.4978H19.5889V14.0583Z" fill="white"/>
<path fill-rule="evenodd" clip-rule="evenodd" d="M20.8346 13.7076H20.9676V14.4978H20.8346V13.7076ZM20.504 13.7076H20.637V14.4978H20.504V13.7076ZM18.7542 14.022V14.1551H18.0527V14.022H18.7542ZM20.2863 14.022V14.1551H19.5928V14.022H20.2863Z" fill="white"/>
<path fill-rule="evenodd" clip-rule="evenodd" d="M19.5929 14.0543H19.7219V14.4978H19.5889L19.5929 14.0543Z" fill="white"/>
<path fill-rule="evenodd" clip-rule="evenodd" d="M19.5929 14.0543H19.7219V14.4978H19.5889L19.5929 14.0543Z" fill="white"/>
<path fill-rule="evenodd" clip-rule="evenodd" d="M19.5928 14.0543H19.7218V14.4978H19.5888L19.5928 14.0543ZM18.0527 14.0543H18.1858V14.4978H18.0527V14.0543ZM19.1816 14.0543H19.3106V14.4978H19.1776L19.1816 14.0543ZM18.6212 14.0543H18.7542V14.4978H18.6212V14.0543Z" fill="white"/>
<path fill-rule="evenodd" clip-rule="evenodd" d="M19.2703 14.3647V14.4978H18.6816V14.3647H19.2703ZM19.3106 14.022V14.1551H18.9356V14.022H19.3106Z" fill="white"/>
<path fill-rule="evenodd" clip-rule="evenodd" d="M-0.847656 5.604H1.0714V5.73302H-0.847656V5.604ZM-0.56141 6.26116H-0.428366V6.39017H-0.565441L-0.56141 6.26116ZM1.07544 6.26116V6.39017H0.69243V6.25713L1.07544 6.26116ZM1.28105 5.604H1.41409V6.39017H1.28105V5.604Z" fill="white"/>
<path fill-rule="evenodd" clip-rule="evenodd" d="M2.04298 6.25715V6.39019H1.31729V6.25715H2.04298ZM0.692383 5.95074H0.825427V6.39423H0.692383V5.95074Z" fill="white"/>
<path fill-rule="evenodd" clip-rule="evenodd" d="M1.93418 5.604H2.06722V6.39017H1.93821L1.93418 5.604ZM1.60761 5.604H1.73663V6.39017H1.61164L1.60761 5.604ZM-0.142119 5.91444V6.04748H-0.847656V5.91847L-0.142119 5.91444ZM1.3899 5.91444V6.04748H0.69243V5.91847L1.3899 5.91444Z" fill="white"/>
<path fill-rule="evenodd" clip-rule="evenodd" d="M0.692383 5.95074H0.825427V6.39423H0.692383V5.95074Z" fill="white"/>
<path fill-rule="evenodd" clip-rule="evenodd" d="M0.692383 5.95074H0.825427V6.39423H0.692383V5.95074Z" fill="white"/>
<path fill-rule="evenodd" clip-rule="evenodd" d="M0.69243 5.95074H0.825475V6.39423H0.69243V5.95074ZM-0.839593 5.95074H-0.710581V6.39423H-0.847656L-0.839593 5.95074ZM0.281203 5.95074H0.414247V6.39423H0.281203V5.95074ZM-0.275163 5.95074H-0.142119V6.39423H-0.275163V5.95074Z" fill="white"/>
<path fill-rule="evenodd" clip-rule="evenodd" d="M0.373901 6.25711V6.39016H-0.21875V6.25711H0.373901ZM0.414217 5.91846V6.04747H0.0392747V5.91846H0.414217Z" fill="white"/>
<path fill-rule="evenodd" clip-rule="evenodd" d="M2.27686 5.604H4.19188V5.73302H2.27686V5.604ZM2.55907 6.26116H2.69211V6.39017H2.5631L2.55907 6.26116ZM4.19592 6.26116V6.39017H3.81291V6.25713L4.19592 6.26116ZM4.40153 5.604H4.53457V6.39017H4.40153V5.604Z" fill="white"/>
<path fill-rule="evenodd" clip-rule="evenodd" d="M5.16762 6.25715V6.39019H4.44192V6.25715H5.16762ZM3.81299 5.95074H3.94603V6.39423H3.81299V5.95074Z" fill="white"/>
<path fill-rule="evenodd" clip-rule="evenodd" d="M5.05856 5.604H5.19161V6.39017H5.05856V5.604ZM4.72797 5.604H4.86101V6.39017H4.72797V5.604ZM2.97824 5.91444V6.04748H2.28076V5.91847L2.97824 5.91444ZM4.51026 5.91444V6.04748H3.81279V5.91847L4.51026 5.91444Z" fill="white"/>
<path fill-rule="evenodd" clip-rule="evenodd" d="M3.81299 5.95074H3.94603V6.39423H3.81299V5.95074Z" fill="white"/>
<path fill-rule="evenodd" clip-rule="evenodd" d="M3.81299 5.95074H3.94603V6.39423H3.81299V5.95074Z" fill="white"/>
<path fill-rule="evenodd" clip-rule="evenodd" d="M3.81279 5.95074H3.94583V6.39423H3.81279V5.95074ZM2.28076 5.95074H2.40977V6.39423H2.28076V5.95074ZM3.40559 5.95074H3.5346V6.39423H3.40559V5.95074ZM2.84519 5.95074H2.97824V6.39423H2.84519V5.95074Z" fill="white"/>
<path fill-rule="evenodd" clip-rule="evenodd" d="M3.49854 6.25711V6.39016H2.90186V6.25711H3.49854ZM3.53885 5.91846V6.04747H3.15988V5.91846H3.53885Z" fill="white"/>
<path fill-rule="evenodd" clip-rule="evenodd" d="M5.41748 5.604H7.33251V5.73302H5.41748V5.604ZM5.70373 6.26116H5.83677V6.39017H5.70373V6.26116ZM7.34057 6.26116V6.39017H6.95757V6.25713L7.34057 6.26116ZM7.54216 5.604H7.6752V6.39017H7.54619L7.54216 5.604Z" fill="white"/>
<path fill-rule="evenodd" clip-rule="evenodd" d="M8.30812 6.25715V6.39019H7.58242V6.25715H8.30812ZM6.95752 5.95074H7.08653V6.39423H6.95752V5.95074Z" fill="white"/>
<path fill-rule="evenodd" clip-rule="evenodd" d="M8.19919 5.604H8.33223V6.39017H8.19919V5.604ZM7.87262 5.604H8.00164V6.39017H7.86859L7.87262 5.604ZM6.11886 5.91444V6.04748H5.42139V5.91847L6.11886 5.91444ZM7.65492 5.91444V6.04748H6.95744V5.91847L7.65492 5.91444Z" fill="white"/>
<path fill-rule="evenodd" clip-rule="evenodd" d="M6.95752 5.95074H7.08653V6.39423H6.95752V5.95074Z" fill="white"/>
<path fill-rule="evenodd" clip-rule="evenodd" d="M6.95752 5.95074H7.08653V6.39423H6.95752V5.95074Z" fill="white"/>
<path fill-rule="evenodd" clip-rule="evenodd" d="M6.95744 5.95074H7.08645V6.39423H6.95744V5.95074ZM5.42139 5.95074H5.55443V6.39423H5.42139V5.95074ZM6.54621 5.95074H6.67926V6.39423H6.54621V5.95074ZM5.98985 5.95074H6.12289V6.39423H5.98985V5.95074Z" fill="white"/>
<path fill-rule="evenodd" clip-rule="evenodd" d="M6.63904 6.25711V6.39016H6.04639V6.25711H6.63904ZM6.67935 5.91846V6.04747H6.30441V5.91846H6.67935Z" fill="white"/>
<path fill-rule="evenodd" clip-rule="evenodd" d="M8.57031 5.604H10.4894V5.73302H8.57031V5.604ZM8.85656 6.26116H8.9896V6.39017H8.85656V6.26116ZM10.4934 6.26116V6.39017H10.1104V6.25713L10.4934 6.26116ZM10.699 5.604H10.8321V6.39017H10.699V5.604Z" fill="white"/>
<path fill-rule="evenodd" clip-rule="evenodd" d="M11.461 6.25715V6.39019H10.7353V6.25715H11.461ZM10.1104 5.95074H10.2434V6.39423H10.1104V5.95074Z" fill="white"/>
<path fill-rule="evenodd" clip-rule="evenodd" d="M11.352 5.604H11.4851V6.39017H11.352V5.604ZM11.0255 5.604H11.1545V6.39017H11.0255V5.604ZM9.27572 5.91444V6.04748H8.57422V5.91847L9.27572 5.91444ZM10.8077 5.91444V6.04748H10.1103V5.91847L10.8077 5.91444Z" fill="white"/>
<path fill-rule="evenodd" clip-rule="evenodd" d="M10.1104 5.95074H10.2434V6.39423H10.1104V5.95074Z" fill="white"/>
<path fill-rule="evenodd" clip-rule="evenodd" d="M10.1104 5.95074H10.2434V6.39423H10.1104V5.95074Z" fill="white"/>
<path fill-rule="evenodd" clip-rule="evenodd" d="M10.1103 5.95074H10.2433V6.39423H10.1103V5.95074ZM8.57825 5.95074H8.70726V6.39423H8.57422L8.57825 5.95074ZM9.69905 5.95074H9.83209V6.39423H9.69905V5.95074ZM9.14268 5.95074H9.27572V6.39423H9.14268V5.95074Z" fill="white"/>
<path fill-rule="evenodd" clip-rule="evenodd" d="M9.79578 6.25711V6.39016H9.20312V6.25711H9.79578ZM9.83206 5.91846V6.04747H9.45712V5.91846H9.83206Z" fill="white"/>
<path fill-rule="evenodd" clip-rule="evenodd" d="M11.7432 5.604H13.6582V5.73302H11.7432V5.604ZM12.0294 6.26116H12.1625V6.39017H12.0294V6.26116ZM13.6663 6.26116V6.39017H13.2833V6.25713L13.6663 6.26116ZM13.8678 5.604H14.0049V6.39017H13.8678V5.604Z" fill="white"/>
<path fill-rule="evenodd" clip-rule="evenodd" d="M14.6338 6.25715V6.39019H13.9081V6.25715H14.6338ZM13.2832 5.95074H13.4122V6.39423H13.2832V5.95074Z" fill="white"/>
<path fill-rule="evenodd" clip-rule="evenodd" d="M14.5249 5.604H14.6579V6.39017H14.5249V5.604ZM14.1983 5.604H14.3273V6.39017H14.1983V5.604ZM12.4486 5.91444V6.04748H11.7471V5.91847L12.4486 5.91444ZM13.9806 5.91444V6.04748H13.2831V5.91847L13.9806 5.91444Z" fill="white"/>
<path fill-rule="evenodd" clip-rule="evenodd" d="M13.2832 5.95074H13.4122V6.39423H13.2832V5.95074Z" fill="white"/>
<path fill-rule="evenodd" clip-rule="evenodd" d="M13.2832 5.95074H13.4122V6.39423H13.2832V5.95074Z" fill="white"/>
<path fill-rule="evenodd" clip-rule="evenodd" d="M13.2831 5.95074H13.4121V6.39423H13.2831V5.95074ZM11.7471 5.95074H11.8801V6.39423H11.7471V5.95074ZM12.8719 5.95074H13.0049V6.39423H12.8719V5.95074ZM12.3155 5.95074H12.4486V6.39423H12.3155V5.95074Z" fill="white"/>
<path fill-rule="evenodd" clip-rule="evenodd" d="M12.9647 6.25711V6.39016H12.3721V6.25711H12.9647ZM13.005 5.91846V6.04747H12.6301V5.91846H13.005Z" fill="white"/>
<path fill-rule="evenodd" clip-rule="evenodd" d="M14.896 5.604H16.8151V5.73302H14.896V5.604ZM15.1822 6.26116H15.3153V6.39017H15.1822V6.26116ZM16.8191 6.26116V6.39017H16.4361V6.25713L16.8191 6.26116ZM17.0247 5.604H17.1577V6.39017H17.0247V5.604Z" fill="white"/>
<path fill-rule="evenodd" clip-rule="evenodd" d="M17.7866 6.25715V6.39019H17.0609V6.25715H17.7866ZM16.436 5.95074H16.5691V6.39423H16.436V5.95074Z" fill="white"/>
<path fill-rule="evenodd" clip-rule="evenodd" d="M17.6817 5.604H17.8107V6.39017H17.6817V5.604ZM17.3511 5.604H17.4842V6.39017H17.3511V5.604ZM15.6014 5.91444V6.04748H14.8999V5.91847L15.6014 5.91444ZM17.1334 5.91444V6.04748H16.436V5.91847L17.1334 5.91444Z" fill="white"/>
<path fill-rule="evenodd" clip-rule="evenodd" d="M16.436 5.95074H16.5691V6.39423H16.436V5.95074Z" fill="white"/>
<path fill-rule="evenodd" clip-rule="evenodd" d="M16.436 5.95074H16.5691V6.39423H16.436V5.95074Z" fill="white"/>
<path fill-rule="evenodd" clip-rule="evenodd" d="M16.436 5.95074H16.569V6.39423H16.436V5.95074ZM14.9039 5.95074H15.0329V6.39423H14.8999L14.9039 5.95074ZM16.0247 5.95074H16.1578V6.39423H16.0247V5.95074ZM15.4684 5.95074H15.6014V6.39423H15.4684V5.95074Z" fill="white"/>
<path fill-rule="evenodd" clip-rule="evenodd" d="M16.1174 6.25711V6.39016H15.5288V6.25711H16.1174ZM16.1577 5.91846V6.04747H15.7828V5.91846H16.1577Z" fill="white"/>
<path fill-rule="evenodd" clip-rule="evenodd" d="M18.0527 5.604H19.9678V5.73302H18.0527V5.604ZM18.3349 6.26116H18.468V6.39017H18.3349V6.26116ZM19.9718 6.26116V6.39017H19.5928V6.25713L19.9718 6.26116ZM20.1774 5.604H20.3105V6.39017H20.1774V5.604Z" fill="white"/>
<path fill-rule="evenodd" clip-rule="evenodd" d="M20.9435 6.25715V6.39019H20.2178V6.25715H20.9435ZM19.5889 5.95074H19.7219V6.39423H19.5889V5.95074Z" fill="white"/>
<path fill-rule="evenodd" clip-rule="evenodd" d="M20.8346 5.604H20.9676V6.39017H20.8346V5.604ZM20.504 5.604H20.637V6.39017H20.504V5.604ZM18.7542 5.91444V6.04748H18.0527V5.91847L18.7542 5.91444ZM20.2863 5.91444V6.04748H19.5928V5.91847L20.2863 5.91444Z" fill="white"/>
<path fill-rule="evenodd" clip-rule="evenodd" d="M19.5929 5.95074H19.7219V6.39423H19.5889L19.5929 5.95074Z" fill="white"/>
<path fill-rule="evenodd" clip-rule="evenodd" d="M19.5929 5.95074H19.7219V6.39423H19.5889L19.5929 5.95074Z" fill="white"/>
<path fill-rule="evenodd" clip-rule="evenodd" d="M19.5928 5.95074H19.7218V6.39423H19.5888L19.5928 5.95074ZM18.0527 5.95074H18.1858V6.39423H18.0527V5.95074ZM19.1816 5.95074H19.3106V6.39423H19.1776L19.1816 5.95074ZM18.6212 5.95074H18.7542V6.39423H18.6212V5.95074Z" fill="white"/>
<path fill-rule="evenodd" clip-rule="evenodd" d="M19.2703 6.25711V6.39016H18.6816V6.25711H19.2703ZM19.3106 5.91846V6.04747H18.9356V5.91846H19.3106Z" fill="white"/>
<path fill-rule="evenodd" clip-rule="evenodd" d="M-2.69025 13.2641H-2.45239V13.6673H-2.69025V13.2641ZM3.57895 13.2641H3.81682V13.6673H3.57895V13.2641ZM-7.5 13.2641H-7.26616V13.6673H-7.5V13.2641ZM-4.31904 13.2641H-4.08117V13.6673H-4.31904V13.2641ZM-1.15823 13.2641H-0.924394V13.6673H-1.15823V13.2641ZM0.406048 13.2641H0.639882V13.6673H0.406048V13.2641ZM1.99855 13.2641H2.24044V13.6673H1.99855V13.2641ZM5.14323 13.2641H5.38109V13.6673H5.14323V13.2641ZM13.0775 13.2641H13.3113V13.6673H13.0775V13.2641ZM6.73976 13.2641H6.97762V13.6673H6.73976V13.2641ZM8.30403 13.2641H8.5419V13.6673H8.30403V13.2641ZM9.88444 13.2641H10.1183V13.6673H9.88444V13.2641ZM11.4648 13.2641H11.6987V13.6673H11.4648V13.2641ZM24.0839 13.2641H24.3258V13.6673H24.0839V13.2641ZM14.6095 13.2641H14.8434V13.6673H14.6055L14.6095 13.2641ZM16.202 13.2641H16.4399V13.6673H16.202V13.2641ZM17.8147 13.2641H18.0525V13.6673H17.8147V13.2641ZM19.3306 13.2641H19.5684V13.6673H19.3306V13.2641ZM20.9432 13.2641H21.1811V13.6673H20.9392L20.9432 13.2641ZM22.5236 13.2641H22.7575V13.6673H22.5236V13.2641ZM27.2003 13.2641H27.4342V13.6673H27.1963L27.2003 13.2641ZM25.6844 13.2641H25.9183V13.6673H25.6844V13.2641ZM-5.91557 13.2641H-5.6777V13.6673H-5.91557V13.2641Z" fill="#D90000"/>
<path fill-rule="evenodd" clip-rule="evenodd" d="M-2.69025 6.35388H-2.45239V6.76108H-2.69025V6.35388ZM3.57895 6.35388H3.81682V6.76108H3.57895V6.35388ZM-7.5 6.35388H-7.26616V6.76108H-7.5V6.35388ZM-4.31904 6.35388H-4.08117V6.76108H-4.31904V6.35388ZM-1.15823 6.35388H-0.924394V6.76108H-1.15823V6.35388ZM0.406048 6.35388H0.639882V6.76108H0.406048V6.35388ZM1.99855 6.35388H2.24044V6.76108H1.99855V6.35388ZM5.14323 6.35388H5.38109V6.76108H5.14323V6.35388ZM13.0775 6.35388H13.3113V6.76108H13.0775V6.35388ZM6.73976 6.35388H6.97762V6.76108H6.73976V6.35388ZM8.30403 6.35388H8.5419V6.76108H8.30403V6.35388ZM9.88444 6.35388H10.1183V6.76108H9.88444V6.35388ZM11.4648 6.35388H11.6987V6.76108H11.4648V6.35388ZM24.0839 6.35388H24.3258V6.76108H24.0839V6.35388ZM14.6095 6.35388H14.8434V6.76108H14.6055L14.6095 6.35388ZM16.202 6.35388H16.4399V6.76108H16.202V6.35388ZM17.8147 6.35388H18.0525V6.76108H17.8147V6.35388ZM19.3306 6.35388H19.5684V6.76108H19.3306V6.35388ZM20.9432 6.35388H21.1811V6.76108H20.9392L20.9432 6.35388ZM22.5236 6.35388H22.7575V6.76108H22.5236V6.35388ZM27.2003 6.35388H27.4342V6.76108H27.1963L27.2003 6.35388ZM25.6844 6.35388H25.9183V6.76108H25.6844V6.35388ZM-5.91557 6.35388H-5.6777V6.76108H-5.91557V6.35388Z" fill="#239E3F"/>
<path fill-rule="evenodd" clip-rule="evenodd" d="M10.9246 7.71655C11.2593 8.11972 12.2752 10.3573 10.3118 11.8248C9.38858 12.5182 9.96107 12.5505 9.98929 12.6714C11.4729 11.8812 11.9567 10.8169 11.9446 9.85735C11.9325 8.89782 11.4286 8.05924 10.9287 7.71655H10.9246Z" fill="#DA0000"/>
<path fill-rule="evenodd" clip-rule="evenodd" d="M11.1261 7.61176C11.4873 7.83299 11.7949 8.13164 12.0267 8.48615C12.2585 8.84066 12.4088 9.24221 12.4667 9.66183C12.5245 10.0814 12.4885 10.5087 12.3613 10.9127C12.234 11.3167 12.0187 11.6875 11.7308 11.9982C12.7952 11.7643 14.1498 8.6237 11.118 7.61176H11.1261ZM8.87237 7.61176C8.51115 7.83299 8.20353 8.13164 7.9717 8.48615C7.73987 8.84066 7.58961 9.24221 7.53176 9.66183C7.47391 10.0814 7.50991 10.5087 7.63716 10.9127C7.76441 11.3167 7.97974 11.6875 8.26762 11.9982C7.19924 11.7643 5.8446 8.6237 8.87237 7.61176Z" fill="#DA0000"/>
<path fill-rule="evenodd" clip-rule="evenodd" d="M9.07003 7.71655C8.73943 8.11972 7.71943 10.3573 9.68284 11.8248C10.6061 12.5182 10.0336 12.5505 10.0054 12.6714C8.52576 11.8812 8.03793 10.8169 8.05002 9.85735C8.06212 8.89782 8.5701 8.05924 9.07003 7.71655Z" fill="#DA0000"/>
<path fill-rule="evenodd" clip-rule="evenodd" d="M11.88 12.4658C11.242 12.4905 10.6071 12.3663 10.0255 12.103C10.1141 12.2763 10.1867 12.3852 10.2794 12.5626C10.7955 12.6069 11.5091 12.6674 11.88 12.4658ZM8.1709 12.4658C8.75145 12.4739 9.48521 12.3852 10.0255 12.103C9.93676 12.2763 9.86419 12.3852 9.77146 12.5626C9.25541 12.6069 8.54181 12.6674 8.1709 12.4658ZM9.23525 7.0473C9.3562 7.35774 9.6626 7.40612 9.9932 7.22066C10.2351 7.3658 10.606 7.37387 10.735 7.0594C10.8318 7.83347 10.0174 7.65205 9.98917 7.50288C9.68679 7.79316 9.12237 7.62383 9.23525 7.0473Z" fill="#DA0000"/>
<path fill-rule="evenodd" clip-rule="evenodd" d="M10.0133 12.9536L10.3197 12.6029L10.36 7.91006L9.99713 7.58752L9.63428 7.89393L9.70685 12.619L10.0133 12.9536Z" fill="#DA0000"/>
</g>
</g>
<defs>
<clipPath id="clip0_207_7851">
<rect width="20" height="20" fill="white"/>
</clipPath>
</defs>
</svg>
