<svg width="14" height="14" viewBox="0 0 14 14" fill="none" xmlns="http://www.w3.org/2000/svg">
<path d="M6.99967 13.6667C6.08856 13.6667 5.22745 13.4916 4.41634 13.1413C3.60523 12.7911 2.89701 12.3133 2.29167 11.708C1.68634 11.1027 1.20856 10.3944 0.858341 9.58334C0.508119 8.77223 0.333008 7.91111 0.333008 7C0.333008 6.07778 0.508119 5.214 0.858341 4.40867C1.20856 3.60334 1.68634 2.89778 2.29167 2.292C2.89701 1.68622 3.60523 1.20845 4.41634 0.858669C5.22745 0.508892 6.08856 0.33378 6.99967 0.333336C7.9219 0.333336 8.7859 0.508447 9.59167 0.858669C10.3975 1.20889 11.1028 1.68667 11.7077 2.292C12.3126 2.89734 12.7903 3.60289 13.141 4.40867C13.4917 5.21445 13.6668 6.07823 13.6663 7C13.6663 7.91111 13.4912 8.77223 13.141 9.58334C12.7908 10.3944 12.313 11.1029 11.7077 11.7087C11.1023 12.3144 10.3968 12.7922 9.59101 13.142C8.78523 13.4918 7.92145 13.6667 6.99967 13.6667ZM6.99967 12.3C7.28856 11.9 7.53856 11.4833 7.74967 11.05C7.96079 10.6167 8.13301 10.1556 8.26634 9.66667H5.73301C5.86634 10.1556 6.03856 10.6167 6.24967 11.05C6.46079 11.4833 6.71079 11.9 6.99967 12.3ZM5.26634 12.0333C5.06634 11.6667 4.89145 11.286 4.74167 10.8913C4.5919 10.4967 4.46679 10.0884 4.36634 9.66667H2.39967C2.7219 10.2222 3.12479 10.7056 3.60834 11.1167C4.0919 11.5278 4.64456 11.8333 5.26634 12.0333ZM8.73301 12.0333C9.35523 11.8333 9.90812 11.5278 10.3917 11.1167C10.8752 10.7056 11.2779 10.2222 11.5997 9.66667H9.63301C9.53301 10.0889 9.40812 10.4973 9.25834 10.892C9.10856 11.2867 8.93345 11.6671 8.73301 12.0333ZM1.83301 8.33334H4.09967C4.06634 8.11111 4.04145 7.89178 4.02501 7.67534C4.00856 7.45889 4.00012 7.23378 3.99967 7C3.99923 6.76622 4.00767 6.54134 4.02501 6.32534C4.04234 6.10934 4.06723 5.88978 4.09967 5.66667H1.83301C1.77745 5.88889 1.7359 6.10845 1.70834 6.32534C1.68079 6.54222 1.66679 6.76711 1.66634 7C1.6659 7.23289 1.6799 7.458 1.70834 7.67534C1.73679 7.89267 1.77834 8.112 1.83301 8.33334ZM5.43301 8.33334H8.56634C8.59968 8.11111 8.62479 7.89178 8.64167 7.67534C8.65856 7.45889 8.66679 7.23378 8.66634 7C8.6659 6.76622 8.65745 6.54134 8.64101 6.32534C8.62456 6.10934 8.59968 5.88978 8.56634 5.66667H5.43301C5.39967 5.88889 5.37479 6.10845 5.35834 6.32534C5.3419 6.54222 5.33345 6.76711 5.33301 7C5.33256 7.23289 5.34101 7.458 5.35834 7.67534C5.37567 7.89267 5.40056 8.112 5.43301 8.33334ZM9.89968 8.33334H12.1663C12.2219 8.11111 12.2637 7.89178 12.2917 7.67534C12.3197 7.45889 12.3335 7.23378 12.333 7C12.3326 6.76622 12.3188 6.54134 12.2917 6.32534C12.2646 6.10934 12.2228 5.88978 12.1663 5.66667H9.89968C9.93301 5.88889 9.95812 6.10845 9.97501 6.32534C9.9919 6.54222 10.0001 6.76711 9.99967 7C9.99923 7.23289 9.99079 7.458 9.97434 7.67534C9.9579 7.89267 9.93301 8.112 9.89968 8.33334ZM9.63301 4.33334H11.5997C11.2775 3.77778 10.8748 3.29445 10.3917 2.88334C9.90856 2.47222 9.35567 2.16667 8.73301 1.96667C8.93301 2.33334 9.10812 2.714 9.25834 3.10867C9.40856 3.50334 9.53345 3.91156 9.63301 4.33334ZM5.73301 4.33334H8.26634C8.13301 3.84445 7.96079 3.38334 7.74967 2.95C7.53856 2.51667 7.28856 2.1 6.99967 1.7C6.71079 2.1 6.46079 2.51667 6.24967 2.95C6.03856 3.38334 5.86634 3.84445 5.73301 4.33334ZM2.39967 4.33334H4.36634C4.46634 3.91111 4.59145 3.50267 4.74167 3.108C4.8919 2.71334 5.06679 2.33289 5.26634 1.96667C4.64412 2.16667 4.09123 2.47222 3.60767 2.88334C3.12412 3.29445 2.72145 3.77778 2.39967 4.33334Z" fill="#D0A767"/>
</svg>
