<svg width="50" height="58" viewBox="0 0 50 58" fill="none" xmlns="http://www.w3.org/2000/svg">
<path d="M19.1542 0.00498392C19.7657 0.00392728 20.3772 0.00312632 20.9887 0.00263765C21.2727 0.00240292 21.5568 0.00208533 21.8408 0.00156771C22.1157 0.00106991 22.3907 0.000803695 22.6656 0.000687481C22.7697 0.000604831 22.8737 0.000443498 22.9778 0.000196019C23.5011 -0.000997288 24.0235 0.00277294 24.5464 0.0250722C24.5893 0.0268317 24.6322 0.0285912 24.6765 0.0304041C24.7155 0.0322822 24.7546 0.0341604 24.7948 0.0360954C24.8463 0.0385432 24.8463 0.0385432 24.8989 0.0410405C24.9776 0.0502681 24.9776 0.0502682 25.0231 0.0955524C25.0275 0.232016 25.0289 0.367441 25.0283 0.503917C25.0283 0.546767 25.0283 0.589617 25.0283 0.633765C25.0283 0.776128 25.0279 0.918487 25.0276 1.06085C25.0275 1.15927 25.0274 1.25768 25.0274 1.3561C25.0272 1.6157 25.0268 1.87529 25.0263 2.13489C25.0258 2.39956 25.0256 2.66424 25.0254 2.92891C25.0249 3.44865 25.0241 3.96839 25.0231 4.48812C25.0491 4.48931 25.075 4.49049 25.1017 4.49171C25.2207 4.4972 25.3396 4.50285 25.4586 4.50851C25.4994 4.51037 25.5401 4.51222 25.5822 4.51414C25.8977 4.52932 26.207 4.56137 26.5188 4.61265C26.5682 4.62047 26.6175 4.62829 26.6683 4.63635C27.1206 4.71047 27.5657 4.8097 28.0111 4.91642C28.1556 4.94996 28.3011 4.9778 28.4467 5.00606C28.7984 5.08009 29.1339 5.1972 29.4729 5.31452C29.5669 5.34652 29.6611 5.37705 29.7558 5.4069C30.0936 5.51435 30.4065 5.63761 30.7235 5.79517C30.8523 5.85834 30.8523 5.85834 31.0286 5.84665C31.0482 5.81139 31.0482 5.81139 31.0682 5.77542C31.1279 5.668 31.1877 5.56062 31.2476 5.45324C31.2681 5.41626 31.2887 5.37928 31.3098 5.34118C31.4534 5.08351 31.6017 4.83175 31.7638 4.58504C31.9366 4.32172 32.098 4.05673 32.2438 3.77737C32.3017 3.6745 32.3675 3.58566 32.439 3.49187C32.4752 3.43027 32.5103 3.36796 32.5442 3.30507C32.749 2.93269 32.9729 2.57508 33.2124 2.22391C33.2424 2.17908 33.2725 2.13425 33.3034 2.08806C33.5069 2.11428 33.6616 2.19738 33.8351 2.30033C33.8632 2.31667 33.8913 2.33301 33.9202 2.34985C34.003 2.39811 34.0854 2.44682 34.1678 2.49562C34.2091 2.51978 34.2504 2.54395 34.2929 2.56885C34.485 2.68223 34.6739 2.79969 34.8616 2.92016C35.1801 3.12321 35.5092 3.30686 35.8392 3.49058C36.028 3.59653 36.2102 3.71042 36.3914 3.82867C36.5998 3.96332 36.8091 4.09114 37.0278 4.20863C37.1758 4.28939 37.3196 4.37662 37.464 4.46353C37.5819 4.53456 37.7004 4.60473 37.8189 4.67492C37.8561 4.69739 37.8932 4.71987 37.9315 4.74302C37.9951 4.7812 38.0593 4.81855 38.1242 4.85446C38.2397 4.92165 38.3004 4.96079 38.3392 5.09097C38.3029 5.23228 38.2337 5.32431 38.1452 5.43891C38.0504 5.57191 37.9838 5.71565 37.9124 5.86204C37.733 6.22602 37.5257 6.57123 37.3108 6.91525C37.1086 7.24411 36.9196 7.58076 36.7327 7.9184C36.6526 8.063 36.5684 8.20458 36.4824 8.34577C36.385 8.50597 36.2957 8.66622 36.2151 8.83541C36.2452 8.83541 36.2752 8.83541 36.3061 8.83541C36.3668 8.89579 36.4275 8.95617 36.4881 9.01654C36.579 9.0771 36.67 9.13745 36.7611 9.19768C36.8619 9.27148 36.9608 9.34764 37.0597 9.4241C37.0973 9.453 37.0973 9.453 37.1356 9.48248C37.5652 9.81315 37.5652 9.81315 37.7165 9.96751C37.772 10.017 37.828 10.066 37.8843 10.1147C37.9159 10.1422 37.9475 10.1697 37.9801 10.198C38.0481 10.2566 38.1164 10.3147 38.1852 10.3724C38.2182 10.4004 38.2512 10.4283 38.2852 10.4571C38.3157 10.4827 38.3462 10.5082 38.3776 10.5345C38.4444 10.6015 38.4444 10.6015 38.4444 10.6921C38.4824 10.7089 38.4824 10.7089 38.5212 10.726C38.7939 10.8727 38.9744 11.0952 39.1724 11.326C39.4069 11.5932 39.4069 11.5932 39.6529 11.8496C39.8822 12.0778 40.0981 12.316 40.2643 12.594C40.2643 12.6239 40.2643 12.6538 40.2643 12.6846C40.2922 12.6957 40.3201 12.7067 40.3489 12.7182C40.4657 12.7865 40.4935 12.8405 40.5486 12.9619C40.5715 13.0111 40.5715 13.0111 40.5948 13.0613C40.6059 13.0864 40.6169 13.1115 40.6282 13.1374C40.6705 13.1234 40.7127 13.1094 40.7562 13.095C40.85 13.0638 40.9439 13.0327 41.0377 13.0016C41.0377 12.9717 41.0377 12.9418 41.0377 12.911C41.1071 12.8586 41.1071 12.8586 41.2041 12.8011C41.257 12.7694 41.257 12.7694 41.311 12.737C41.3485 12.715 41.3859 12.6931 41.4244 12.6704C41.4969 12.6272 41.5695 12.584 41.642 12.5408C41.678 12.5194 41.714 12.498 41.7511 12.476C42.0478 12.2986 42.3384 12.1117 42.6289 11.9246C43.0675 11.643 43.0675 11.643 43.176 11.643C43.176 11.6131 43.176 11.5833 43.176 11.5525C43.2476 11.4993 43.2476 11.4993 43.3472 11.441C43.401 11.409 43.401 11.409 43.456 11.3763C43.5131 11.343 43.5131 11.343 43.5713 11.3091C43.8006 11.1743 44.0151 11.0403 44.2224 10.8732C44.3504 10.8392 44.3504 10.8392 44.4499 10.8279C44.4499 10.798 44.4499 10.7681 44.4499 10.7373C44.5864 10.6468 44.5864 10.6468 44.6745 10.6448C44.8222 10.7192 44.8765 10.8541 44.9504 10.9949C44.9806 11.0508 45.0109 11.1066 45.0414 11.1624C45.0638 11.2037 45.0638 11.2037 45.0867 11.2458C45.156 11.3675 45.2354 11.482 45.3143 11.5977C45.3971 11.7317 45.4763 11.8676 45.5557 12.0035C45.5747 12.0361 45.5938 12.0687 45.6134 12.1022C45.6526 12.1693 45.6917 12.2364 45.7307 12.3035C45.8237 12.4621 45.9188 12.6149 46.0284 12.7628C46.117 12.883 46.1717 12.9972 46.2242 13.1374C46.2718 13.2168 46.3212 13.2951 46.3721 13.3723C46.4804 13.5386 46.5861 13.7057 46.6877 13.8761C46.7591 13.9956 46.8315 14.1117 46.9095 14.2271C47.0034 14.3687 47.0846 14.5142 47.1658 14.6633C47.2405 14.7947 47.3244 14.9189 47.4109 15.0429C47.4633 15.1521 47.4599 15.2368 47.4526 15.3563C47.4105 15.3761 47.4105 15.3761 47.3675 15.3963C47.1684 15.4923 46.9784 15.591 46.7958 15.7158C46.6157 15.8387 46.4305 15.9433 46.2381 16.0459C46.0459 16.1485 45.8549 16.2532 45.6641 16.3582C45.6119 16.3868 45.6119 16.3868 45.5586 16.4159C45.3646 16.5227 45.1798 16.6367 44.9959 16.7601C44.9178 16.8046 44.8391 16.8481 44.7598 16.8903C44.7163 16.9137 44.6727 16.9372 44.6278 16.9613C44.5438 17.006 44.4598 17.0507 44.3758 17.0954C44.0142 17.289 43.6634 17.499 43.3125 17.7111C43.3251 17.7348 43.3377 17.7585 43.3507 17.7829C43.4718 18.011 43.5925 18.2393 43.7128 18.4678C43.7557 18.5493 43.7988 18.6306 43.8419 18.712C43.9572 18.9342 44.0477 19.1583 44.1302 19.3944C44.1777 19.5247 44.2319 19.6503 44.2878 19.7772C44.3956 20.0306 44.4747 20.2875 44.5497 20.5519C44.6018 20.7355 44.6593 20.9142 44.7257 21.0933C44.9295 21.6878 44.9917 22.3483 45.0869 22.9641C46.7083 22.979 48.3298 22.994 50.0004 23.0094C50.0004 24.8026 50.0004 26.5959 50.0004 28.4435C47.5682 28.4659 47.5682 28.4659 45.0869 28.4888C44.9662 29.219 44.9662 29.219 44.8651 29.952C44.7888 30.5047 44.5828 31.0412 44.4044 31.5681C44.2149 31.5514 44.1192 31.483 43.979 31.359C43.8437 31.2461 43.6905 31.161 43.54 31.07C43.244 30.8868 42.9546 30.6958 42.669 30.4971C42.3981 30.3094 42.1216 30.1303 41.8371 29.9637C41.7012 29.881 41.5718 29.7913 41.4415 29.7001C41.2051 29.5351 40.9642 29.3804 40.7169 29.2319C40.673 29.2003 40.673 29.2003 40.6282 29.168C40.6282 29.1381 40.6282 29.1082 40.6282 29.0775C40.5891 29.0665 40.55 29.0555 40.5097 29.0442C40.3399 28.9812 40.2152 28.8995 40.0681 28.7944C40.0164 28.7576 39.9647 28.7208 39.9129 28.684C39.8878 28.6661 39.8626 28.6482 39.8367 28.6297C39.7045 28.5383 39.5661 28.4563 39.4276 28.3748C39.3278 28.2832 39.3269 28.2137 39.3089 28.0812C39.3162 27.981 39.3162 27.981 39.3343 27.8767C39.7145 25.4328 39.3662 22.7662 38.4444 20.4735C38.4327 20.4438 38.421 20.4141 38.409 20.3835C38.353 20.2418 38.2961 20.1005 38.2381 19.9596C38.179 19.8128 38.1235 19.6654 38.0692 19.5169C37.9433 19.1733 37.7958 18.8507 37.6255 18.5262C37.5644 18.4057 37.504 18.2848 37.4435 18.164C37.4124 18.1022 37.3813 18.0404 37.3502 17.9786C37.2949 17.8684 37.2401 17.7581 37.1857 17.6474C37.0734 17.4199 36.959 17.1991 36.819 16.9871C36.7687 16.9079 36.7222 16.8263 36.6765 16.7444C36.5862 16.5863 36.4817 16.4448 36.3687 16.3016C36.3286 16.2506 36.2886 16.1996 36.2486 16.1486C36.2281 16.1227 36.2077 16.0968 36.1866 16.0701C36.1237 15.9897 36.0616 15.9089 35.9997 15.8278C35.9796 15.8014 35.9595 15.7751 35.9387 15.7479C35.8826 15.6744 35.8265 15.6009 35.7705 15.5274C35.6814 15.4168 35.5891 15.3192 35.4872 15.2205C35.4323 15.1546 35.4323 15.1546 35.3763 15.0875C35.1784 14.852 34.9555 14.6531 34.7221 14.4535C34.6228 14.3601 34.6228 14.3601 34.5332 14.2474C34.4364 14.1282 34.3362 14.0398 34.2162 13.944C34.1728 13.9092 34.1294 13.8745 34.0847 13.8386C33.9828 13.7585 33.8798 13.6801 33.7761 13.6023C33.7355 13.5716 33.7355 13.5716 33.694 13.5404C33.6408 13.5005 33.5874 13.4609 33.5338 13.4216C33.4705 13.3742 33.4095 13.324 33.3489 13.2733C33.3489 13.2434 33.3489 13.2135 33.3489 13.1827C33.3104 13.1734 33.272 13.164 33.2323 13.1544C33.0747 13.0916 32.9839 13.0137 32.8602 12.9011C32.7024 12.7772 32.527 12.6842 32.3508 12.5891C32.2279 12.5221 32.1163 12.4547 32.0073 12.3667C31.8718 12.2603 31.7268 12.1885 31.5717 12.1157C31.2781 11.9768 31.2781 11.9768 31.1653 11.8909C31.0384 11.798 30.901 11.748 30.7556 11.6883C30.6754 11.6508 30.5951 11.6132 30.5151 11.5752C30.2222 11.4361 29.9276 11.3112 29.6232 11.1985C29.4841 11.1458 29.3481 11.088 29.2116 11.0289C28.9695 10.9274 28.7253 10.8553 28.4719 10.7869C28.3167 10.7425 28.1656 10.6925 28.0133 10.6394C27.5515 10.4792 27.0856 10.3671 26.6074 10.2668C26.4844 10.2404 26.3621 10.2119 26.2398 10.1828C24.1259 9.69365 21.8987 9.6229 19.742 9.75812C19.7064 9.76028 19.6707 9.76245 19.634 9.76468C19.5664 9.76881 19.4988 9.77314 19.4313 9.7777C19.3542 9.78238 19.2769 9.78464 19.1997 9.78638C19.1169 9.70402 19.1486 9.59004 19.1483 9.48042C19.1484 9.44267 19.1486 9.40492 19.1487 9.36603C19.1487 9.32623 19.1486 9.28643 19.1486 9.24543C19.1485 9.11102 19.1488 8.97661 19.149 8.84221C19.149 8.74628 19.149 8.65035 19.149 8.55442C19.149 8.29311 19.1492 8.03181 19.1496 7.7705C19.1498 7.49774 19.1499 7.22499 19.1499 6.95223C19.1501 6.43533 19.1504 5.91844 19.1509 5.40154C19.1514 4.81324 19.1516 4.22493 19.1519 3.63663C19.1524 2.42608 19.1532 1.21553 19.1542 0.00498392Z" fill="#D0A767"/>
<path d="M18.1984 4.98609C18.2439 5.03137 18.2439 5.03137 18.2495 5.11191C18.2494 5.14727 18.2494 5.18262 18.2493 5.21905C18.2494 5.27973 18.2494 5.27973 18.2495 5.34163C18.2494 5.38635 18.2492 5.43108 18.249 5.47715C18.249 5.52398 18.249 5.5708 18.2491 5.61905C18.249 5.77464 18.2487 5.93023 18.2483 6.08583C18.2482 6.19338 18.2482 6.30094 18.2481 6.40849C18.2479 6.69221 18.2475 6.97592 18.247 7.25964C18.2465 7.5489 18.2463 7.83816 18.2461 8.12742C18.2456 8.69545 18.2448 9.26347 18.2439 9.8315C18.1578 9.83938 18.1578 9.83938 18.0699 9.84741C17.8574 9.86689 17.6449 9.88661 17.4325 9.90641C17.3404 9.91495 17.2484 9.92342 17.1563 9.93183C17.0242 9.94392 16.892 9.95623 16.7599 9.96859C16.7186 9.97232 16.6773 9.97605 16.6347 9.97989C16.5964 9.98352 16.5582 9.98714 16.5188 9.99087C16.485 9.99399 16.4513 9.99711 16.4165 10.0003C16.3289 10.0089 16.3289 10.0089 16.2421 10.0579C16.2761 10.1127 16.3103 10.1674 16.3444 10.2221C16.365 10.2551 16.3856 10.2882 16.4068 10.3222C16.4602 10.4056 16.5171 10.4868 16.5747 10.5674C16.6515 10.6919 16.6515 10.6919 16.6515 10.873C16.6815 10.873 16.7116 10.873 16.7425 10.873C16.8056 10.9634 16.8628 11.053 16.9188 11.1476C16.9496 11.1985 16.9805 11.2495 17.0123 11.302C17.0746 11.407 17.1354 11.5125 17.1959 11.6186C17.2929 11.7884 17.3969 11.9533 17.5017 12.1184C17.6581 12.3658 17.8118 12.6146 17.9624 12.8655C18.1303 13.1453 18.301 13.4225 18.4786 13.6962C18.4966 13.7239 18.5145 13.7516 18.533 13.7801C18.5685 13.8348 18.6041 13.8894 18.6398 13.944C18.7572 14.1245 18.8656 14.3085 18.9718 14.4958C19.1121 14.7338 19.2569 14.9684 19.4069 15.2005C19.5032 15.35 19.5947 15.5001 19.6798 15.6562C19.7716 15.8238 19.8737 15.9807 19.9814 16.1386C20.0895 16.3005 20.1933 16.465 20.2969 16.6298C20.316 16.6601 20.3351 16.6904 20.3548 16.7216C20.4748 16.9131 20.589 17.107 20.7007 17.3034C20.8321 17.5274 20.9665 17.7482 21.113 17.9629C21.2232 18.1252 21.3192 18.2917 21.4131 18.4638C21.5307 18.6712 21.6627 18.8696 21.7926 19.0695C22.0986 19.5407 22.0986 19.5407 22.2276 19.7771C22.3226 19.951 22.4295 20.1136 22.5413 20.2773C22.6403 20.4259 22.7308 20.5792 22.8221 20.7326C22.8718 20.8146 22.9245 20.8948 22.9783 20.9743C23.0476 21.0788 23.1087 21.1816 23.1688 21.2912C23.383 21.6803 23.6226 22.0542 23.8719 22.4218C23.9411 22.5266 24.0039 22.6347 24.0654 22.7442C24.2101 22.9999 24.3645 23.2494 24.5257 23.4952C24.7106 23.7771 24.8835 24.0639 25.0512 24.3564C25.205 24.6247 25.364 24.8823 25.5469 25.1323C25.6369 25.2605 25.7108 25.395 25.7854 25.5326C25.9347 25.8059 26.0975 26.0677 26.2796 26.3206C26.3924 26.4783 26.4831 26.6332 26.5659 26.8078C26.6723 27.015 26.8062 27.207 26.9336 27.4018C27.1371 27.7157 27.334 28.0328 27.5241 28.355C27.5934 28.4713 27.656 28.5737 27.7525 28.6697C27.7704 28.7146 27.7882 28.7594 27.8065 28.8056C27.8855 28.9972 28.0031 29.154 28.1241 29.3214C28.2985 29.5686 28.4474 29.8306 28.5914 30.0962C28.6749 30.2484 28.7684 30.3883 28.87 30.5292C28.9854 30.6897 29.0778 30.8472 29.1622 31.0252C29.2327 31.1623 29.3201 31.2866 29.4071 31.4137C29.6343 31.747 29.8431 32.09 30.0421 32.4407C30.1196 32.5662 30.2078 32.6758 30.3003 32.7906C30.3483 32.8776 30.3483 32.8776 30.3856 32.9604C30.4707 33.1375 30.5751 33.2945 30.6865 33.4562C30.7763 33.5922 30.8524 33.7341 30.9296 33.8774C30.9852 33.978 30.9852 33.978 31.0879 34.0925C31.1647 34.1944 31.1647 34.1944 31.1821 34.3043C31.1647 34.4208 31.1647 34.4208 31.0796 34.5027C31.0411 34.5271 31.0025 34.5514 30.9628 34.5765C30.9211 34.6035 30.8794 34.6306 30.8365 34.6584C30.7947 34.6846 30.7528 34.7108 30.7098 34.7378C30.6414 34.7829 30.5731 34.8282 30.505 34.8737C30.4717 34.8957 30.4383 34.9177 30.4039 34.9404C30.2156 35.0661 30.0307 35.1965 29.8453 35.3265C29.7311 35.4066 29.6169 35.4866 29.502 35.5657C29.4267 35.6182 29.3523 35.672 29.2788 35.727C29.2433 35.7527 29.2079 35.7784 29.1714 35.8048C29.1402 35.8282 29.1089 35.8517 29.0767 35.8758C28.9809 35.9152 28.9809 35.9152 28.8718 35.8915C28.7255 35.8089 28.6093 35.7051 28.489 35.5897C28.441 35.5447 28.3931 35.4997 28.345 35.4548C28.3217 35.4329 28.2984 35.4109 28.2744 35.3884C28.1563 35.2793 28.0325 35.1769 27.9084 35.0746C27.8435 35.0095 27.8435 35.0095 27.798 34.8737C27.7642 34.8606 27.7305 34.8475 27.6957 34.8341C27.539 34.7703 27.4537 34.6826 27.3431 34.5567C27.3431 34.5268 27.3431 34.4969 27.3431 34.4661C27.3091 34.4546 27.2751 34.4431 27.2402 34.4313C27.1078 34.3721 27.0404 34.3134 26.9421 34.2086C26.8264 34.0889 26.7105 33.9743 26.5838 33.8661C26.4163 33.7227 26.2539 33.5742 26.0919 33.4246C25.8239 33.1774 25.5512 32.937 25.2733 32.7007C25.2305 32.6643 25.2305 32.6643 25.1868 32.6271C25.1297 32.5785 25.0725 32.5299 25.0152 32.4815C24.9756 32.4478 24.9756 32.4478 24.9352 32.4135C24.9115 32.3934 24.8878 32.3734 24.8635 32.3528C24.8165 32.3112 24.7708 32.2681 24.7265 32.2237C24.6415 32.1395 24.5486 32.0659 24.456 31.9902C24.3511 31.9005 24.2561 31.8011 24.1583 31.7038C24.1208 31.6739 24.0833 31.644 24.0446 31.6132C23.8842 31.4855 23.7455 31.3393 23.6024 31.1929C23.4593 31.0536 23.3097 30.9245 23.1574 30.7953C22.9264 30.5979 22.7 30.3969 22.4778 30.1896C22.297 30.021 22.113 29.8649 21.9118 29.7208C21.7998 29.6375 21.707 29.5402 21.6106 29.4396C21.4169 29.2427 21.2232 29.0479 21.0134 28.8679C20.7322 28.6258 20.5129 28.4084 20.3367 28.081C20.3014 28.0315 20.2653 27.9824 20.2286 27.9339C20.1004 27.76 20.0022 27.5725 19.9004 27.3825C19.826 27.2474 19.7414 27.1215 19.6542 26.9942C19.6096 26.9154 19.565 26.8366 19.5206 26.7577C19.4716 26.6762 19.4181 26.6008 19.3614 26.5244C19.2492 26.3724 19.1612 26.2117 19.0713 26.0459C19.0161 25.9452 19.0161 25.9452 18.9235 25.8366C18.8476 25.7417 18.8018 25.6644 18.75 25.5564C18.6667 25.3838 18.5665 25.2301 18.458 25.0721C18.3362 24.8906 18.2229 24.7039 18.1086 24.5176C18.0237 24.3796 17.9378 24.2423 17.8515 24.1052C17.7325 23.9157 17.6143 23.7256 17.496 23.5356C17.4711 23.4957 17.4462 23.4558 17.4206 23.4146C17.2736 23.1785 17.1287 22.9414 16.9862 22.7026C16.9045 22.569 16.8171 22.4396 16.7294 22.31C16.6311 22.1636 16.5344 22.0163 16.4383 21.8686C16.4209 21.8422 16.4036 21.8159 16.3858 21.7887C16.2805 21.6265 16.1915 21.4613 16.1056 21.2884C16.0575 21.2094 16.0082 21.1311 15.9577 21.0535C15.9299 21.0105 15.9021 20.9676 15.8735 20.9233C15.845 20.8794 15.8165 20.8355 15.7871 20.7903C15.732 20.7045 15.6771 20.6186 15.6222 20.5327C15.5958 20.4916 15.5695 20.4504 15.5424 20.408C15.4784 20.3075 15.415 20.2065 15.352 20.1054C15.2736 19.9795 15.1914 19.8569 15.1075 19.7346C14.9785 19.5436 14.869 19.3451 14.7599 19.1424C14.6695 18.9774 14.5701 18.8197 14.4677 18.6619C14.4023 18.561 14.3369 18.4601 14.2715 18.3591C14.2539 18.3319 14.2362 18.3047 14.2181 18.2766C14.069 18.046 13.9245 17.8128 13.7806 17.5788C13.6748 17.4078 13.5662 17.2386 13.4574 17.0694C13.3354 16.8776 13.2167 16.684 13.098 16.4902C13.0114 16.3518 12.9208 16.2164 12.8299 16.0807C12.788 16.0079 12.7463 15.935 12.7049 15.8619C12.4397 15.4054 12.1513 14.9613 11.8625 14.5193C11.6925 14.2586 11.5274 13.9979 11.3793 13.724C11.3118 13.6063 11.2336 13.4986 11.1527 13.3897C11.0834 13.2942 11.0235 13.194 10.9645 13.092C10.6781 13.1426 10.4922 13.2831 10.2625 13.4565C10.1456 13.5448 10.1456 13.5448 10.0006 13.6382C9.86212 13.7331 9.74057 13.8384 9.6156 13.95C9.50581 14.0454 9.39288 14.1355 9.27886 14.2258C8.9982 14.4539 8.73994 14.7015 8.48499 14.9571C8.45069 14.9914 8.45069 14.9914 8.41569 15.0263C8.06888 15.3733 7.7469 15.7269 7.46133 16.126C7.42109 16.181 7.38081 16.2359 7.34049 16.2909C7.22727 16.446 7.11654 16.6027 7.00637 16.76C6.98174 16.7946 6.95711 16.8292 6.93173 16.8649C6.55147 17.4129 6.24836 18.017 5.95997 18.6166C5.94502 18.6473 5.93007 18.678 5.91467 18.7095C5.7136 19.1251 5.54886 19.5478 5.40549 19.9865C5.39144 20.029 5.37739 20.0714 5.36292 20.1152C5.21208 20.5924 5.11703 21.0675 5.00455 21.5601C2.5273 21.5825 2.5273 21.5825 0 21.6054C0 20.8414 0 20.8414 0.0847717 20.5718C0.0935365 20.5429 0.102301 20.514 0.111331 20.4842C0.138743 20.3944 0.167403 20.3051 0.196201 20.2157C0.224106 20.1262 0.251739 20.0365 0.279347 19.9468C0.297418 19.8883 0.315611 19.8297 0.333932 19.7712C0.38826 19.5966 0.436009 19.4216 0.478774 19.2439C0.549342 18.9541 0.643311 18.6744 0.742153 18.3931C0.760197 18.3414 0.778242 18.2897 0.796834 18.2364C0.906652 17.9264 1.02518 17.6285 1.17099 17.3335C1.22919 17.2112 1.27505 17.0888 1.31938 16.9609C1.40099 16.7281 1.50752 16.5132 1.62079 16.2942C1.66958 16.1983 1.71384 16.1037 1.75444 16.0043C1.82209 15.8491 1.90139 15.7062 1.98512 15.5592C2.05035 15.4413 2.11015 15.3215 2.16959 15.2005C2.29164 14.9556 2.42099 14.7154 2.55346 14.476C2.57256 14.4411 2.59166 14.4063 2.61134 14.3704C2.71379 14.1866 2.82134 14.0237 2.95724 13.8618C3.00016 13.7867 3.04303 13.7115 3.08519 13.6359C3.26379 13.3348 3.48185 13.0592 3.69921 12.7852C3.77693 12.6834 3.84804 12.5791 3.91834 12.4721C4.02769 12.3062 4.14531 12.155 4.27662 12.0051C4.2999 11.9784 4.32318 11.9516 4.34717 11.924C4.5986 11.6357 4.85626 11.353 5.11367 11.0701C5.3286 10.8343 5.3286 10.8343 5.53344 10.59C5.64186 10.4651 5.75557 10.3641 5.88284 10.259C5.95139 10.201 6.01577 10.1382 6.07939 10.0749C6.18566 9.96914 6.29769 9.87957 6.41493 9.78622C6.44918 9.75184 6.48343 9.71745 6.51871 9.68203C6.64585 9.55639 6.77839 9.43956 6.91538 9.32489C6.94084 9.30355 6.9663 9.28221 6.99253 9.26022C7.68213 8.68638 7.68213 8.68638 7.99129 8.51331C8.10869 8.44739 8.20966 8.38329 8.31438 8.30033C8.62615 8.06264 8.96074 7.86148 9.3057 7.67555C9.49844 7.56714 9.68476 7.44809 9.87191 7.33043C9.993 7.25971 10.1062 7.20983 10.2366 7.15973C10.3441 7.10666 10.4511 7.05287 10.5579 6.99841C11.1138 6.71903 11.6786 6.43811 12.275 6.25546C12.5096 6.18012 12.7393 6.09127 12.9693 6.00319C13.1741 5.92643 13.3737 5.86945 13.5879 5.82551C13.7455 5.78951 13.8977 5.73912 14.0514 5.68973C14.5705 5.52342 15.0844 5.41158 15.6217 5.32373C15.776 5.29715 15.9289 5.26533 16.0821 5.23311C16.4531 5.15525 16.8245 5.09288 17.2003 5.0427C17.2425 5.03691 17.2847 5.03113 17.3282 5.02517C17.6172 4.98849 17.907 4.96671 18.1984 4.98609Z" fill="#D0A767"/>
<path d="M10.0998 21.9225C10.366 22.0503 10.583 22.2454 10.768 22.4744C10.8666 22.6028 10.8666 22.6028 10.9841 22.6895C11.1096 22.79 11.2041 22.8992 11.307 23.0217C11.4431 23.1814 11.5931 23.3204 11.7547 23.4537C11.9049 23.5798 12.0313 23.7188 12.1574 23.8685C12.2341 23.9558 12.3149 24.0375 12.3975 24.1193C12.4717 24.1928 12.5456 24.2667 12.6194 24.3406C12.7729 24.4942 12.9266 24.6477 13.0803 24.8011C13.1466 24.8673 13.2128 24.9335 13.279 24.9998C13.3747 25.0956 13.4706 25.1913 13.5665 25.287C13.5962 25.3167 13.6258 25.3465 13.6564 25.3772C13.6977 25.4182 13.6977 25.4182 13.7397 25.4601C13.7639 25.4843 13.7881 25.5084 13.813 25.5333C13.8757 25.5956 13.8757 25.5956 13.9669 25.6358C13.9669 25.6657 13.9669 25.6956 13.9669 25.7264C13.9969 25.7264 14.027 25.7264 14.0579 25.7264C14.1878 25.8449 14.301 25.9707 14.4133 26.1056C14.5422 26.2577 14.6853 26.3847 14.837 26.5137C15.008 26.6602 15.1572 26.8211 15.3034 26.9915C15.4303 27.1376 15.564 27.2627 15.7132 27.3858C15.8816 27.5263 16.0254 27.686 16.1678 27.8519C16.2957 27.9995 16.4314 28.1242 16.5824 28.2478C16.6648 28.3194 16.7279 28.3977 16.7877 28.4887C17.0303 28.4622 17.2593 28.4217 17.4964 28.3614C17.5611 28.3452 17.6259 28.329 17.6907 28.3129C17.7906 28.2877 17.8905 28.2624 17.9904 28.2369C19.0609 27.9641 19.0609 27.9641 19.3374 28.1079C19.3857 28.1605 19.3857 28.1605 19.435 28.2142C19.4711 28.2515 19.5073 28.2889 19.5446 28.3274C19.5807 28.3657 19.6167 28.404 19.6539 28.4434C19.731 28.5111 19.8087 28.5782 19.8871 28.6444C19.9898 28.7319 19.9898 28.7319 20.0634 28.8057C20.0634 28.8356 20.0634 28.8655 20.0634 28.8963C20.1 28.9117 20.1 28.9117 20.1373 28.9274C20.2829 29.0075 20.3951 29.1017 20.5183 29.2133C20.5183 29.2431 20.5183 29.273 20.5183 29.3038C20.5563 29.3206 20.5563 29.3206 20.5951 29.3378C20.7196 29.4048 20.8221 29.482 20.9278 29.5755C20.9278 29.6054 20.9278 29.6353 20.9278 29.6661C20.9658 29.6829 20.9658 29.6829 21.0046 29.7001C21.1951 29.8026 21.3428 29.9429 21.4944 30.0949C21.6421 30.2406 21.7943 30.3818 21.9458 30.5237C21.979 30.5549 22.0122 30.5862 22.0464 30.6184C22.2016 30.764 22.3577 30.9062 22.5219 31.0418C22.5886 31.1005 22.5886 31.1005 22.6566 31.1605C22.6566 31.1904 22.6566 31.2203 22.6566 31.2511C22.6885 31.2595 22.7204 31.2679 22.7533 31.2765C22.9092 31.3541 22.9793 31.4468 23.0869 31.5801C23.1856 31.6905 23.3063 31.7594 23.4301 31.8397C23.4592 31.8762 23.4882 31.9126 23.5182 31.9501C23.6191 32.0749 23.7209 32.147 23.8523 32.2365C23.9673 32.319 24.0603 32.417 24.158 32.519C24.3595 32.7243 24.5643 32.9214 24.7829 33.1086C24.9102 33.2194 25.0346 33.3333 25.1589 33.4473C25.5303 33.788 25.5303 33.788 25.9181 34.1096C26.0381 34.2064 26.1428 34.311 26.2508 34.4209C26.4674 34.6406 26.6855 34.8542 26.9201 35.0547C27.0538 35.1712 27.184 35.2913 27.3143 35.4115C27.4905 35.5741 27.6672 35.7359 27.846 35.8955C27.8816 35.9274 27.9172 35.9593 27.9539 35.9921C28.0169 36.0484 28.08 36.1047 28.1432 36.1608C28.2197 36.2288 28.2959 36.297 28.3721 36.3653C28.3964 36.3868 28.4206 36.4082 28.4457 36.4303C28.5044 36.4832 28.5607 36.5387 28.6166 36.5946C28.6166 36.6245 28.6166 36.6544 28.6166 36.6852C28.6485 36.6954 28.6804 36.7057 28.7133 36.7163C28.8756 36.7901 28.9835 36.8847 29.1171 37.0021C29.1392 36.9818 29.1614 36.9614 29.1842 36.9404C29.4238 36.7241 29.6724 36.5238 29.9279 36.3269C30.1226 36.1761 30.3078 36.0179 30.488 35.8501C30.5729 35.7795 30.5729 35.7795 30.6607 35.7386C30.7922 35.6693 30.8782 35.5678 30.9824 35.4625C31.0805 35.3802 31.1821 35.3025 31.2838 35.2247C31.3405 35.1809 31.3972 35.137 31.4539 35.0931C31.4818 35.0715 31.5098 35.0498 31.5386 35.0275C31.6961 34.9043 31.8502 34.7768 32.0048 34.65C32.1139 34.5616 32.2244 34.4753 32.3359 34.3898C32.4811 34.2782 32.6213 34.1628 32.7598 34.0431C33.1682 33.6948 33.5906 33.3611 34.0164 33.0341C34.1329 32.9444 34.2468 32.8533 34.3576 32.7568C34.5134 32.6218 34.6755 32.4955 34.8382 32.369C35.1838 32.1001 35.5277 31.8294 35.8562 31.5397C36.0069 31.4072 36.1629 31.2835 36.3223 31.1615C36.4719 31.047 36.6204 30.9312 36.7689 30.8152C36.8086 30.7843 36.8086 30.7843 36.8492 30.7527C37.0802 30.5723 37.3063 30.3873 37.5253 30.1925C37.6808 30.0567 37.8409 29.9289 38.0051 29.8037C38.1001 29.7307 38.1943 29.6568 38.2881 29.5823C38.3165 29.5597 38.345 29.5371 38.3744 29.5138C38.4312 29.4688 38.4879 29.4236 38.5445 29.3783C38.662 29.2854 38.7552 29.2156 38.8987 29.168C38.8987 29.1381 38.8987 29.1082 38.8987 29.0774C38.9767 29.0107 38.9767 29.0107 39.0778 28.9387C39.1981 28.8556 39.1981 28.8556 39.3082 28.7604C39.4486 28.7453 39.5181 28.7501 39.6408 28.8227C39.6788 28.8591 39.6788 28.8591 39.7176 28.8963C39.7176 28.9262 39.7176 28.956 39.7176 28.9868C39.7512 28.9987 39.7847 29.0105 39.8193 29.0227C39.9472 29.0783 40.032 29.1384 40.1385 29.2274C40.352 29.402 40.5697 29.5702 40.7896 29.7369C40.8569 29.788 40.9242 29.8391 40.9915 29.8902C41.0948 29.9687 41.1981 30.0471 41.3014 30.1255C41.4589 30.246 41.6113 30.3691 41.7593 30.501C41.9332 30.6547 42.1183 30.7882 42.3073 30.9227C42.6148 31.1465 42.9123 31.3842 43.2084 31.6227C43.3146 31.7087 43.3146 31.7087 43.4483 31.7916C43.5848 31.885 43.5848 31.885 43.6907 31.9917C43.8119 32.1111 43.9364 32.2093 44.0739 32.3096C44.1215 32.3447 44.1691 32.3797 44.2182 32.4159C44.2644 32.4499 44.3106 32.4839 44.3582 32.519C44.4343 32.5762 44.5101 32.6338 44.5857 32.6917C44.6166 32.7153 44.6476 32.7389 44.6795 32.7633C44.7677 32.836 44.7677 32.836 44.8594 32.9292C44.9435 33.0111 45.0173 33.0639 45.1203 33.119C45.1691 33.1452 45.2178 33.1713 45.2681 33.1983C45.2681 33.2282 45.2681 33.258 45.2681 33.2888C45.2925 33.2996 45.3168 33.3103 45.3419 33.3214C45.4809 33.3959 45.6004 33.4878 45.7259 33.5832C45.8599 33.6848 45.9924 33.7845 46.1325 33.8775C46.1325 33.9074 46.1325 33.9373 46.1325 33.9681C46.1654 33.9793 46.1982 33.9905 46.2321 34.0021C46.3726 34.0642 46.4742 34.1367 46.5875 34.2398C46.5875 34.2697 46.5875 34.2996 46.5875 34.3304C46.6187 34.3405 46.6499 34.3506 46.6821 34.361C46.8504 34.4369 46.9794 34.5403 47.1221 34.6559C47.1783 34.7008 47.2346 34.7457 47.2909 34.7906C47.3319 34.8235 47.3319 34.8235 47.3737 34.857C47.5114 34.9663 47.6529 35.0708 47.7942 35.1754C47.8275 35.2054 47.8275 35.2054 47.8614 35.2361C47.8614 35.2659 47.8614 35.2958 47.8614 35.3266C47.8875 35.3311 47.9136 35.3355 47.9405 35.3401C48.0654 35.3787 48.1338 35.4351 48.2339 35.5191C48.4473 35.694 48.6649 35.8621 48.885 36.0285C49.5209 36.511 49.5209 36.511 49.7267 36.6852C49.7582 36.7111 49.7896 36.7371 49.8221 36.7639C49.9329 36.8949 49.9308 36.9625 49.9294 37.1321C49.9294 37.1856 49.9293 37.2391 49.9293 37.2942C49.9284 37.3517 49.9274 37.4092 49.9265 37.4684C49.9261 37.557 49.9261 37.557 49.9257 37.6474C49.925 37.804 49.9232 37.9606 49.9212 38.1173C49.9193 38.2772 49.9185 38.4372 49.9176 38.5972C49.9156 38.9108 49.9125 39.2244 49.9087 39.5381C49.6598 39.5069 49.5395 39.4289 49.3656 39.255C49.1483 39.046 49.1483 39.046 48.9078 38.8645C48.771 38.768 48.6927 38.6713 48.5893 38.5418C48.5473 38.514 48.5053 38.4862 48.4621 38.4576C48.321 38.3637 48.2039 38.2639 48.0803 38.1484C47.8336 37.9215 47.5766 37.7104 47.3154 37.5003C47.2062 37.412 47.1011 37.323 46.997 37.2286C46.997 37.1987 46.997 37.1688 46.997 37.138C46.9574 37.1321 46.9574 37.1321 46.917 37.1261C46.7869 37.0835 46.7313 37.0198 46.6387 36.9201C46.4976 36.7685 46.3506 36.6637 46.178 36.5493C46.0932 36.4745 46.0099 36.3979 45.9278 36.3201C45.6976 36.1047 45.4566 35.9081 45.2059 35.7168C44.9392 35.513 44.9392 35.513 44.8587 35.4172C44.8587 35.3873 44.8587 35.3574 44.8587 35.3266C44.8277 35.3182 44.7967 35.3098 44.7648 35.3012C44.606 35.2238 44.5143 35.1247 44.3937 34.9981C44.3182 34.9245 44.2457 34.8699 44.1563 34.8144C44.1178 34.7891 44.0794 34.7639 44.0397 34.7379C44.0397 34.708 44.0397 34.6782 44.0397 34.6474C44.0159 34.6377 43.9921 34.628 43.9676 34.618C43.8131 34.5319 43.6888 34.4183 43.5563 34.3021C43.3273 34.1037 43.0956 33.9107 42.8563 33.7245C42.7749 33.6585 42.7027 33.5898 42.6294 33.5153C42.4188 33.3233 42.202 33.147 41.9682 32.9837C41.9462 32.9648 41.9241 32.946 41.9014 32.9266C41.9014 32.8967 41.9014 32.8668 41.9014 32.836C41.8745 32.8237 41.8477 32.8113 41.82 32.7986C41.7219 32.7467 41.6495 32.6922 41.5668 32.619C41.5386 32.5943 41.5105 32.5696 41.4815 32.5442C41.4521 32.5181 41.4227 32.4921 41.3924 32.4652C41.1691 32.2696 40.9448 32.0791 40.7064 31.9017C40.6282 31.8403 40.5607 31.7747 40.4911 31.7039C40.2827 31.514 40.0673 31.3377 39.8388 31.1723C39.7631 31.1152 39.7631 31.1152 39.6721 31.0246C39.6449 31.0592 39.6177 31.0937 39.5897 31.1293C39.5137 31.2223 39.4385 31.3029 39.3537 31.3869C39.1588 31.5991 38.9777 31.8201 38.8017 32.0479C38.561 32.3562 38.3081 32.6546 38.0542 32.952C37.8206 33.2256 37.5952 33.505 37.3712 33.7864C37.2911 33.8868 37.2106 33.9869 37.13 34.087C37.104 34.1198 37.078 34.1526 37.0512 34.1864C37.0266 34.2167 37.0021 34.2471 36.9768 34.2784C36.9549 34.3058 36.9329 34.3333 36.9102 34.3616C36.8908 34.3812 36.8714 34.4008 36.8514 34.4209C36.8213 34.4209 36.7913 34.4209 36.7604 34.4209C36.7491 34.4536 36.7379 34.4863 36.7263 34.52C36.652 34.6862 36.5509 34.8132 36.4192 34.9389C36.3419 35.0146 36.3419 35.0146 36.2656 35.1398C36.1688 35.2816 36.0632 35.387 35.9415 35.5078C35.8778 35.5823 35.8153 35.6579 35.7538 35.7342C35.6009 35.9224 35.4454 36.1078 35.2875 36.2918C35.0909 36.5213 34.9023 36.7561 34.7162 36.9941C34.5089 37.2585 34.2932 37.5154 34.0761 37.772C34.0562 37.797 34.0362 37.8221 34.0157 37.8479C33.9619 37.9147 33.9054 37.9794 33.8486 38.0437C33.8186 38.0437 33.7886 38.0437 33.7576 38.0437C33.845 38.3336 33.9611 38.5911 34.1001 38.86C34.1594 38.9791 34.2103 39.0972 34.2581 39.2211C34.3431 39.4411 34.4489 39.6477 34.5565 39.8575C34.633 40.0132 34.6961 40.1717 34.7586 40.3334C34.8232 40.4902 34.9017 40.639 34.9793 40.7897C35.0249 40.8831 35.0624 40.9743 35.0969 41.0721C35.1712 41.2801 35.2736 41.4728 35.374 41.6693C35.4455 41.8112 35.5108 41.9548 35.5745 42.1003C35.6353 42.2377 35.6988 42.3737 35.7623 42.5098C35.8557 42.7105 35.9449 42.9123 36.0324 43.1155C36.0769 43.2109 36.1214 43.3061 36.1661 43.4014C36.2476 43.5763 36.326 43.751 36.3964 43.9306C36.5344 44.281 36.6996 44.6194 36.8626 44.9587C37.1848 45.6304 37.1848 45.6304 37.3117 45.9608C37.3715 46.1071 37.4453 46.2457 37.5176 46.3862C37.6161 46.5868 37.701 46.793 37.7883 46.9986C37.8501 47.1407 37.9176 47.2776 37.9889 47.415C38.0694 47.5802 38.1362 47.7512 38.2061 47.921C38.2649 48.0589 38.331 48.1909 38.4 48.3239C38.4495 48.4257 38.4908 48.5291 38.5319 48.6345C38.5929 48.7901 38.66 48.9388 38.7366 49.0874C38.8192 49.2481 38.8927 49.4098 38.9613 49.577C39.1088 49.9365 39.2654 50.3009 39.4541 50.6412C39.4901 50.7233 39.4901 50.7233 39.4901 50.9044C39.3537 50.9044 39.3537 50.9044 39.2771 50.8331C39.2507 50.8015 39.2244 50.77 39.1973 50.7374C39.1692 50.7042 39.1411 50.671 39.1121 50.6368C39.055 50.5665 38.9992 50.4952 38.9442 50.4233C38.8424 50.303 38.7307 50.2103 38.6069 50.1132C38.5347 50.044 38.5347 50.044 38.4905 49.9548C38.4338 49.8433 38.3667 49.7867 38.2703 49.7072C38.0651 49.5335 37.8816 49.3626 37.7243 49.144C37.5993 48.9723 37.457 48.845 37.2898 48.7145C37.2153 48.6402 37.2153 48.6402 37.1935 48.5461C37.1857 48.5174 37.1779 48.4886 37.1698 48.4591C37.1103 48.4267 37.0495 48.3967 36.9879 48.3685C36.91 48.2884 36.91 48.2884 36.8343 48.1958C36.7355 48.0788 36.6395 47.9761 36.5187 47.8817C36.3964 47.7798 36.3964 47.7798 36.3541 47.6926C36.296 47.5806 36.2292 47.5231 36.132 47.443C35.9268 47.2693 35.7433 47.0984 35.586 46.8798C35.461 46.708 35.3186 46.5808 35.1515 46.4503C35.077 46.376 35.077 46.376 35.0552 46.2819C35.0474 46.2532 35.0396 46.2244 35.0315 46.1948C34.9451 46.1455 34.9451 46.1455 34.8496 46.1043C34.7849 46.0372 34.7849 46.0372 34.7244 45.9599C34.6235 45.8374 34.5191 45.7338 34.3974 45.6316C34.162 45.4322 33.9706 45.2006 33.7747 44.9637C33.638 44.8025 33.4886 44.6577 33.3368 44.5108C33.1861 44.3574 33.0434 44.1976 32.8996 44.0377C32.7949 43.9226 32.6866 43.8124 32.5748 43.7042C32.3385 43.4729 32.1134 43.2312 31.887 42.9905C31.6903 42.7816 31.6903 42.7816 31.4885 42.5778C31.3864 42.4761 31.3 42.3673 31.2099 42.2551C31.1752 42.2206 31.1404 42.186 31.1047 42.1504C31.0059 42.0521 30.9144 41.9526 30.8232 41.8476C30.6996 41.7056 30.5717 41.5711 30.4364 41.44C30.2002 41.2087 29.9751 40.967 29.7487 40.7262C29.5862 40.5538 29.4218 40.3842 29.2536 40.2173C29.0261 39.9697 29.0261 39.9697 29.0261 39.8551C28.9987 39.8431 28.9713 39.8312 28.9431 39.819C28.8387 39.7615 28.789 39.7101 28.7161 39.6173C28.5972 39.4724 28.4695 39.3568 28.3216 39.2418C28.2526 39.1758 28.2526 39.1758 28.2084 39.0865C28.1526 38.977 28.0894 38.9244 27.9939 38.8475C27.7645 38.6544 27.572 38.4376 27.3911 38.1993C27.279 38.0675 27.1533 37.9606 27.0219 37.8482C26.8508 37.7011 26.7068 37.5495 26.575 37.3673C26.4606 37.2107 26.3374 37.0934 26.1833 36.976C26.1143 36.9116 26.1143 36.9116 26.0701 36.8224C26.0144 36.7128 25.9512 36.6603 25.8556 36.5833C25.6262 36.3902 25.4337 36.1734 25.2528 35.9351C25.1683 35.8358 25.0846 35.7587 24.9855 35.6748C24.758 35.4812 24.5666 35.2633 24.3855 35.0266C24.2837 34.9063 24.1719 34.8136 24.0482 34.7165C23.976 34.6474 23.976 34.6474 23.9318 34.5582C23.8751 34.4467 23.808 34.39 23.7116 34.3106C23.5064 34.1369 23.3229 33.966 23.1656 33.7473C23.0198 33.5487 22.8449 33.401 22.6566 33.2436C22.5198 33.1171 22.407 32.989 22.2984 32.8388C22.184 32.6823 22.0607 32.565 21.9067 32.4475C21.8377 32.3832 21.8377 32.3832 21.7938 32.2945C21.7369 32.1828 21.6699 32.126 21.5733 32.0464C21.3332 31.8436 21.1293 31.6276 20.9278 31.3869C20.8921 31.3514 20.8565 31.3159 20.8197 31.2794C20.7219 31.182 20.6315 31.0833 20.5411 30.9793C20.3853 30.8005 20.2196 30.6349 20.0492 30.4699C19.9269 30.3454 19.9269 30.3454 19.8612 30.2493C19.6576 29.9719 19.4576 29.884 19.1272 29.8291C19.0271 29.8142 18.9268 29.801 18.8264 29.7878C18.7572 29.7774 18.6879 29.7669 18.6187 29.7561C18.4817 29.735 18.3445 29.7146 18.2073 29.6948C17.9506 29.6571 17.6962 29.6086 17.4417 29.5586C17.3159 29.5343 17.1902 29.51 17.0606 29.485C17.0456 30.0229 17.0306 30.5609 17.0151 31.1152C16.9551 31.1301 16.895 31.1451 16.8332 31.1605C16.7964 31.1206 16.7596 31.0807 16.7217 31.0397C16.6726 30.9865 16.6235 30.9334 16.5744 30.8803C16.5503 30.8541 16.5261 30.8279 16.5013 30.801C16.3949 30.686 16.2879 30.5725 16.1768 30.4619C15.9891 30.2751 15.8097 30.0805 15.6288 29.8872C15.5044 29.7547 15.38 29.6235 15.2504 29.4961C15.1618 29.4065 15.0906 29.3192 15.019 29.2161C14.9053 29.0613 14.7828 28.943 14.6339 28.8222C14.4318 28.657 14.2701 28.4614 14.1034 28.2623C14.0687 28.2277 14.034 28.1932 13.9982 28.1576C13.8921 28.052 13.793 27.944 13.6939 27.8321C13.5621 27.6833 13.4274 27.5403 13.2845 27.4019C13.0678 27.1897 12.8619 26.9683 12.6554 26.7465C12.504 26.5844 12.3501 26.426 12.1926 26.2698C12.134 26.2072 12.0761 26.1441 12.0191 26.0802C11.9916 26.0496 11.9641 26.0191 11.9358 25.9876C11.8741 25.9075 11.8741 25.9075 11.8741 25.8169C11.8473 25.8056 11.8205 25.7943 11.7929 25.7826C11.6788 25.7189 11.6182 25.6514 11.5357 25.5509C11.4431 25.4413 11.3618 25.3547 11.2485 25.265C11.1462 25.183 11.1462 25.183 11.0836 25.0754C10.9969 24.9359 10.8955 24.855 10.7689 24.7522C10.6683 24.665 10.5924 24.5619 10.5092 24.4584C10.4642 24.4435 10.4191 24.4285 10.3727 24.4131C10.3643 24.4529 10.3643 24.4529 10.3557 24.4934C10.2761 24.823 10.1486 25.1193 10.0078 25.4263C9.90594 25.6489 9.81569 25.8718 9.73508 26.103C9.68199 26.247 9.62116 26.3867 9.55949 26.5273C9.46197 26.7508 9.37125 26.9752 9.28652 27.2038C9.14244 27.592 8.98785 27.9758 8.83245 28.3597C8.77545 28.5009 8.71888 28.6423 8.66237 28.7838C8.6423 28.8339 8.62223 28.8841 8.60155 28.9358C8.56254 29.0333 8.52359 29.1309 8.4847 29.2285C8.38952 29.466 8.29045 29.7008 8.18489 29.934C8.11943 30.083 8.06298 30.2351 8.00695 30.3878C7.86095 30.7835 7.70221 31.1735 7.54072 31.5631C7.37424 31.965 7.21346 32.3678 7.06468 32.7766C7.00762 32.9225 6.93986 33.0583 6.86955 33.1983C6.82745 33.3053 6.78681 33.4129 6.74728 33.5209C6.53612 34.0904 6.31654 34.6572 6.05737 35.2069C5.97082 35.4053 5.90314 35.6103 5.83185 35.8145C5.77741 35.9613 5.71332 36.0957 5.63932 36.2333C5.59511 36.324 5.56337 36.4128 5.53275 36.5088C5.45817 36.7363 5.37452 36.9598 5.28856 37.1833C5.27277 37.2245 5.25698 37.2656 5.24071 37.308C5.11419 37.6361 4.98167 37.9614 4.84587 38.2857C4.7903 38.4187 4.73602 38.5521 4.6829 38.6862C4.61351 38.8604 4.53913 39.0322 4.46395 39.2041C4.34889 39.4693 4.24523 39.7372 4.14489 40.0082C4.07406 40.1986 3.997 40.3838 3.91196 40.5681C3.81181 40.7945 3.72735 41.0276 3.63934 41.2589C3.49694 41.6304 3.35136 42.0006 3.20233 42.3696C3.16596 42.4597 3.12974 42.5499 3.09392 42.6402C3.00711 42.8591 2.9161 43.076 2.82373 43.2925C2.69193 43.6017 2.56445 43.9099 2.45289 44.2269C2.40751 44.3473 2.35488 44.4624 2.30005 44.5788C2.21173 44.7672 2.13837 44.9569 2.06973 45.1533C2.0027 45.3449 1.93179 45.5301 1.84509 45.7137C1.71008 46.0005 1.60294 46.2967 1.49274 46.5935C1.18996 47.4031 1.18996 47.4031 1.02048 47.76C0.907488 47.999 0.821769 48.2455 0.73807 48.4959C0.671356 48.6918 0.592194 48.8737 0.495284 49.0568C0.438497 49.1706 0.400245 49.2885 0.363628 49.41C0.318587 49.41 0.273546 49.41 0.22714 49.41C0.221936 47.1582 0.217927 44.9064 0.215524 42.6546C0.215239 42.3889 0.214945 42.1233 0.214644 41.8576C0.214584 41.8047 0.214525 41.7518 0.214464 41.6973C0.213473 40.8402 0.211679 39.9831 0.20959 39.126C0.207464 38.2469 0.206199 37.3678 0.205737 36.4887C0.205424 35.946 0.204436 35.4033 0.202591 34.8606C0.201391 34.4888 0.201025 34.1169 0.201321 33.7451C0.201467 33.5303 0.201239 33.3156 0.200023 33.1009C0.19892 32.9044 0.198858 32.708 0.199638 32.5115C0.199734 32.4403 0.199443 32.3692 0.198731 32.298C0.197822 32.2014 0.198309 32.1049 0.199149 32.0083C0.199063 31.9546 0.198977 31.9009 0.198888 31.8455C0.23548 31.6621 0.313353 31.5965 0.45462 31.4775C0.499485 31.4385 0.499485 31.4385 0.545256 31.3988C0.573524 31.3752 0.601792 31.3517 0.630917 31.3275C0.790849 31.1899 0.928159 31.0417 1.06508 30.8817C1.20376 30.7208 1.35448 30.5794 1.51809 30.4444C1.67389 30.3144 1.80141 30.1685 1.92968 30.0119C2.00148 29.9378 2.00148 29.9378 2.13797 29.8925C2.15017 29.8673 2.16237 29.8421 2.17494 29.8161C2.2532 29.6644 2.36935 29.5473 2.50194 29.4397C2.53196 29.4397 2.56199 29.4397 2.59293 29.4397C2.60325 29.4145 2.61357 29.3892 2.62421 29.3633C2.701 29.2286 2.79615 29.1354 2.9114 29.0321C2.94143 29.0321 2.97146 29.0321 3.00239 29.0321C3.01594 28.9957 3.01594 28.9957 3.02976 28.9585C3.12092 28.8044 3.25096 28.6974 3.38342 28.5793C3.79982 28.2007 4.19627 27.8028 4.59316 27.4041C4.66778 27.3293 4.74282 27.255 4.81814 27.181C4.89764 27.1006 4.97013 27.0197 5.04118 26.9321C5.17005 26.78 5.31311 26.653 5.46486 26.524C5.63586 26.3775 5.785 26.2166 5.93119 26.0462C6.05818 25.9 6.19196 25.7749 6.34119 25.6517C6.51866 25.5037 6.66939 25.3335 6.82121 25.1603C6.92642 25.0412 7.02944 24.9311 7.1539 24.832C7.28241 24.7348 7.28241 24.7348 7.37569 24.6084C7.461 24.5037 7.461 24.5037 7.54754 24.4627C7.66034 24.4041 7.71849 24.3377 7.79937 24.2405C7.92343 24.0947 8.05131 23.9579 8.18893 23.8244C8.21251 23.8 8.23608 23.7755 8.26037 23.7503C8.32585 23.6828 8.39373 23.6176 8.46191 23.5527C8.49193 23.5527 8.52196 23.5527 8.5529 23.5527C8.56494 23.526 8.57699 23.4993 8.5894 23.4718C8.64576 23.3682 8.70409 23.3007 8.78786 23.218C8.83157 23.1745 8.83157 23.1745 8.87617 23.1301C8.90755 23.0994 8.93892 23.0686 8.97125 23.0369C9.00343 23.005 9.03562 22.9731 9.06878 22.9402C9.17148 22.8385 9.27449 22.7371 9.37751 22.6357C9.44726 22.5668 9.51698 22.4978 9.58669 22.4288C9.75747 22.2598 9.92852 22.091 10.0998 21.9225Z" fill="#D0A767"/>
<path d="M0 21.9678C0.801354 21.9659 1.60271 21.9641 2.42835 21.9621C2.80832 21.9609 2.80832 21.9609 3.19598 21.9596C3.50458 21.9592 3.50458 21.9592 3.6489 21.9592C3.75001 21.959 3.85112 21.9587 3.95223 21.9582C4.10511 21.9576 4.25798 21.9575 4.41086 21.9575C4.45614 21.9572 4.50142 21.9569 4.54807 21.9565C4.58907 21.9567 4.63007 21.9568 4.67231 21.9569C4.72604 21.9568 4.72604 21.9568 4.78084 21.9567C4.86807 21.9678 4.86807 21.9678 4.95906 22.0584C4.9686 22.1871 4.9686 22.1871 4.96591 22.3526C4.96533 22.3978 4.96533 22.3978 4.96475 22.4438C4.96334 22.5417 4.96124 22.6397 4.95906 22.7376C4.95789 22.802 4.95673 22.8664 4.95559 22.9309C4.94781 23.3335 4.93538 23.736 4.92217 24.1385C4.91556 24.3406 4.90955 24.5426 4.90491 24.7447C4.90036 24.9423 4.8943 25.1398 4.8872 25.3373C4.88478 25.4119 4.88287 25.4866 4.88152 25.5612C4.86909 26.2136 4.86909 26.2136 4.66751 26.4463C4.61455 26.4948 4.56017 26.5419 4.5041 26.5868C4.46193 26.6275 4.41976 26.6682 4.37632 26.7101C4.33685 26.745 4.29738 26.78 4.25671 26.816C4.21367 26.8543 4.17062 26.8926 4.12627 26.9321C3.99527 27.047 3.86414 27.1617 3.73244 27.2758C3.3908 27.5723 3.3908 27.5723 3.06529 27.8859C2.97102 27.9772 2.87854 28.0499 2.77241 28.1265C2.62519 28.2332 2.52386 28.3458 2.41128 28.4887C2.33597 28.5349 2.26012 28.5801 2.1838 28.6246C2.10702 28.6991 2.03121 28.7746 1.95633 28.851C1.8805 28.9114 1.80467 28.9718 1.72885 29.0321C1.62721 29.1306 1.52811 29.2313 1.42903 29.3323C1.26468 29.4981 1.09535 29.6547 0.918094 29.8067C0.76758 29.937 0.620432 30.0708 0.472909 30.2044C0.157764 30.4812 0.157764 30.4812 0.0454959 30.4812C0.0229754 30.5261 0.0229754 30.5261 0 30.5718C0 27.7325 0 24.8932 0 21.9678Z" fill="#D0A767"/>
<path d="M10.7057 50.3214C10.8776 50.4407 11.0062 50.5798 11.101 50.7686C11.1558 51.1069 11.1525 51.449 11.1509 51.7906C11.1508 51.8433 11.1508 51.8959 11.1507 51.9501C11.1505 52.1167 11.1499 52.2832 11.1493 52.4497C11.1491 52.5633 11.1489 52.6769 11.1487 52.7904C11.1482 53.0674 11.1474 53.3445 11.1465 53.6215C11.2058 53.5712 11.265 53.5208 11.324 53.4702C11.357 53.4422 11.3899 53.4141 11.4239 53.3852C11.5231 53.2927 11.5782 53.1941 11.6469 53.0781C11.7239 53.0075 11.8041 52.9421 11.8851 52.876C12.0035 52.7733 12.0941 52.6562 12.1929 52.5346C12.3234 52.3977 12.4605 52.2742 12.6052 52.1526C12.7574 52.022 12.8563 51.8874 12.9663 51.7195C13.0327 51.6635 13.0992 51.6076 13.1677 51.5541C13.2734 51.4641 13.3581 51.3592 13.4469 51.2529C13.5384 51.1454 13.6384 51.048 13.7397 50.9497C13.7918 50.8979 13.7918 50.8979 13.8449 50.845C13.9055 50.7847 13.9055 50.7847 13.9672 50.7233C13.996 50.693 14.0248 50.6628 14.0545 50.6316C14.1014 50.5831 14.1014 50.5831 14.1492 50.5336C14.1783 50.5031 14.2074 50.4726 14.2373 50.4411C14.4406 50.2676 14.642 50.2524 14.9001 50.2596C15.1061 50.2792 15.2591 50.3278 15.4021 50.4816C15.5375 50.6706 15.5971 50.8404 15.5807 51.073C15.4727 51.5997 14.9583 51.9862 14.5587 52.3082C14.4468 52.4169 14.3378 52.5279 14.2288 52.6394C14.1216 52.7437 14.012 52.8414 13.899 52.9394C13.7369 53.0813 13.5988 53.2254 13.4668 53.395C13.5062 53.4427 13.5062 53.4427 13.5464 53.4913C13.6487 53.6214 13.7387 53.7557 13.8307 53.8932C13.9024 53.9934 13.9744 54.0934 14.0468 54.1932C14.2262 54.4414 14.3981 54.6936 14.5672 54.9489C14.6595 55.0851 14.7567 55.2164 14.8579 55.3462C14.9449 55.4626 15.0244 55.5834 15.1046 55.7045C15.1624 55.7914 15.2202 55.8781 15.2781 55.9649C15.3253 56.036 15.3253 56.036 15.3735 56.1086C15.4326 56.1952 15.4934 56.2809 15.5566 56.3647C15.7904 56.6751 15.9976 57.0377 15.9719 57.4395C15.9122 57.6456 15.8341 57.7593 15.6961 57.9235C15.5365 58.0029 15.3543 57.9771 15.1785 57.9772C15.1393 57.9778 15.1 57.9784 15.0595 57.9789C15.0215 57.979 14.9835 57.9791 14.9443 57.9792C14.9096 57.9794 14.8749 57.9796 14.8392 57.9798C14.6519 57.9588 14.5695 57.8906 14.4462 57.7501C14.4065 57.6987 14.3673 57.6471 14.3283 57.5952C14.3086 57.5698 14.2889 57.5444 14.2685 57.5182C14.147 57.3588 14.0543 57.1989 13.9672 57.0178C13.9297 56.9575 13.8909 56.898 13.8506 56.8395C13.8272 56.8052 13.8038 56.7708 13.7797 56.7355C13.7374 56.6735 13.7374 56.6735 13.6942 56.6102C13.6163 56.4943 13.5387 56.3782 13.4611 56.2621C13.4048 56.178 13.3485 56.094 13.2921 56.0099C13.2417 55.9346 13.1915 55.8592 13.1414 55.7838C13.0783 55.6903 13.014 55.5994 12.9464 55.5093C12.8352 55.3562 12.7467 55.1945 12.6567 55.0285C12.5892 54.912 12.5049 54.8128 12.4204 54.7083C12.3635 54.5809 12.3635 54.5809 12.3294 54.4819C12.1089 54.664 11.9062 54.8563 11.7052 55.0594C11.5793 55.1828 11.4471 55.297 11.3116 55.4098C11.192 55.52 11.148 55.592 11.1369 55.7545C11.1376 55.8113 11.1384 55.8682 11.1392 55.9267C11.1394 55.9575 11.1397 55.9883 11.1399 56.02C11.1407 56.1187 11.1421 56.2173 11.1436 56.3159C11.1598 57.5589 11.1598 57.5589 10.919 57.8329C10.7748 57.9789 10.6427 57.9909 10.4459 57.9992C9.97611 58.0022 9.97611 58.0022 9.7967 57.8987C9.47599 57.5475 9.4954 57.1286 9.49684 56.68C9.49672 56.6184 9.49656 56.5568 9.49636 56.4951C9.49594 56.3285 9.4961 56.1619 9.49639 55.9953C9.49662 55.8205 9.49641 55.6458 9.49627 55.4711C9.4961 55.1778 9.49632 54.8845 9.49675 54.5912C9.49725 54.2524 9.49709 53.9137 9.49659 53.575C9.49617 53.2837 9.49611 52.9924 9.49635 52.7011C9.49649 52.5273 9.49651 52.3535 9.49621 52.1797C9.49595 52.0164 9.49613 51.853 9.49666 51.6897C9.49684 51.6013 9.49657 51.513 9.49628 51.4247C9.49654 51.3718 9.4968 51.319 9.49706 51.2645C9.49709 51.2187 9.49713 51.173 9.49716 51.1258C9.52333 50.8268 9.6477 50.5687 9.87543 50.3695C10.1248 50.2174 10.4363 50.2303 10.7057 50.3214Z" fill="#D0A767"/>
<path d="M33.8059 50.8701C34.1649 51.1769 34.4284 51.5351 34.4743 52.0139C34.4788 52.0554 34.4832 52.097 34.4878 52.1398C34.4838 52.3692 34.388 52.5139 34.2383 52.6818C34.2111 52.7129 34.184 52.7439 34.156 52.7759C34.0286 52.8968 33.9063 52.904 33.7378 52.9054C33.6859 52.9064 33.6859 52.9064 33.6328 52.9073C33.463 52.8901 33.3762 52.8355 33.2589 52.7128C33.1124 52.5283 32.9776 52.3514 32.8706 52.1412C32.7326 51.8805 32.5319 51.6982 32.2678 51.5667C31.753 51.4682 31.2243 51.4539 30.755 51.7195C30.6011 51.8414 30.4998 51.9557 30.4572 52.1499C30.4458 52.3604 30.4548 52.4566 30.5929 52.6224C30.6506 52.6686 30.6506 52.6686 30.7095 52.7158C30.7245 52.7606 30.7396 52.8054 30.755 52.8516C30.8372 52.8914 30.8372 52.8914 30.9416 52.9153C30.9829 52.9265 31.0241 52.9377 31.0666 52.9493C31.1139 52.9619 31.1612 52.9745 31.21 52.9875C31.3213 53.0198 31.4325 53.0524 31.5437 53.0851C31.6348 53.1116 31.7258 53.138 31.8169 53.1644C31.8785 53.1823 31.94 53.2002 32.0016 53.2181C32.0925 53.2446 32.1835 53.2711 32.2745 53.2974C32.3188 53.3102 32.3188 53.3102 32.364 53.3233C32.5463 53.3755 32.7293 53.4216 32.9139 53.4646C33.1421 53.5202 33.3404 53.5995 33.5473 53.7092C33.5773 53.7243 33.6073 53.7395 33.6381 53.7551C34.1284 54.0069 34.5169 54.3349 34.6989 54.8668C34.8684 55.5279 34.8163 56.2559 34.4715 56.848C34.4316 56.9052 34.3909 56.9618 34.3492 57.0178C34.3295 57.0469 34.3098 57.076 34.2895 57.106C34.1226 57.3262 33.9208 57.4596 33.6838 57.5951C33.6553 57.6117 33.6268 57.6282 33.5975 57.6452C33.0426 57.9467 32.505 57.9991 31.8853 57.9948C31.7591 57.9942 31.6331 57.9958 31.5069 57.9975C30.7931 58.0006 30.0684 57.8565 29.5311 57.3425C29.4859 57.2899 29.4421 57.236 29.4003 57.1807C29.3408 57.0984 29.3408 57.0984 29.2309 57.0093C28.9335 56.6762 28.7576 56.2325 28.752 55.7866C28.7684 55.5656 28.8392 55.4199 28.9807 55.2517C29.1695 55.096 29.3785 55.071 29.6176 55.0706C29.819 55.1172 29.982 55.2339 30.1181 55.3875C30.2375 55.5851 30.327 55.7929 30.411 56.0074C30.4875 56.1689 30.5782 56.2783 30.7001 56.4073C30.755 56.4744 30.755 56.4744 30.755 56.5649C30.8194 56.5867 30.8839 56.6084 30.9484 56.63C30.9843 56.6421 31.0202 56.6542 31.0571 56.6666C31.0926 56.6779 31.128 56.6892 31.1645 56.7008C31.1915 56.7094 31.2186 56.7181 31.2464 56.727C31.7302 56.8193 32.2651 56.7688 32.7113 56.5649C32.8528 56.4658 32.8528 56.4658 32.9388 56.3385C32.9726 56.2974 33.0064 56.2563 33.0412 56.214C33.1611 55.9924 33.1942 55.8019 33.1457 55.5536C33.0504 55.2809 32.8806 55.1434 32.6335 55.0019C32.3852 54.8904 32.126 54.8359 31.8614 54.7779C30.912 54.5587 29.8163 54.3033 29.2082 53.4856C29.1687 53.4338 29.1687 53.4338 29.1285 53.3809C28.8556 52.7968 28.8782 52.1973 29.0596 51.5891C29.2752 51.0599 29.7256 50.7334 30.2349 50.5181C31.3779 50.054 32.7984 50.1349 33.8059 50.8701Z" fill="#D0A767"/>
<path d="M21.3642 50.3938C21.4241 50.3934 21.484 50.3929 21.5456 50.3925C21.6108 50.3925 21.6759 50.3925 21.7411 50.3926C21.8086 50.3924 21.8761 50.3922 21.9436 50.392C22.0852 50.3917 22.2268 50.3917 22.3685 50.3919C22.5482 50.3922 22.7279 50.3914 22.9076 50.3904C23.0472 50.3897 23.1869 50.3897 23.3265 50.3898C23.3926 50.3898 23.4588 50.3896 23.5249 50.3891C24.0858 50.3857 24.6327 50.4332 25.1392 50.6921C25.19 50.7171 25.2407 50.7422 25.293 50.768C25.4552 50.8742 25.5413 50.9784 25.6596 51.1308C25.7173 51.1854 25.7173 51.1854 25.7762 51.2412C26.1408 51.6227 26.2072 52.1618 26.2226 52.6704C26.2073 53.1576 26.1371 53.674 25.8416 54.0743C25.8192 54.1052 25.7968 54.1361 25.7737 54.168C25.4142 54.6182 24.9378 54.8139 24.3857 54.9347C24.3371 54.9469 24.3371 54.9469 24.2875 54.9593C23.8452 55.0574 23.3944 55.0351 22.9441 55.0309C22.8587 55.0304 22.7733 55.03 22.6879 55.0296C22.4804 55.0287 22.2729 55.0271 22.0654 55.0252C22.0658 55.0526 22.0662 55.0799 22.0666 55.1081C22.0707 55.3947 22.0734 55.6812 22.0754 55.9677C22.0763 56.0745 22.0776 56.1812 22.0792 56.2879C22.0814 56.4419 22.0824 56.5959 22.0832 56.7499C22.0841 56.7971 22.0851 56.8443 22.086 56.8929C22.0861 57.2299 22.0343 57.544 21.8248 57.8193C21.672 57.9666 21.5283 57.9978 21.3249 57.9997C21.2915 57.9988 21.2581 57.9979 21.2237 57.997C21.1904 57.9979 21.157 57.9988 21.1226 57.9997C20.9235 57.9979 20.7697 57.969 20.6196 57.8251C20.389 57.4814 20.408 56.9968 20.4106 56.6005C20.4105 56.5434 20.4103 56.4862 20.4101 56.4274C20.4097 56.2723 20.4101 56.1173 20.4107 55.9623C20.4113 55.799 20.4111 55.6358 20.411 55.4725C20.4109 55.1986 20.4114 54.9247 20.4123 54.6507C20.4132 54.3352 20.4134 54.0197 20.4131 53.7041C20.4129 53.399 20.4131 53.0939 20.4136 52.7887C20.4138 52.6596 20.4139 52.5305 20.4138 52.4013C20.4137 52.2206 20.4143 52.0399 20.4151 51.8591C20.415 51.8063 20.4148 51.7535 20.4147 51.699C20.42 50.8898 20.42 50.8898 20.5924 50.6777C20.8241 50.4653 21.0508 50.395 21.3642 50.3938ZM22.0654 51.6289C22.0654 52.3462 22.0654 53.0635 22.0654 53.8026C23.2574 53.8597 23.2574 53.8597 24.3402 53.4403C24.5482 53.2084 24.5786 52.8803 24.5677 52.5799C24.522 52.3176 24.4474 52.087 24.2492 51.9006C23.7937 51.5895 23.299 51.6172 22.7678 51.6232C22.4201 51.6261 22.4201 51.6261 22.0654 51.6289Z" fill="#D0A767"/>
<path d="M10.5548 1.77107C10.5714 1.80178 10.5879 1.83248 10.6049 1.86412C10.7409 2.11461 10.8813 2.36112 11.0295 2.60458C11.2085 2.89958 11.3832 3.19685 11.5472 3.50036C11.6686 3.72388 11.7962 3.94352 11.9254 4.16264C11.9445 4.19514 11.9636 4.22764 11.9833 4.26112C12.0687 4.40536 12.1548 4.54417 12.252 4.68111C12.3292 4.80511 12.3292 4.80511 12.3292 4.98625C12.3038 4.99997 12.2785 5.01369 12.2524 5.02782C12.0786 5.12278 11.9073 5.219 11.7406 5.32588C11.6068 5.4106 11.4707 5.48302 11.3283 5.5523C11.157 5.63569 10.9967 5.72686 10.8365 5.82932C10.5603 6.00279 10.2756 6.16355 9.98896 6.31931C9.76454 6.442 9.54838 6.57764 9.33158 6.71307C9.19596 6.79403 9.05871 6.86382 8.91697 6.93347C8.79769 6.99717 8.67956 7.06281 8.56153 7.12876C8.52949 7.14656 8.49746 7.16435 8.46445 7.18269C8.25409 7.30079 8.05422 7.42689 7.86132 7.57205C7.77957 7.61274 7.77957 7.61274 7.68804 7.6115C7.55581 7.54711 7.51092 7.45698 7.4355 7.33254C7.40782 7.28718 7.38014 7.24183 7.35162 7.1951C7.27658 7.06493 7.21004 6.93183 7.14262 6.79762C7.09961 6.73308 7.05594 6.66897 7.01182 6.60516C6.889 6.42555 6.79208 6.2412 6.69726 6.04583C6.63103 5.91526 6.55422 5.79439 6.47476 5.67153C6.37833 5.51649 6.293 5.3556 6.20605 5.19516C6.10315 5.00589 5.99814 4.81854 5.88011 4.63813C5.82324 4.53341 5.82324 4.53341 5.82324 4.35227C5.90517 4.2847 5.90517 4.2847 6.01944 4.22208C6.08146 4.18741 6.08146 4.18741 6.14473 4.15203C6.2108 4.11666 6.2108 4.11666 6.2782 4.08057C6.34356 4.04519 6.34356 4.04519 6.41025 4.0091C6.49547 3.96302 6.58077 3.91709 6.66616 3.8713C6.79973 3.79717 6.92489 3.7128 7.05163 3.62772C7.09198 3.60811 7.13233 3.5885 7.1739 3.56829C7.31466 3.49692 7.44037 3.41717 7.57199 3.33055C7.76246 3.20778 7.92164 3.12849 8.14354 3.08431C8.14354 3.05443 8.14354 3.02454 8.14354 2.99375C8.16596 2.98145 8.18839 2.96916 8.21149 2.95649C8.77016 2.65005 8.77016 2.65005 9.31968 2.32775C9.4511 2.24902 9.5847 2.17477 9.71937 2.10168C9.79871 2.05821 9.87741 2.01357 9.95573 1.96831C9.99954 1.94338 10.0433 1.91845 10.0885 1.89277C10.1286 1.8696 10.1687 1.84642 10.21 1.82255C10.3356 1.76744 10.4192 1.76063 10.5548 1.77107Z" fill="#D0A767"/>
<path d="M27.1323 56.531C27.3044 56.6492 27.3908 56.7694 27.465 56.964C27.5105 57.281 27.491 57.5246 27.2972 57.7876C27.1645 57.9271 27.0654 57.9801 26.8764 57.9944C26.8044 57.9953 26.7323 57.9952 26.6603 57.9942C26.6061 57.9958 26.6061 57.9958 26.5508 57.9975C26.3544 57.997 26.2752 57.9885 26.1181 57.8614C26.0868 57.8221 26.0555 57.7828 26.0233 57.7423C25.9886 57.7031 25.9539 57.6639 25.9181 57.6234C25.8081 57.4045 25.8066 57.2129 25.8414 56.9725C25.9174 56.7523 26.0551 56.5996 26.2508 56.4744C26.5524 56.3311 26.8481 56.3661 27.1323 56.531Z" fill="#D0A767"/>
<path d="M18.5566 56.5423C18.734 56.6716 18.8143 56.7893 18.8673 57.0011C18.9032 57.2859 18.8619 57.5469 18.6988 57.7876C18.473 57.9758 18.3089 57.9937 18.0278 57.9829C17.9929 57.9824 17.958 57.982 17.922 57.9815C17.6679 57.9764 17.6679 57.9764 17.5614 57.9234C17.5614 57.8935 17.5614 57.8636 17.5614 57.8329C17.5164 57.8179 17.4713 57.803 17.4249 57.7876C17.2254 57.5266 17.2033 57.2949 17.2429 56.9725C17.3218 56.737 17.4501 56.6164 17.6524 56.4743C17.9647 56.3223 18.2638 56.3716 18.5566 56.5423Z" fill="#D0A767"/>
</svg>
