<svg width="477" height="336" viewBox="0 0 477 336" fill="none" xmlns="http://www.w3.org/2000/svg">
<g clip-path="url(#clip0_167_2085)">
<path d="M243.614 335.288C257.96 335.288 269.59 323.663 269.59 309.322C269.59 294.982 257.96 283.357 243.614 283.357C229.267 283.357 217.637 294.982 217.637 309.322C217.637 323.663 229.267 335.288 243.614 335.288Z" fill="#D0A767"/>
<path d="M329.45 261.908C336.935 261.908 343.003 255.843 343.003 248.361C343.003 240.88 336.935 234.814 329.45 234.814C321.964 234.814 315.896 240.88 315.896 248.361C315.896 255.843 321.964 261.908 329.45 261.908Z" fill="#29574A" fill-opacity="0.59"/>
<path d="M240.831 38.3848C200.233 38.6714 166.991 71.6482 166.415 112.225C166.409 112.6 166.407 115.234 166.407 118.679C166.408 123.731 168.415 128.575 171.989 132.148C175.562 135.72 180.409 137.727 185.463 137.727C187.968 137.727 190.449 137.233 192.763 136.274C195.077 135.315 197.18 133.909 198.95 132.137C200.721 130.366 202.125 128.263 203.082 125.948C204.039 123.634 204.53 121.154 204.528 118.65C204.526 116.306 204.525 114.684 204.525 114.585C204.524 108.314 206.156 102.15 209.26 96.7006C212.365 91.2511 216.835 86.7033 222.232 83.5046C227.628 80.3058 233.765 78.5663 240.038 78.4571C246.311 78.3479 252.504 79.8728 258.009 82.8818C263.513 85.8908 268.139 90.2802 271.432 95.6183C274.725 100.956 276.57 107.059 276.787 113.327C277.005 119.594 275.586 125.81 272.67 131.363C269.755 136.916 265.444 141.615 260.161 144.997L260.168 145.005C260.168 145.005 233.045 162.458 224.776 186.4L224.783 186.402C223.329 191.306 222.593 196.396 222.596 201.511C222.596 203.614 222.72 222.013 222.959 236.946C223.043 242.099 225.149 247.012 228.825 250.626C232.5 254.24 237.45 256.265 242.605 256.264C245.196 256.263 247.761 255.751 250.153 254.757C252.545 253.762 254.716 252.304 256.542 250.468C258.368 248.631 259.813 246.452 260.793 244.055C261.774 241.658 262.27 239.091 262.254 236.502C262.171 222.825 262.126 206.9 262.126 205.745C262.126 191.043 276.315 176.396 287.969 166.844C301.39 155.844 311.048 140.854 314.927 123.945C315.786 120.464 316.259 116.899 316.339 113.315C316.339 103.429 314.382 93.6408 310.58 84.5145C306.779 75.3881 301.208 67.1038 294.19 60.1388C287.171 53.1738 278.843 47.6659 269.685 43.9323C260.528 40.1987 250.721 38.3134 240.831 38.3848Z" fill="#D0A767"/>
<path d="M476.328 336H0.672405C0.494411 336 0.323889 335.929 0.198211 335.803C0.0725324 335.677 0.00195312 335.506 0.00195312 335.328C0.00195312 335.15 0.0725324 334.98 0.198211 334.854C0.323889 334.728 0.494411 334.657 0.672405 334.656H476.328C476.506 334.656 476.677 334.727 476.803 334.853C476.929 334.979 477 335.15 477 335.328C477 335.507 476.929 335.678 476.803 335.804C476.677 335.93 476.506 336 476.328 336Z" fill="#3F3D56"/>
<path d="M354.894 154.095C364.25 154.095 371.835 146.514 371.835 137.161C371.835 127.809 364.25 120.228 354.894 120.228C345.537 120.228 337.952 127.809 337.952 137.161C337.952 146.514 345.537 154.095 354.894 154.095Z" fill="#2F2E41"/>
<path d="M323.588 328.588H316.665L313.371 301.896H323.59L323.588 328.588Z" fill="#A0616A"/>
<path d="M311.719 326.609H325.071V335.012H303.313C303.312 333.909 303.53 332.816 303.952 331.797C304.375 330.777 304.994 329.851 305.775 329.071C306.555 328.29 307.482 327.671 308.502 327.249C309.522 326.827 310.615 326.609 311.719 326.609Z" fill="#2F2E41"/>
<path d="M377.235 328.588H370.313L367.019 301.896H377.237L377.235 328.588Z" fill="#A0616A"/>
<path d="M365.368 326.609H378.72V335.012H356.961C356.961 333.909 357.178 332.816 357.601 331.797C358.023 330.777 358.643 329.851 359.423 329.071C360.204 328.29 361.131 327.671 362.151 327.249C363.171 326.827 364.264 326.609 365.368 326.609Z" fill="#2F2E41"/>
<path d="M352.319 154.193C359.979 154.193 366.189 147.986 366.189 140.329C366.189 132.673 359.979 126.466 352.319 126.466C344.659 126.466 338.449 132.673 338.449 140.329C338.449 147.986 344.659 154.193 352.319 154.193Z" fill="#A0616A"/>
<path d="M360.587 198.918L366.793 184.666C368.3 181.322 368.732 177.594 368.029 173.994C367.326 170.395 365.523 167.102 362.868 164.571C362.323 164.032 361.744 163.529 361.134 163.064C358.072 160.669 354.298 159.364 350.41 159.355C347.796 159.366 345.215 159.939 342.843 161.038C342.64 161.128 342.442 161.224 342.239 161.32C341.849 161.506 341.465 161.709 341.093 161.918C338.662 163.313 336.593 165.26 335.052 167.602C333.512 169.943 332.544 172.613 332.227 175.397L329.488 198.337C328.799 200.138 304.222 265.163 312.818 314.807C312.909 315.337 313.168 315.824 313.556 316.197C313.944 316.57 314.441 316.809 314.975 316.879L323.688 318.064C324.325 318.151 324.97 317.994 325.495 317.624C326.02 317.254 326.385 316.7 326.517 316.072L341.138 246.412C341.229 245.979 341.463 245.589 341.801 245.305C342.14 245.02 342.565 244.858 343.007 244.843C343.449 244.828 343.884 244.961 344.241 245.222C344.598 245.483 344.858 245.856 344.978 246.282L365.635 319.537C365.782 320.07 366.1 320.539 366.54 320.873C366.979 321.208 367.517 321.389 368.069 321.389C368.234 321.388 368.398 321.373 368.56 321.344L379.205 319.295C379.824 319.179 380.377 318.836 380.757 318.334C381.136 317.832 381.314 317.206 381.255 316.58C379.691 299.143 371.378 211.805 360.587 198.918Z" fill="#2F2E41"/>
<path d="M298.417 151.867C298.321 152.691 298.407 153.527 298.668 154.314C298.93 155.102 299.361 155.822 299.932 156.425C300.502 157.028 301.198 157.499 301.97 157.804C302.742 158.109 303.571 158.241 304.4 158.191L312.153 176.814L318.017 168.124L309.756 151.772C309.58 150.386 308.901 149.113 307.848 148.194C306.795 147.275 305.442 146.774 304.044 146.785C302.647 146.797 301.302 147.321 300.265 148.257C299.228 149.194 298.57 150.478 298.417 151.867Z" fill="#A0616A"/>
<path d="M351.551 217.67C352.375 217.572 353.168 217.294 353.873 216.856C354.578 216.418 355.179 215.831 355.632 215.136C356.086 214.441 356.382 213.655 356.499 212.834C356.616 212.012 356.551 211.175 356.309 210.381L372.621 198.506L362.801 194.83L348.816 206.671C347.509 207.165 346.428 208.122 345.779 209.359C345.131 210.596 344.958 212.029 345.295 213.384C345.633 214.74 346.456 215.925 347.608 216.715C348.761 217.505 350.164 217.845 351.551 217.67Z" fill="#A0616A"/>
<path d="M324.959 189.23C324.334 189.229 323.71 189.168 323.096 189.046C321.613 188.764 320.221 188.121 319.045 187.175C317.868 186.228 316.942 185.007 316.349 183.618L305.487 170.38C305.258 170.1 305.091 169.774 304.997 169.425C304.904 169.075 304.886 168.709 304.946 168.352C305.005 167.995 305.14 167.655 305.342 167.354C305.543 167.054 305.807 166.8 306.115 166.609L313.843 161.828C314.128 161.651 314.445 161.533 314.777 161.48C315.108 161.426 315.447 161.439 315.773 161.517C316.099 161.595 316.407 161.738 316.678 161.935C316.949 162.133 317.178 162.382 317.352 162.669L325.008 175.275L339.669 164.445C340.836 163.834 342.185 163.662 343.468 163.962C344.751 164.262 345.884 165.014 346.659 166.079C347.434 167.145 347.799 168.454 347.688 169.767C347.578 171.079 346.998 172.308 346.056 173.229L331.423 186.571C329.703 188.275 327.38 189.23 324.959 189.23Z" fill="#2F2E41"/>
<path d="M364.574 209.139C364.554 209.139 364.534 209.139 364.514 209.138C364.158 209.13 363.807 209.046 363.485 208.894C363.163 208.741 362.877 208.522 362.644 208.252L355.774 200.24C355.54 199.968 355.367 199.648 355.265 199.303C355.164 198.959 355.137 198.596 355.186 198.24C355.235 197.884 355.359 197.543 355.55 197.238C355.741 196.934 355.995 196.673 356.294 196.474L369.159 187.901L357.504 173.896C356.826 172.766 356.577 171.43 356.803 170.132C357.029 168.834 357.715 167.661 358.735 166.827C359.755 165.992 361.041 165.553 362.359 165.588C363.676 165.623 364.937 166.131 365.911 167.019L380.076 180.855C381.191 181.873 382.042 183.147 382.556 184.566C383.07 185.985 383.232 187.507 383.028 189.003C382.824 190.498 382.26 191.922 381.384 193.151C380.509 194.381 379.347 195.38 378.001 196.062L366.423 208.341C366.185 208.593 365.899 208.794 365.581 208.931C365.263 209.068 364.92 209.139 364.574 209.139Z" fill="#2F2E41"/>
<path d="M348.792 179.619C348.682 179.619 348.572 179.612 348.463 179.598C347.984 179.54 347.532 179.345 347.161 179.038C346.79 178.731 346.514 178.324 346.367 177.865L341.205 162.044C341.075 161.644 341.095 161.211 341.261 160.824C341.426 160.438 341.726 160.124 342.105 159.942L342.272 159.863C342.424 159.79 342.575 159.719 342.728 159.651C345.136 158.535 347.756 157.953 350.41 157.944C353.855 157.951 357.223 158.962 360.101 160.855C360.487 161.112 360.757 161.51 360.852 161.963C360.947 162.416 360.86 162.889 360.61 163.279L350.925 178.445C350.698 178.805 350.383 179.102 350.01 179.307C349.637 179.512 349.218 179.619 348.792 179.619Z" fill="#E6E6E6"/>
<path d="M368.251 129.601C371.312 129.601 373.794 127.12 373.794 124.06C373.794 120.999 371.312 118.519 368.251 118.519C365.189 118.519 362.707 120.999 362.707 124.06C362.707 127.12 365.189 129.601 368.251 129.601Z" fill="#2F2E41"/>
<path d="M349.247 117.97C345.353 117.97 341.618 119.516 338.865 122.268C336.111 125.02 334.564 128.753 334.564 132.646V138.855H342.205L345.859 132.646L346.955 138.855H370.141L363.93 132.646C363.93 128.753 362.383 125.02 359.629 122.268C356.876 119.516 353.141 117.97 349.247 117.97Z" fill="#2F2E41"/>
<path d="M371.1 120.265C371.713 118.349 372.982 116.71 374.684 115.637C376.386 114.564 378.413 114.125 380.407 114.397C383.939 114.987 386.733 117.826 388.397 120.996C390.061 124.166 390.83 127.715 391.949 131.116C393.067 134.517 394.654 137.936 397.479 140.138C400.303 142.34 404.638 142.937 407.412 140.672C407.095 143.032 406.044 145.233 404.407 146.964C402.77 148.694 400.63 149.866 398.29 150.314C395.95 150.763 393.528 150.464 391.367 149.461C389.206 148.458 387.416 146.802 386.248 144.726C384.784 142.122 384.407 139.072 383.972 136.117C383.538 133.163 382.974 130.106 381.227 127.684C379.479 125.262 376.208 123.68 373.432 124.783L371.1 120.265Z" fill="#2F2E41"/>
<path d="M190.844 128.718C185.79 128.717 180.943 126.71 177.369 123.138C173.796 119.566 171.788 114.721 171.788 109.67C171.788 106.224 171.79 103.59 171.795 103.215C171.956 91.4145 174.929 79.8219 180.469 69.3994C171.367 81.853 166.363 96.8259 166.148 112.247C166.143 112.621 166.14 115.256 166.141 118.701C166.141 123.752 168.149 128.597 171.722 132.169C175.296 135.741 180.143 137.748 185.196 137.749C189.349 137.747 193.388 136.391 196.7 133.886C200.011 131.38 202.414 127.863 203.543 123.869C200.053 126.996 195.53 128.723 190.844 128.718Z" fill="#3F3D56"/>
<path d="M242.123 78.5211C247.966 78.8 253.653 80.4921 258.698 83.4521C263.742 86.4122 267.992 90.5517 271.083 95.5152C274.174 100.479 276.014 106.118 276.445 111.949C276.875 117.78 275.883 123.628 273.554 128.991C276.923 125.037 279.399 120.403 280.813 115.406C282.228 110.408 282.547 105.165 281.751 100.033C280.954 94.9007 279.059 90.0007 276.196 85.6668C273.333 81.3329 269.569 77.6671 265.16 74.9191C260.751 72.1712 255.801 70.4058 250.648 69.7433C245.495 69.0809 240.259 69.5369 235.298 71.0803C230.337 72.6237 225.767 75.2182 221.9 78.6869C218.033 82.1557 214.96 86.4171 212.89 91.1806C216.467 86.9739 220.964 83.6447 226.032 81.4498C231.101 79.2549 236.606 78.2529 242.123 78.5211Z" fill="#3F3D56"/>
<path d="M247.986 247.254C242.83 247.255 237.88 245.231 234.205 241.617C230.53 238.003 228.423 233.09 228.339 227.937C228.1 213.004 227.976 194.605 227.976 192.502C227.973 187.386 228.71 182.297 230.164 177.392L230.157 177.391C231.015 174.929 232.052 172.533 233.259 170.222C229.554 175.157 226.605 180.618 224.51 186.422L224.517 186.424C223.063 191.329 222.326 196.418 222.329 201.533C222.329 203.636 222.453 222.035 222.692 236.968C222.776 242.121 224.882 247.034 228.558 250.648C232.233 254.262 237.183 256.287 242.338 256.286C246.589 256.285 250.725 254.906 254.126 252.357C257.527 249.808 260.009 246.225 261.201 242.147C257.588 245.439 252.874 247.261 247.986 247.254Z" fill="#3F3D56"/>
<path d="M71.4597 328.845L78.3825 328.844L81.6765 302.152L71.458 302.153L71.4597 328.845Z" fill="#FFB8B8"/>
<path d="M91.7344 335.27L69.9755 335.271L69.9752 326.867L83.3272 326.867C85.5568 326.867 87.6952 327.752 89.2718 329.328C90.8485 330.904 91.7343 333.041 91.7344 335.27Z" fill="#2F2E41"/>
<path d="M46.612 328.845L53.5349 328.844L56.8289 302.152L46.6104 302.153L46.612 328.845Z" fill="#FFB8B8"/>
<path d="M66.8877 335.27L45.1289 335.271L45.1285 326.867L58.4805 326.867C60.7101 326.867 62.8485 327.752 64.4251 329.328C66.0018 330.904 66.8876 333.041 66.8877 335.27Z" fill="#2F2E41"/>
<path d="M52.6615 320.636L45.8991 320.28C45.5504 320.262 45.2088 320.175 44.8941 320.023C44.5794 319.872 44.2978 319.66 44.0657 319.399C43.8337 319.139 43.6557 318.834 43.542 318.504C43.4284 318.174 43.3815 317.825 43.4039 317.477L51.4864 228.029L88.7073 238.069L92.2934 237.091L81.0791 316.276C80.9836 316.871 80.6876 317.416 80.2402 317.821C79.7927 318.226 79.2205 318.466 78.618 318.502L71.3282 318.842C70.9636 318.862 70.5989 318.806 70.257 318.678C69.9151 318.55 69.6034 318.353 69.3416 318.099C69.0799 317.844 68.8738 317.538 68.7364 317.2C68.599 316.862 68.5332 316.499 68.5433 316.135L69.8641 268.609C69.8703 268.39 69.7939 268.175 69.65 268.009C69.5061 267.843 69.3051 267.737 69.0867 267.711C68.8682 267.686 68.6481 267.743 68.4697 267.871C68.2914 268 68.1677 268.191 68.123 268.406L55.3848 318.537C55.2646 319.132 54.9417 319.666 54.4711 320.05C54.0006 320.433 53.4116 320.642 52.8045 320.64C52.7572 320.64 52.7095 320.639 52.6615 320.636Z" fill="#2F2E41"/>
<path d="M72.702 154.842C80.3622 154.842 86.5719 148.635 86.5719 140.978C86.5719 133.321 80.3622 127.114 72.702 127.114C65.0418 127.114 58.832 133.321 58.832 140.978C58.832 148.635 65.0418 154.842 72.702 154.842Z" fill="#FFB8B8"/>
<path d="M49.6102 181.709L51.1353 214.599L51.6866 226.564C51.7086 227.085 51.8855 227.588 52.1948 228.008C52.504 228.427 52.9316 228.745 53.4227 228.921L89.1894 241.872C89.4784 241.979 89.7845 242.033 90.0927 242.03C90.445 242.032 90.794 241.962 91.119 241.826C91.4439 241.69 91.738 241.49 91.9838 241.238C92.2297 240.986 92.4221 240.686 92.5497 240.358C92.6773 240.03 92.7373 239.679 92.7264 239.327L91.26 180.191C91.1637 175.339 89.3769 170.673 86.2076 166.996C83.0383 163.32 78.6852 160.864 73.8986 160.052C73.5527 160 73.2007 159.947 72.8487 159.9C69.8807 159.532 66.8679 159.818 64.0225 160.739C61.177 161.659 58.5679 163.192 56.3788 165.229C54.1121 167.313 52.331 169.869 51.1614 172.717C49.9918 175.565 49.4623 178.634 49.6102 181.709Z" fill="#CCCCCC"/>
<path d="M106.275 235.308C105.429 235.046 104.656 234.59 104.018 233.976C103.38 233.362 102.894 232.607 102.6 231.772C102.305 230.937 102.21 230.045 102.322 229.167C102.433 228.288 102.749 227.448 103.243 226.714L91.1143 210.593L101.581 209.945L111.494 225.353C112.555 226.173 113.294 227.341 113.58 228.651C113.866 229.961 113.682 231.33 113.059 232.517C112.436 233.705 111.415 234.636 110.175 235.146C108.934 235.656 107.554 235.714 106.275 235.308Z" fill="#FFB8B8"/>
<path d="M97.747 223.797C97.4257 223.666 97.1334 223.473 96.8871 223.229C96.6408 222.985 96.4453 222.695 96.312 222.375L78.0389 178.858C77.6803 178.006 77.4933 177.092 77.4884 176.168C77.4835 175.244 77.6609 174.327 78.0104 173.472C78.36 172.616 78.8748 171.837 79.5255 171.181C80.1762 170.524 80.95 170.002 81.8027 169.644C82.6553 169.286 83.5702 169.1 84.4949 169.096C85.4196 169.092 86.3361 169.27 87.192 169.62C88.0478 169.97 88.8263 170.485 89.4829 171.136C90.1394 171.787 90.6612 172.561 91.0185 173.413L109.292 216.93C109.562 217.575 109.565 218.301 109.3 218.949C109.035 219.596 108.524 220.112 107.88 220.384L99.7672 223.787C99.4478 223.922 99.1048 223.992 98.758 223.994C98.4113 223.996 98.0676 223.929 97.747 223.797Z" fill="#CCCCCC"/>
<path d="M68.2432 222.262L85.7941 188.671C86.1325 188.025 86.7135 187.54 87.4096 187.322C88.1057 187.103 88.86 187.17 89.507 187.507L114.982 200.805C115.628 201.144 116.114 201.724 116.333 202.42C116.551 203.116 116.484 203.87 116.147 204.517L98.5965 238.107C98.258 238.753 97.677 239.238 96.9809 239.457C96.2849 239.675 95.5306 239.608 94.8835 239.272L69.4084 225.973C68.7621 225.635 68.2765 225.054 68.058 224.358C67.8396 223.662 67.9062 222.908 68.2432 222.262Z" fill="#3F3D56"/>
<path d="M80.0138 206.915C79.7018 206.086 79.2003 205.342 78.5495 204.742C77.8986 204.141 77.1163 203.701 76.265 203.457C75.4137 203.212 74.5171 203.17 73.6465 203.333C72.776 203.496 71.9557 203.861 71.2511 204.397L54.4348 193.247L54.4062 203.729L70.3797 212.71C71.2614 213.721 72.471 214.389 73.7962 214.597C75.1214 214.805 76.4776 214.54 77.627 213.849C78.7763 213.158 79.6455 212.084 80.0819 210.816C80.5184 209.548 80.4942 208.167 80.0138 206.915Z" fill="#FFB8B8"/>
<path d="M58.7518 209.273L45.0085 198.391C43.5217 197.892 42.1783 197.04 41.0936 195.908C40.0089 194.776 39.2152 193.398 38.7807 191.891C38.3462 190.385 38.2839 188.796 38.5992 187.26C38.9144 185.725 39.5977 184.288 40.5905 183.075L53.0691 166.728C53.9362 165.669 55.1558 164.957 56.5048 164.723C57.8538 164.488 59.2421 164.747 60.4161 165.452C61.59 166.156 62.471 167.259 62.8982 168.56C63.3253 169.86 63.27 171.271 62.7424 172.533L52.869 188.677L67.3788 195.556C67.7162 195.716 68.0158 195.946 68.2578 196.23C68.4998 196.514 68.6787 196.846 68.7827 197.205C68.8867 197.563 68.9134 197.94 68.861 198.309C68.8087 198.679 68.6784 199.033 68.4789 199.349L62.6219 208.614C62.4239 208.927 62.1624 209.194 61.8543 209.4C61.5463 209.605 61.1985 209.743 60.8336 209.806C60.8191 209.808 60.8045 209.81 60.7899 209.812C60.4314 209.867 60.0655 209.847 59.7149 209.754C59.3644 209.661 59.0366 209.497 58.7518 209.273Z" fill="#CCCCCC"/>
<path d="M62.2224 150.261C62.1628 150.087 62.144 149.902 62.1672 149.72C62.1904 149.537 62.2551 149.363 62.3562 149.209C62.4574 149.055 62.5924 148.927 62.7509 148.834C62.9094 148.74 63.0872 148.684 63.2707 148.67C63.6463 148.691 64.0139 148.787 64.3513 148.953C64.6887 149.12 64.9889 149.353 65.2337 149.638C65.7356 150.217 66.32 150.718 66.968 151.127C67.6389 151.465 68.5489 151.417 68.9314 150.772C69.2906 150.167 69.0445 149.356 68.827 148.653C68.2737 146.865 67.9641 145.01 67.9066 143.139C67.844 141.05 68.1388 138.87 69.2957 137.241C70.7887 135.139 73.4584 134.341 75.9849 134.398C78.5115 134.456 80.997 135.236 83.4997 135.729C84.3636 135.899 85.3792 135.986 85.957 135.316C86.5715 134.605 86.3458 133.453 86.0844 132.492C85.4063 129.999 84.6868 127.421 83.1111 125.407C81.4074 123.314 78.9737 121.945 76.3002 121.574C73.7334 121.256 71.1279 121.552 68.6978 122.437C64.7385 123.684 61.2546 126.11 58.712 129.39C56.091 132.878 54.9585 137.262 55.562 141.583C56.1516 145.346 58.1466 148.745 61.1447 151.096L62.2224 150.261Z" fill="#2F2E41"/>
<path d="M237.891 328.955C234.201 327.348 230.934 324.907 228.35 321.822C225.766 318.738 223.934 315.096 222.999 311.183C222.064 307.27 222.052 303.193 222.963 299.274C223.875 295.355 225.685 291.702 228.251 288.603C225.276 290.774 222.797 293.552 220.978 296.754C219.16 299.956 218.044 303.508 217.704 307.175C217.364 310.841 217.808 314.537 219.006 318.019C220.204 321.5 222.13 324.687 224.655 327.368C227.18 330.049 230.246 332.162 233.651 333.568C237.055 334.974 240.72 335.64 244.402 335.522C248.083 335.403 251.698 334.504 255.005 332.883C258.312 331.262 261.237 328.956 263.584 326.119C259.923 328.794 255.624 330.463 251.116 330.961C246.608 331.458 242.048 330.767 237.891 328.955Z" fill="#3F3D56"/>
</g>
<defs>
<clipPath id="clip0_167_2085">
<rect width="477" height="336" fill="white"/>
</clipPath>
</defs>
</svg>
