<svg width="207" height="342" viewBox="0 0 207 342" fill="none" xmlns="http://www.w3.org/2000/svg">
<path d="M202.985 61.2857C200.638 59.0582 198.237 46.6361 195.24 45.375C197.48 50.2719 195.854 51.5684 195.842 56.9427C195.87 59.9944 195.51 63.0374 194.769 66H144V26.8125C144 23.2914 144.701 19.8048 146.063 16.5517C147.426 13.2986 149.423 10.3428 151.94 7.85297C154.457 5.36317 157.446 3.38817 160.735 2.04076C164.024 0.693337 167.549 -0.000103743 171.109 1.16414e-08C172.468 0.0262333 173.818 0.221698 175.128 0.581817C179.492 1.74706 183.469 4.02677 186.661 7.19224C189.852 10.3577 192.146 14.2976 193.312 18.6168C197.183 32.6084 203.338 55.8986 202.985 61.2857Z" fill="#292929"/>
<path d="M146.976 109.799L147 79L129.497 80.6178L135.674 100.042L132.784 148.867C131.381 149.192 130.101 149.933 129.099 150.998C128.097 152.063 127.415 153.407 127.139 154.865C126.862 156.324 127.001 157.834 127.54 159.212C128.079 160.59 128.993 161.776 130.173 162.626C131.352 163.475 132.744 163.951 134.181 163.996C135.617 164.041 137.035 163.653 138.262 162.879C139.488 162.105 140.471 160.978 141.089 159.637C141.707 158.295 141.935 156.796 141.744 155.323L146.976 109.799Z" fill="#FFB6B6"/>
<path d="M182.002 328L189.454 327.999L193 300H182L182.002 328Z" fill="#FFB6B6"/>
<path d="M180.438 324.683L191.841 324V328.903L202.682 336.417C203.218 336.788 203.621 337.321 203.833 337.939C204.045 338.556 204.055 339.225 203.862 339.849C203.668 340.472 203.281 341.017 202.757 341.404C202.233 341.791 201.599 342 200.948 342H187.372L185.032 337.15L184.119 342H179L180.438 324.683Z" fill="#29574A"/>
<path d="M140.001 328L147.455 327.999L151 300H140L140.001 328Z" fill="#FFB6B6"/>
<path d="M138.438 324.683L149.841 324V328.903L160.682 336.417C161.218 336.788 161.621 337.321 161.833 337.939C162.045 338.556 162.055 339.225 161.862 339.849C161.668 340.472 161.281 341.017 160.757 341.404C160.233 341.791 159.599 342 158.948 342H145.372L143.032 337.15L142.119 342H137L138.438 324.683Z" fill="#29574A"/>
<path d="M175.794 46L160.712 46.2945L150.066 57.484L141.531 58.7304C137.67 59.2943 134.121 61.1606 131.476 64.0174C128.831 66.8742 127.251 70.5484 127 74.4259L128.479 82.5131H137.35L142.482 112.519C140.487 117.582 140.351 121.579 144.447 123.149L157.163 147L194.72 130.216C196.624 126.955 197.234 123.68 195.288 120.496L197.972 74.5627H207C207 65.9717 204.082 58.7293 195.508 57.7733C192.103 57.4064 188.681 57.2115 185.257 57.1895L175.794 46Z" fill="#E6E6E6"/>
<path d="M194.82 130.098C194.82 130.098 158.234 136.604 144.662 123C144.662 123 143.284 125.345 141.208 129.233C140.611 130.351 139.458 131.109 138.761 132.463C138.128 133.694 136.5 135.208 135.811 136.604C135.256 137.727 136.146 139.195 135.569 140.409C128.618 155.021 120.498 175.633 122.239 189.244C123.361 198.021 125.68 218.445 128.122 240.381C128.313 242.095 126.768 244.297 126.959 246.024C127.14 247.653 129.058 248.808 129.239 250.441C129.359 251.525 128.02 252.631 128.14 253.713C128.271 254.901 129.862 256.066 129.992 257.249C133.338 287.539 136.401 315.817 136.401 315.817H153.514L156.742 251.232L154.104 227.689L160.3 180.076L168.856 225.323L169.957 250.788L178.999 317H194.82V252.903L196 249.573L194.82 245.303L196 240.701L194.82 235.69V130.098Z" fill="#29574A"/>
<path d="M180.585 37.2243C178.261 40.3104 174.956 42.5133 171.213 43.4701C167.471 44.427 163.513 44.0808 159.994 42.4886C156.474 40.8964 153.602 38.1531 151.849 34.7105C150.097 31.2678 149.57 27.3312 150.354 23.5488C151.138 19.7665 153.187 16.364 156.164 13.9016C159.141 11.4393 162.867 10.064 166.73 10.0022C170.592 9.94037 174.361 11.1957 177.415 13.5616C180.469 15.9274 182.625 19.2627 183.53 23.018C183.579 23.2217 183.621 23.4243 183.661 23.6347C184.138 25.9885 184.111 28.417 183.581 30.7596C183.051 33.1022 182.03 35.3056 180.585 37.2243Z" fill="#FFB6B6"/>
<path d="M176.62 27.5348C176.258 25.7365 175.342 24.0933 173.999 22.8309C174.132 24.5542 173.89 26.2856 173.291 27.9088C168.805 28.3021 164.298 27.4182 160.302 25.3611C157.292 23.3394 153.462 23.5146 149 25.3611C149 23.2125 149.427 21.0848 150.257 19.0997C151.088 17.1145 152.305 15.3108 153.839 13.7915C155.374 12.2721 157.196 11.067 159.201 10.2449C161.206 9.42275 163.354 8.99973 165.525 9H168.475C172.858 9.00079 177.06 10.7248 180.159 13.7929C183.258 16.8611 184.999 21.0221 185 25.3611C182.277 26.3282 179.472 27.0556 176.62 27.5348Z" fill="#292929"/>
<path d="M47.5 238C73.7335 238 95 216.734 95 190.5C95 164.266 73.7335 143 47.5 143C21.2665 143 0 164.266 0 190.5C0 216.734 21.2665 238 47.5 238Z" fill="#29574A"/>
<path d="M169.321 177H44.6798C42.9097 176.995 41.2135 176.291 39.9618 175.041C38.7101 173.791 38.0048 172.097 38 170.329V109.672C38.0045 107.904 38.7096 106.21 39.9612 104.959C41.2127 103.709 42.9088 103.005 44.6789 103H169.32C171.09 103.005 172.786 103.709 174.038 104.959C175.29 106.209 175.995 107.903 176 109.671V170.328C175.995 172.096 175.29 173.79 174.039 175.041C172.787 176.291 171.091 176.995 169.321 177Z" fill="white"/>
<path d="M169.321 177H44.6798C42.9097 176.995 41.2135 176.291 39.9618 175.041C38.7101 173.791 38.0048 172.097 38 170.329V109.672C38.0045 107.904 38.7096 106.21 39.9612 104.959C41.2127 103.709 42.9088 103.005 44.6789 103H169.32C171.09 103.005 172.786 103.709 174.038 104.959C175.29 106.209 175.995 107.903 176 109.671V170.328C175.995 172.096 175.29 173.79 174.039 175.041C172.787 176.291 171.091 176.995 169.321 177ZM44.6798 104.861C43.4034 104.865 42.1803 105.373 41.2778 106.274C40.3753 107.176 39.8668 108.398 39.8633 109.672V170.328C39.867 171.603 40.3757 172.825 41.2784 173.726C42.1811 174.628 43.4043 175.136 44.6807 175.139H169.319C170.596 175.136 171.819 174.627 172.722 173.726C173.625 172.824 174.133 171.603 174.137 170.328V109.672C174.133 108.397 173.624 107.175 172.722 106.274C171.819 105.372 170.596 104.865 169.319 104.861L44.6798 104.861Z" fill="#29574A"/>
<path d="M114.144 168C89.6978 168 64.2075 167.766 54.6968 167.614C53.4455 167.588 52.2539 167.073 51.3763 166.178C50.4988 165.283 50.0048 164.08 50 162.825V112.698C50.0005 112.248 50.1784 111.817 50.495 111.499C50.8115 111.181 51.2408 111.002 51.689 111H163.307C163.755 111.001 164.185 111.179 164.502 111.496C164.819 111.814 164.998 112.244 165 112.693V146.704C164.979 152.255 162.789 157.578 158.899 161.529C155.01 165.48 149.73 167.746 144.194 167.839C135.33 167.955 124.834 168 114.144 168Z" fill="#D0A767"/>
<path d="M156.979 144H55.5924C54.7435 143.998 53.9158 143.731 53.222 143.238C52.5281 142.744 52.0017 142.046 51.7142 141.239L40.2388 108.733C40.0176 108.106 39.9487 107.435 40.0378 106.775C40.1269 106.116 40.3714 105.488 40.7508 104.943C41.1302 104.399 41.6334 103.955 42.2181 103.648C42.8028 103.34 43.452 103.179 44.1111 103.178L170.842 103C171.445 102.999 172.04 103.132 172.586 103.389C173.132 103.646 173.616 104.02 174.003 104.487C174.39 104.953 174.671 105.499 174.826 106.086C174.982 106.674 175.008 107.289 174.902 107.888L175 107.93L174.636 108.787L174.633 108.796L160.76 141.48C160.444 142.228 159.917 142.866 159.245 143.314C158.572 143.762 157.784 144.001 156.979 144ZM170.848 104.881L44.1147 105.059C43.7536 105.06 43.398 105.148 43.0777 105.316C42.7573 105.484 42.4817 105.728 42.2738 106.026C42.066 106.324 41.932 106.668 41.8832 107.029C41.8343 107.39 41.8721 107.758 41.9932 108.102L53.4682 140.607C53.6259 141.049 53.9145 141.431 54.2948 141.701C54.6751 141.972 55.1286 142.118 55.5938 142.119H156.979C157.42 142.12 157.851 141.989 158.219 141.744C158.587 141.498 158.875 141.149 159.048 140.74L172.921 108.055C173.068 107.708 173.127 107.331 173.094 106.955C173.061 106.58 172.936 106.219 172.731 105.904C172.525 105.59 172.246 105.332 171.917 105.153C171.589 104.974 171.221 104.881 170.848 104.881Z" fill="#29574A"/>
<path d="M107 151C111.418 151 115 147.418 115 143C115 138.582 111.418 135 107 135C102.582 135 99 138.582 99 143C99 147.418 102.582 151 107 151Z" fill="white"/>
<path d="M206.975 102.655L207 72L188.847 73.6103L195.254 92.9441L171.998 127.938C170.544 128.262 169.216 128.999 168.177 130.059C167.137 131.119 166.431 132.456 166.144 133.908C165.857 135.36 166.001 136.863 166.56 138.234C167.119 139.606 168.068 140.787 169.291 141.632C170.513 142.478 171.958 142.952 173.448 142.997C174.937 143.041 176.408 142.655 177.68 141.884C178.952 141.114 179.971 139.992 180.613 138.657C181.254 137.322 181.49 135.83 181.292 134.363L206.975 102.655Z" fill="#FFB6B6"/>
</svg>
