<svg width="58" height="67" viewBox="0 0 58 67" fill="none" xmlns="http://www.w3.org/2000/svg">
<path d="M22.2185 0.00575729C22.9279 0.00453668 23.6372 0.00361144 24.3465 0.00304694C24.676 0.00277579 25.0055 0.00240892 25.335 0.00181097C25.6539 0.00123594 25.9729 0.000928406 26.2918 0.000794159C26.4125 0.000698684 26.5332 0.000512316 26.6539 0.000226436C27.261 -0.00115204 27.8669 0.00320322 28.4735 0.0289627C28.5233 0.0309952 28.5731 0.0330278 28.6244 0.035122C28.6697 0.0372915 28.715 0.0394611 28.7616 0.0416964C28.8214 0.0445241 28.8214 0.0445241 28.8824 0.0474088C28.9738 0.0580684 28.9738 0.0580684 29.0265 0.110379C29.0316 0.268019 29.0332 0.424457 29.0325 0.582112C29.0325 0.631611 29.0325 0.681109 29.0325 0.732108C29.0325 0.896561 29.0321 1.06101 29.0317 1.22546C29.0316 1.33915 29.0315 1.45284 29.0315 1.56653C29.0313 1.86641 29.0307 2.16629 29.0302 2.46617C29.0296 2.77191 29.0294 3.07765 29.0291 3.3834C29.0285 3.98378 29.0276 4.58417 29.0265 5.18456C29.0566 5.18592 29.0867 5.18729 29.1177 5.18869C29.2557 5.19504 29.3936 5.20157 29.5316 5.20811C29.5789 5.21025 29.6262 5.2124 29.675 5.21461C30.0411 5.23215 30.3998 5.26917 30.7615 5.32841C30.8187 5.33744 30.876 5.34647 30.9349 5.35578C31.4596 5.4414 31.9759 5.55603 32.4926 5.67931C32.6602 5.71806 32.829 5.75022 32.9979 5.78286C33.4059 5.86838 33.795 6.00366 34.1883 6.13918C34.2972 6.17615 34.4066 6.21142 34.5164 6.2459C34.9082 6.37002 35.2712 6.51241 35.6389 6.69442C35.7884 6.76739 35.7884 6.76739 35.9929 6.75389C36.0156 6.71316 36.0156 6.71316 36.0388 6.6716C36.1081 6.54752 36.1775 6.42348 36.2469 6.29943C36.2707 6.25672 36.2945 6.214 36.3191 6.16999C36.4857 5.87233 36.6577 5.5815 36.8457 5.29651C37.0461 4.99233 37.2333 4.68623 37.4025 4.36352C37.4696 4.24468 37.546 4.14206 37.6289 4.03371C37.6709 3.96255 37.7116 3.89058 37.7509 3.81793C37.9886 3.38776 38.2482 2.97466 38.5261 2.569C38.5609 2.51721 38.5957 2.46542 38.6316 2.41207C38.8677 2.44236 39.0472 2.53835 39.2484 2.65728C39.281 2.67615 39.3136 2.69503 39.3472 2.71448C39.4431 2.77024 39.5388 2.8265 39.6344 2.88287C39.6823 2.91078 39.7302 2.9387 39.7795 2.96746C40.0023 3.09844 40.2215 3.23412 40.4392 3.37328C40.8086 3.60785 41.1904 3.81999 41.5732 4.03222C41.7922 4.15462 42.0035 4.28617 42.2138 4.42277C42.4554 4.57832 42.6983 4.72597 42.952 4.8617C43.1236 4.95498 43.2905 5.05575 43.4579 5.15615C43.5947 5.2382 43.7322 5.31926 43.8696 5.40034C43.9127 5.4263 43.9558 5.45226 44.0003 5.47901C44.0741 5.52311 44.1484 5.56626 44.2238 5.60774C44.3577 5.68536 44.4281 5.73057 44.4732 5.88095C44.4311 6.04419 44.3508 6.1505 44.2481 6.28288C44.1381 6.43652 44.0609 6.60256 43.978 6.77167C43.77 7.19212 43.5295 7.59091 43.2802 7.98831C43.0457 8.36819 42.8264 8.75709 42.6096 9.14712C42.5167 9.31416 42.4191 9.47771 42.3193 9.64081C42.2063 9.82586 42.1027 10.011 42.0093 10.2064C42.0441 10.2064 42.0789 10.2064 42.1148 10.2064C42.1852 10.2762 42.2555 10.3459 42.3259 10.4157C42.4313 10.4856 42.5369 10.5553 42.6426 10.6249C42.7595 10.7102 42.8743 10.7981 42.9889 10.8865C43.0325 10.9198 43.0325 10.9198 43.077 10.9539C43.5753 11.3359 43.5753 11.3359 43.7508 11.5142C43.8152 11.5714 43.8802 11.628 43.9454 11.6842C43.9821 11.716 44.0188 11.7477 44.0566 11.7805C44.1354 11.8481 44.2147 11.9153 44.2945 11.9819C44.3328 12.0142 44.3711 12.0465 44.4105 12.0798C44.4459 12.1093 44.4813 12.1387 44.5177 12.1691C44.5952 12.2466 44.5952 12.2466 44.5952 12.3512C44.6393 12.3706 44.6393 12.3706 44.6843 12.3904C45.0006 12.5599 45.21 12.8169 45.4396 13.0835C45.7116 13.3921 45.7116 13.3921 45.9971 13.6884C46.263 13.9519 46.5134 14.2271 46.7063 14.5482C46.7063 14.5828 46.7063 14.6173 46.7063 14.6529C46.7386 14.6657 46.771 14.6785 46.8044 14.6917C46.9399 14.7706 46.9722 14.8329 47.0361 14.9733C47.0626 15.0301 47.0626 15.0301 47.0897 15.0881C47.1025 15.1171 47.1153 15.1461 47.1285 15.176C47.1774 15.1598 47.2264 15.1436 47.2769 15.1269C47.3857 15.091 47.4946 15.055 47.6034 15.019C47.6034 14.9845 47.6034 14.95 47.6034 14.9144C47.6839 14.8539 47.6839 14.8539 47.7964 14.7875C47.8578 14.7509 47.8578 14.7509 47.9205 14.7134C47.9639 14.6881 48.0073 14.6627 48.052 14.6365C48.1361 14.5866 48.2203 14.5367 48.3044 14.4867C48.3461 14.462 48.3879 14.4373 48.431 14.4119C48.7751 14.207 49.1122 13.9911 49.4492 13.775C49.9579 13.4497 49.9579 13.4497 50.0839 13.4497C50.0839 13.4152 50.0839 13.3807 50.0839 13.3451C50.1669 13.2837 50.1669 13.2837 50.2824 13.2163C50.3449 13.1793 50.3449 13.1793 50.4087 13.1416C50.4748 13.1031 50.4748 13.1031 50.5424 13.0639C50.8083 12.9083 51.0572 12.7534 51.2977 12.5604C51.4461 12.5212 51.4461 12.5212 51.5616 12.5081C51.5616 12.4736 51.5616 12.4391 51.5616 12.4035C51.7199 12.2989 51.7199 12.2989 51.8222 12.2966C51.9935 12.3825 52.0565 12.5384 52.1421 12.701C52.1772 12.7656 52.2124 12.8301 52.2477 12.8945C52.2737 12.9422 52.2737 12.9422 52.3002 12.9908C52.3806 13.1314 52.4728 13.2637 52.5643 13.3974C52.6603 13.5521 52.7522 13.7091 52.8443 13.8662C52.8664 13.9038 52.8885 13.9414 52.9113 13.9802C52.9568 14.0576 53.0021 14.1351 53.0473 14.2127C53.1552 14.3959 53.2655 14.5724 53.3926 14.7432C53.4954 14.8821 53.5588 15.014 53.6198 15.176C53.675 15.2677 53.7323 15.3581 53.7913 15.4473C53.917 15.6394 54.0396 15.8324 54.1575 16.0293C54.2402 16.1674 54.3242 16.3014 54.4147 16.4347C54.5236 16.5983 54.6178 16.7664 54.712 16.9386C54.7987 17.0904 54.896 17.2339 54.9963 17.3771C55.0571 17.5033 55.0532 17.6012 55.0448 17.7392C54.9959 17.7621 54.9959 17.7621 54.946 17.7854C54.715 17.8962 54.4946 18.0103 54.2828 18.1544C54.0739 18.2964 53.8591 18.4173 53.6359 18.5357C53.413 18.6543 53.1914 18.7752 52.97 18.8966C52.9095 18.9295 52.9095 18.9295 52.8477 18.9632C52.6227 19.0866 52.4083 19.2183 52.1949 19.3609C52.1043 19.4123 52.0131 19.4624 51.9211 19.5113C51.8706 19.5383 51.82 19.5653 51.7679 19.5932C51.6705 19.6449 51.5731 19.6965 51.4756 19.7481C51.0562 19.9718 50.6492 20.2144 50.2422 20.4594C50.2568 20.4868 50.2714 20.5141 50.2865 20.5423C50.427 20.8058 50.567 21.0695 50.7066 21.3335C50.7564 21.4276 50.8063 21.5216 50.8563 21.6155C50.99 21.8722 51.095 22.1311 51.1907 22.4039C51.2459 22.5544 51.3087 22.6995 51.3736 22.8461C51.4986 23.1388 51.5903 23.4356 51.6773 23.741C51.7377 23.9531 51.8044 24.1595 51.8815 24.3664C52.1179 25.0531 52.19 25.8161 52.3004 26.5275C54.1813 26.5447 56.0623 26.562 58.0002 26.5798C58.0002 28.6513 58.0002 30.7228 58.0002 32.8571C55.1788 32.883 55.1788 32.883 52.3004 32.9094C52.1605 33.753 52.1605 33.753 52.0432 34.5997C51.9547 35.2382 51.7157 35.8579 51.5088 36.4666C51.2889 36.4474 51.178 36.3683 51.0153 36.2251C50.8584 36.0946 50.6807 35.9963 50.5061 35.8912C50.1627 35.6795 49.827 35.459 49.4957 35.2294C49.1815 35.0126 48.8607 34.8057 48.5307 34.6132C48.3731 34.5177 48.223 34.414 48.0718 34.3088C47.7976 34.1181 47.5182 33.9394 47.2313 33.7679C47.1804 33.7313 47.1804 33.7313 47.1285 33.6941C47.1285 33.6596 47.1285 33.625 47.1285 33.5895C47.0831 33.5768 47.0377 33.5641 46.991 33.5511C46.7939 33.4782 46.6493 33.3839 46.4787 33.2625C46.4187 33.22 46.3587 33.1775 46.2987 33.135C46.2695 33.1143 46.2403 33.0936 46.2102 33.0723C46.0569 32.9666 45.8963 32.872 45.7357 32.7778C45.6199 32.672 45.6189 32.5916 45.598 32.4386C45.6065 32.3229 45.6065 32.3229 45.6275 32.2024C46.0685 29.3793 45.6645 26.2989 44.5952 23.6504C44.5817 23.6161 44.5681 23.5818 44.5541 23.5465C44.4892 23.3827 44.4231 23.2196 44.3559 23.0568C44.2873 22.8872 44.223 22.717 44.16 22.5453C44.014 22.1485 43.8428 21.7758 43.6453 21.401C43.5744 21.2618 43.5043 21.1221 43.4342 20.9825C43.3981 20.9111 43.362 20.8397 43.326 20.7684C43.2617 20.6411 43.1982 20.5136 43.1351 20.3858C43.0048 20.123 42.8721 19.8679 42.7098 19.623C42.6514 19.5316 42.5975 19.4373 42.5444 19.3427C42.4397 19.16 42.3184 18.9966 42.1874 18.8312C42.1409 18.7723 42.0945 18.7134 42.048 18.6545C42.0243 18.6245 42.0006 18.5946 41.9762 18.5637C41.9032 18.4709 41.8312 18.3775 41.7594 18.2838C41.736 18.2533 41.7127 18.2229 41.6886 18.1915C41.6235 18.1067 41.5585 18.0217 41.4935 17.9368C41.3901 17.809 41.2831 17.6963 41.1648 17.5823C41.1012 17.5062 41.1012 17.5062 41.0362 17.4286C40.8066 17.1566 40.548 16.9269 40.2774 16.6963C40.1621 16.5884 40.1621 16.5884 40.0582 16.4582C39.9459 16.3205 39.8297 16.2184 39.6904 16.1078C39.6401 16.0676 39.5898 16.0274 39.5379 15.986C39.4197 15.8935 39.3002 15.8029 39.18 15.713C39.1329 15.6776 39.1329 15.6776 39.0847 15.6415C39.0231 15.5954 38.9611 15.5496 38.8989 15.5042C38.8255 15.4495 38.7547 15.3915 38.6844 15.3329C38.6844 15.2984 38.6844 15.2639 38.6844 15.2283C38.6398 15.2175 38.5952 15.2067 38.5492 15.1956C38.3664 15.1231 38.261 15.0331 38.1175 14.903C37.9344 14.7598 37.7311 14.6525 37.5267 14.5426C37.384 14.4652 37.2546 14.3874 37.1282 14.2857C36.971 14.1628 36.8028 14.0799 36.6229 13.9957C36.2823 13.8353 36.2823 13.8353 36.1514 13.736C36.0042 13.6288 35.8448 13.5709 35.6762 13.502C35.5831 13.4586 35.49 13.4153 35.3972 13.3713C35.0574 13.2107 34.7157 13.0664 34.3626 12.9362C34.2012 12.8753 34.0435 12.8085 33.8852 12.7402C33.6043 12.623 33.321 12.5397 33.0271 12.4607C32.8471 12.4094 32.6718 12.3517 32.4951 12.2904C31.9594 12.1052 31.4189 11.9758 30.8642 11.8599C30.7216 11.8294 30.5798 11.7965 30.4379 11.7629C27.9857 11.1978 25.4021 11.1161 22.9004 11.2723C22.8591 11.2748 22.8177 11.2773 22.7751 11.2799C22.6967 11.2847 22.6183 11.2897 22.54 11.2949C22.4505 11.3003 22.3609 11.3029 22.2713 11.305C22.1753 11.2098 22.212 11.0782 22.2117 10.9515C22.2119 10.9079 22.212 10.8643 22.2122 10.8194C22.2121 10.7734 22.2121 10.7274 22.212 10.6801C22.2119 10.5248 22.2122 10.3695 22.2125 10.2143C22.2125 10.1035 22.2125 9.99265 22.2125 9.88183C22.2125 9.57998 22.2128 9.27812 22.2132 8.97626C22.2135 8.66119 22.2135 8.34611 22.2136 8.03103C22.2138 7.43392 22.2142 6.83681 22.2147 6.23971C22.2153 5.56012 22.2156 4.88053 22.2159 4.20094C22.2164 2.80254 22.2173 1.40415 22.2185 0.00575729Z" fill="#29574A"/>
<path d="M21.1101 5.75933C21.1629 5.81164 21.1629 5.81164 21.1694 5.90468C21.1693 5.94552 21.1693 5.98636 21.1692 6.02844C21.1693 6.09853 21.1693 6.09853 21.1695 6.17004C21.1693 6.2217 21.1691 6.27336 21.1689 6.32659C21.1689 6.38068 21.1689 6.43477 21.1689 6.4905C21.1689 6.67024 21.1685 6.84998 21.168 7.02971C21.1679 7.15396 21.1679 7.2782 21.1678 7.40245C21.1676 7.73019 21.1671 8.05793 21.1665 8.38567C21.166 8.71982 21.1657 9.05396 21.1655 9.38811C21.1649 10.0443 21.164 10.7004 21.1629 11.3566C21.063 11.3657 21.063 11.3657 20.9611 11.375C20.7146 11.3975 20.4681 11.4203 20.2217 11.4431C20.1149 11.453 20.0081 11.4628 19.9013 11.4725C19.748 11.4865 19.5948 11.5007 19.4415 11.515C19.3936 11.5193 19.3456 11.5236 19.2962 11.528C19.2519 11.5322 19.2075 11.5364 19.1618 11.5407C19.1226 11.5443 19.0835 11.5479 19.0432 11.5516C18.9415 11.5615 18.9415 11.5615 18.8408 11.6182C18.8803 11.6814 18.9199 11.7446 18.9595 11.8078C18.9834 11.846 19.0073 11.8841 19.0319 11.9235C19.0938 12.0198 19.1599 12.1136 19.2267 12.2067C19.3158 12.3505 19.3158 12.3505 19.3158 12.5598C19.3506 12.5598 19.3854 12.5598 19.4213 12.5598C19.4945 12.6642 19.5608 12.7676 19.6258 12.8769C19.6616 12.9358 19.6974 12.9946 19.7342 13.0553C19.8066 13.1765 19.8771 13.2985 19.9472 13.4211C20.0598 13.6171 20.1804 13.8077 20.302 13.9983C20.4834 14.2842 20.6617 14.5715 20.8363 14.8615C21.0311 15.1846 21.2291 15.5048 21.4352 15.821C21.456 15.853 21.4769 15.885 21.4983 15.9179C21.5395 15.9811 21.5808 16.0442 21.6222 16.1072C21.7584 16.3158 21.8841 16.5283 22.0073 16.7447C22.17 17.0196 22.338 17.2907 22.512 17.5588C22.6237 17.7315 22.7299 17.9048 22.8286 18.0851C22.9351 18.2788 23.0535 18.46 23.1785 18.6424C23.3038 18.8294 23.4242 19.0194 23.5444 19.2098C23.5665 19.2448 23.5887 19.2798 23.6115 19.3159C23.7508 19.5371 23.8832 19.7611 24.0128 19.9879C24.1652 20.2467 24.3212 20.5017 24.491 20.7497C24.619 20.9373 24.7302 21.1296 24.8392 21.3284C24.9756 21.568 25.1288 21.7972 25.2794 22.0281C25.6343 22.5724 25.6343 22.5724 25.784 22.8454C25.8942 23.0464 26.0182 23.2343 26.1479 23.4233C26.2627 23.595 26.3677 23.7721 26.4736 23.9493C26.5313 24.044 26.5925 24.1366 26.6548 24.2284C26.7352 24.3492 26.8061 24.4679 26.8758 24.5946C27.1243 25.044 27.4022 25.4759 27.6914 25.9005C27.7717 26.0217 27.8445 26.1465 27.9159 26.273C28.0837 26.5684 28.2628 26.8566 28.4498 27.1405C28.6642 27.4662 28.8649 27.7975 29.0594 28.1354C29.2378 28.4453 29.4222 28.7429 29.6344 29.0316C29.7388 29.1797 29.8245 29.3352 29.911 29.4941C30.0842 29.8099 30.2731 30.1122 30.4843 30.4044C30.6152 30.5865 30.7204 30.7654 30.8164 30.9671C30.9398 31.2065 31.0952 31.4283 31.243 31.6533C31.4791 32.016 31.7074 32.3823 31.928 32.7545C32.0083 32.8888 32.081 33.0071 32.1929 33.118C32.2136 33.1698 32.2343 33.2216 32.2556 33.275C32.3471 33.4963 32.4836 33.6775 32.624 33.8708C32.8262 34.1563 32.999 34.4591 33.166 34.7658C33.2629 34.9416 33.3714 35.1033 33.4892 35.2661C33.6231 35.4514 33.7302 35.6334 33.8281 35.839C33.9099 35.9974 34.0113 36.1409 34.1122 36.2878C34.3758 36.6728 34.618 37.0691 34.8488 37.4742C34.9387 37.6191 35.0411 37.7457 35.1483 37.8783C35.204 37.9789 35.204 37.9789 35.2473 38.0745C35.3461 38.2791 35.4671 38.4605 35.5963 38.6473C35.7005 38.8044 35.7887 38.9683 35.8783 39.1338C35.9428 39.25 35.9428 39.25 36.062 39.3823C36.1511 39.5 36.1511 39.5 36.1713 39.6269C36.1511 39.7615 36.1511 39.7615 36.0523 39.8561C36.0076 39.8843 35.9629 39.9124 35.9169 39.9414C35.8685 39.9726 35.8201 40.0038 35.7703 40.036C35.7218 40.0662 35.6733 40.0965 35.6233 40.1277C35.544 40.1798 35.4648 40.2321 35.3858 40.2846C35.3471 40.3101 35.3084 40.3355 35.2685 40.3617C35.0501 40.5069 34.8356 40.6576 34.6206 40.8078C34.4881 40.9003 34.3556 40.9926 34.2223 41.084C34.1349 41.1447 34.0486 41.2069 33.9634 41.2704C33.9223 41.3001 33.8812 41.3297 33.8389 41.3603C33.8026 41.3873 33.7663 41.4144 33.729 41.4422C33.6179 41.4878 33.6179 41.4878 33.4913 41.4604C33.3216 41.3649 33.1868 41.2451 33.0472 41.1118C32.9916 41.0598 32.9359 41.0078 32.8802 40.9559C32.8532 40.9306 32.8262 40.9053 32.7983 40.8792C32.6613 40.7532 32.5177 40.6349 32.3737 40.5168C32.2985 40.4416 32.2985 40.4416 32.2457 40.2846C32.2065 40.2695 32.1673 40.2544 32.127 40.2389C31.9453 40.1652 31.8463 40.0639 31.7179 39.9185C31.7179 39.8839 31.7179 39.8494 31.7179 39.8138C31.6786 39.8006 31.6392 39.7873 31.5986 39.7736C31.445 39.7052 31.3669 39.6375 31.2529 39.5163C31.1186 39.3781 30.9841 39.2457 30.8373 39.1207C30.6429 38.955 30.4545 38.7836 30.2666 38.6107C29.9557 38.3252 29.6393 38.0475 29.3171 37.7745C29.2674 37.7324 29.2674 37.7324 29.2167 37.6894C29.1504 37.6333 29.0841 37.5772 29.0177 37.5213C28.9717 37.4824 28.9717 37.4824 28.9248 37.4427C28.8973 37.4195 28.8699 37.3964 28.8416 37.3725C28.7871 37.3245 28.7342 37.2747 28.6827 37.2235C28.5841 37.1262 28.4764 37.0412 28.369 36.9537C28.2473 36.8501 28.1371 36.7353 28.0237 36.6229C27.9801 36.5883 27.9366 36.5538 27.8917 36.5182C27.7057 36.3707 27.5447 36.2018 27.3788 36.0327C27.2128 35.8718 27.0392 35.7227 26.8626 35.5734C26.5946 35.3454 26.332 35.1132 26.0743 34.8737C25.8645 34.679 25.6511 34.4986 25.4177 34.3322C25.2877 34.236 25.1801 34.1236 25.0683 34.0073C24.8436 33.7799 24.6189 33.5548 24.3756 33.3469C24.0493 33.0673 23.7949 32.8162 23.5906 32.438C23.5496 32.3807 23.5078 32.3241 23.4652 32.268C23.3165 32.0671 23.2026 31.8505 23.0844 31.631C22.9982 31.475 22.9 31.3295 22.7989 31.1825C22.7472 31.0915 22.6954 31.0005 22.6439 30.9093C22.5871 30.8151 22.525 30.7281 22.4592 30.6398C22.3291 30.4642 22.227 30.2785 22.1227 30.0871C22.0587 29.9707 22.0587 29.9707 21.9512 29.8453C21.8633 29.7356 21.8101 29.6464 21.75 29.5216C21.6533 29.3222 21.5371 29.1446 21.4113 28.9622C21.2699 28.7525 21.1386 28.5368 21.006 28.3216C20.9075 28.1622 20.8079 28.0036 20.7078 27.8452C20.5697 27.6263 20.4326 27.4067 20.2954 27.1873C20.2665 27.1411 20.2376 27.095 20.2079 27.0475C20.0374 26.7747 19.8693 26.5008 19.704 26.2249C19.6092 26.0706 19.5079 25.9212 19.4061 25.7714C19.292 25.6024 19.1799 25.4322 19.0684 25.2616C19.0483 25.2311 19.0282 25.2006 19.0075 25.1692C18.8854 24.9819 18.7821 24.7911 18.6825 24.5913C18.6267 24.5 18.5695 24.4096 18.5109 24.32C18.4787 24.2703 18.4464 24.2207 18.4132 24.1696C18.3802 24.1189 18.3471 24.0681 18.313 24.0159C18.2492 23.9168 18.1854 23.8176 18.1217 23.7184C18.0912 23.6708 18.0606 23.6233 18.0292 23.5743C17.9549 23.4582 17.8814 23.3416 17.8084 23.2247C17.7173 23.0793 17.6221 22.9377 17.5247 22.7964C17.375 22.5758 17.2481 22.3464 17.1215 22.1123C17.0167 21.9217 16.9013 21.7395 16.7825 21.5573C16.7067 21.4407 16.6308 21.3241 16.5549 21.2074C16.5345 21.176 16.514 21.1446 16.493 21.1122C16.32 20.8458 16.1524 20.5764 15.9856 20.3061C15.8628 20.1085 15.7367 19.9131 15.6106 19.7176C15.4691 19.4961 15.3314 19.2724 15.1937 19.0486C15.0932 18.8886 14.9881 18.7323 14.8826 18.5755C14.8341 18.4914 14.7857 18.4072 14.7377 18.3228C14.43 17.7955 14.0955 17.2824 13.7605 16.7718C13.5633 16.4706 13.3718 16.1696 13.2 15.8531C13.1217 15.7172 13.0309 15.5927 12.9372 15.4669C12.8568 15.3566 12.7873 15.2409 12.7188 15.123C12.3866 15.1816 12.1709 15.3438 11.9045 15.5442C11.7689 15.6461 11.7689 15.6461 11.6007 15.754C11.4401 15.8637 11.2991 15.9853 11.1541 16.1142C11.0267 16.2244 10.8957 16.3285 10.7635 16.4328C10.4379 16.6963 10.1383 16.9823 9.84259 17.2776C9.8028 17.3171 9.8028 17.3171 9.7622 17.3575C9.3599 17.7584 8.9864 18.1668 8.65515 18.6279C8.60847 18.6914 8.56174 18.7549 8.51496 18.8183C8.38363 18.9975 8.25519 19.1785 8.12739 19.3602C8.09882 19.4002 8.07025 19.4402 8.04081 19.4814C7.59971 20.1144 7.2481 20.8123 6.91356 21.505C6.89622 21.5404 6.87888 21.5758 6.86102 21.6123C6.62778 22.0924 6.43667 22.5806 6.27036 23.0874C6.25407 23.1364 6.23778 23.1855 6.22099 23.236C6.04601 23.7873 5.93575 24.3362 5.80528 24.9052C2.93167 24.9311 2.93167 24.9311 0 24.9575C0 24.075 0 24.075 0.0983352 23.7635C0.108502 23.7301 0.118669 23.6967 0.129144 23.6623C0.160942 23.5586 0.194187 23.4554 0.227593 23.3522C0.259962 23.2487 0.292017 23.1452 0.324043 23.0416C0.345005 22.9739 0.366109 22.9063 0.387361 22.8387C0.450382 22.637 0.50577 22.4349 0.555377 22.2296C0.637237 21.8948 0.746241 21.5716 0.860897 21.2467C0.881829 21.187 0.902761 21.1273 0.924328 21.0657C1.05172 20.7076 1.18921 20.3635 1.35835 20.0227C1.42586 19.8814 1.47906 19.7401 1.53048 19.5923C1.62514 19.3234 1.74873 19.0752 1.88012 18.8222C1.93672 18.7114 1.98805 18.6021 2.03515 18.4873C2.11363 18.308 2.20561 18.1429 2.30273 17.9732C2.37841 17.8368 2.44778 17.6985 2.51672 17.5588C2.6583 17.2759 2.80835 16.9983 2.96201 16.7218C2.98417 16.6815 3.00633 16.6413 3.02915 16.5998C3.148 16.3875 3.27275 16.1993 3.43039 16.0123C3.48019 15.9255 3.52992 15.8387 3.57882 15.7514C3.786 15.4035 4.03895 15.0851 4.29108 14.7687C4.38123 14.6511 4.46373 14.5306 4.54527 14.407C4.67212 14.2153 4.80856 14.0406 4.96088 13.8675C4.98789 13.8366 5.01489 13.8056 5.04272 13.7738C5.33437 13.4408 5.63326 13.1142 5.93186 12.7874C6.18117 12.5151 6.18117 12.5151 6.41879 12.2328C6.54456 12.0885 6.67646 11.9718 6.82409 11.8505C6.90361 11.7835 6.9783 11.7109 7.0521 11.6378C7.17536 11.5156 7.30532 11.4121 7.44132 11.3043C7.48105 11.2646 7.52078 11.2249 7.56171 11.1839C7.70919 11.0388 7.86293 10.9039 8.02184 10.7714C8.05138 10.7467 8.08091 10.7221 8.11134 10.6967C8.91127 10.0338 8.91127 10.0338 9.2699 9.83387C9.40608 9.75773 9.5232 9.68368 9.64468 9.58785C10.0063 9.31327 10.3945 9.0809 10.7946 8.86612C11.0182 8.74089 11.2343 8.60337 11.4514 8.46745C11.5919 8.38575 11.7232 8.32813 11.8744 8.27026C11.9992 8.20896 12.1233 8.14682 12.2472 8.0839C12.892 7.76117 13.5472 7.43667 14.239 7.22568C14.5111 7.13863 14.7776 7.036 15.0444 6.93426C15.2819 6.84559 15.5135 6.77976 15.762 6.729C15.9448 6.68742 16.1213 6.62921 16.2997 6.57216C16.9018 6.38003 17.4979 6.25085 18.1212 6.14936C18.3002 6.11866 18.4775 6.08191 18.6552 6.04468C19.0856 5.95474 19.5164 5.88269 19.9524 5.82472C20.0013 5.81804 20.0502 5.81136 20.1007 5.80448C20.436 5.7621 20.7721 5.73694 21.1101 5.75933Z" fill="#29574A"/>
<path d="M11.7162 25.3242C12.025 25.4718 12.2768 25.6973 12.4914 25.9618C12.6057 26.1101 12.6057 26.1101 12.742 26.2102C12.8876 26.3264 12.9972 26.4525 13.1166 26.594C13.2745 26.7784 13.4485 26.9391 13.6359 27.093C13.8102 27.2387 13.9568 27.3992 14.1031 27.5722C14.1921 27.6731 14.2858 27.7674 14.3816 27.8619C14.4677 27.9468 14.5534 28.0321 14.639 28.1175C14.8171 28.2949 14.9953 28.4722 15.1736 28.6495C15.2505 28.7259 15.3273 28.8024 15.4041 28.879C15.5152 28.9897 15.6264 29.1003 15.7377 29.2108C15.7721 29.2451 15.8065 29.2795 15.8419 29.315C15.8898 29.3624 15.8898 29.3624 15.9386 29.4108C15.9666 29.4387 15.9947 29.4666 16.0236 29.4953C16.0964 29.5673 16.0964 29.5673 16.2021 29.6137C16.2021 29.6483 16.2021 29.6828 16.2021 29.7183C16.237 29.7183 16.2718 29.7183 16.3077 29.7183C16.4584 29.8553 16.5897 30.0006 16.72 30.1565C16.8695 30.3321 17.0354 30.4788 17.2115 30.6279C17.4098 30.797 17.5828 30.983 17.7524 31.1798C17.8996 31.3486 18.0547 31.4931 18.2278 31.6353C18.4232 31.7976 18.59 31.982 18.7551 32.1737C18.9035 32.3443 19.0609 32.4882 19.2361 32.631C19.3317 32.7138 19.4048 32.8042 19.4742 32.9093C19.7557 32.8787 20.0214 32.832 20.2963 32.7622C20.3714 32.7435 20.4465 32.7249 20.5217 32.7062C20.6376 32.6771 20.7535 32.6479 20.8693 32.6184C22.1111 32.3033 22.1111 32.3033 22.4319 32.4694C22.4879 32.5302 22.4879 32.5302 22.5451 32.5922C22.587 32.6353 22.629 32.6785 22.6723 32.723C22.7141 32.7672 22.7559 32.8114 22.799 32.857C22.8885 32.9352 22.9786 33.0127 23.0695 33.0891C23.1887 33.1903 23.1887 33.1903 23.274 33.2755C23.274 33.31 23.274 33.3446 23.274 33.3801C23.3165 33.3979 23.3165 33.3979 23.3598 33.4161C23.5286 33.5086 23.6588 33.6174 23.8018 33.7463C23.8018 33.7808 23.8018 33.8154 23.8018 33.8509C23.8459 33.8703 23.8459 33.8703 23.8908 33.8902C24.0353 33.9675 24.1541 34.0568 24.2767 34.1648C24.2767 34.1993 24.2767 34.2338 24.2767 34.2694C24.3208 34.2888 24.3208 34.2888 24.3658 34.3086C24.5868 34.4271 24.7582 34.5891 24.934 34.7647C25.1054 34.9331 25.2819 35.0961 25.4576 35.2601C25.4961 35.2962 25.5346 35.3323 25.5743 35.3695C25.7544 35.5377 25.9354 35.702 26.1259 35.8586C26.2033 35.9264 26.2033 35.9264 26.2822 35.9957C26.2822 36.0302 26.2822 36.0647 26.2822 36.1003C26.3192 36.11 26.3562 36.1197 26.3944 36.1297C26.5752 36.2194 26.6565 36.3265 26.7813 36.4804C26.8958 36.6079 27.0358 36.6875 27.1794 36.7803C27.2131 36.8224 27.2469 36.8645 27.2816 36.9079C27.3986 37.0519 27.5168 37.1353 27.6692 37.2387C27.8026 37.3339 27.9104 37.4472 28.0238 37.565C28.2575 37.8022 28.4951 38.0299 28.7486 38.2461C28.8963 38.3741 29.0406 38.5056 29.1849 38.6374C29.6157 39.0309 29.6157 39.0309 30.0655 39.4024C30.2047 39.5143 30.3262 39.6351 30.4515 39.7621C30.7027 40.0158 30.9557 40.2626 31.2278 40.4942C31.3829 40.6288 31.534 40.7675 31.6851 40.9064C31.8895 41.0941 32.0944 41.281 32.3019 41.4655C32.3432 41.5023 32.3845 41.5391 32.427 41.577C32.5001 41.6421 32.5733 41.7071 32.6466 41.7719C32.7354 41.8504 32.8237 41.9293 32.9121 42.0082C32.9403 42.0329 32.9684 42.0577 32.9975 42.0832C33.0656 42.1443 33.131 42.2084 33.1958 42.273C33.1958 42.3075 33.1958 42.3421 33.1958 42.3776C33.2328 42.3895 33.2698 42.4014 33.3079 42.4136C33.4962 42.4988 33.6214 42.6081 33.7763 42.7438C33.802 42.7203 33.8277 42.6967 33.8542 42.6725C34.1321 42.4226 34.4205 42.1913 34.7169 41.9638C34.9427 41.7895 35.1575 41.6069 35.3666 41.4129C35.4651 41.3314 35.4651 41.3314 35.5669 41.2842C35.7194 41.2041 35.8192 41.0869 35.9401 40.9652C36.0539 40.8702 36.1717 40.7804 36.2897 40.6906C36.3555 40.64 36.4213 40.5893 36.487 40.5386C36.5194 40.5136 36.5519 40.4885 36.5853 40.4628C36.768 40.3204 36.9467 40.1732 37.1261 40.0267C37.2527 39.9245 37.3808 39.8249 37.5102 39.7261C37.6786 39.5972 37.8412 39.4639 38.0018 39.3256C38.4757 38.9233 38.9656 38.5378 39.4595 38.1601C39.5946 38.0564 39.7268 37.9512 39.8554 37.8396C40.0361 37.6838 40.2241 37.5379 40.4128 37.3917C40.8137 37.0811 41.2126 36.7683 41.5936 36.4338C41.7685 36.2807 41.9494 36.1378 42.1344 35.9969C42.3079 35.8645 42.4802 35.7308 42.6524 35.5968C42.6985 35.5611 42.6985 35.5611 42.7455 35.5246C43.0135 35.3162 43.2758 35.1025 43.5298 34.8775C43.7102 34.7206 43.8959 34.573 44.0864 34.4284C44.1967 34.344 44.3059 34.2587 44.4146 34.1726C44.4477 34.1465 44.4808 34.1204 44.5148 34.0935C44.5807 34.0415 44.6465 33.9893 44.7122 33.9369C44.8485 33.8296 44.9565 33.749 45.123 33.694C45.123 33.6595 45.123 33.6249 45.123 33.5894C45.2135 33.5123 45.2135 33.5123 45.3308 33.4292C45.4703 33.3331 45.4703 33.3331 45.598 33.2232C45.7608 33.2057 45.8415 33.2112 45.9839 33.2951C46.028 33.3372 46.028 33.3372 46.0729 33.3801C46.0729 33.4147 46.0729 33.4492 46.0729 33.4847C46.1119 33.4984 46.1508 33.5121 46.1909 33.5262C46.3393 33.5904 46.4376 33.6598 46.5611 33.7627C46.8088 33.9644 47.0614 34.1587 47.3165 34.3511C47.3945 34.4102 47.4726 34.4693 47.5507 34.5283C47.6705 34.6189 47.7903 34.7095 47.9102 34.8001C48.0929 34.9393 48.2696 35.0815 48.4412 35.2339C48.643 35.4115 48.8577 35.5656 49.077 35.721C49.4337 35.9795 49.7788 36.2541 50.1222 36.5296C50.2455 36.629 50.2455 36.629 50.4005 36.7248C50.5588 36.8327 50.5588 36.8327 50.6817 36.9559C50.8223 37.0938 50.9667 37.2073 51.1262 37.3231C51.1814 37.3636 51.2367 37.4041 51.2936 37.4459C51.3472 37.4852 51.4008 37.5245 51.456 37.565C51.5443 37.6311 51.6323 37.6976 51.7199 37.7644C51.7558 37.7918 51.7917 37.8191 51.8287 37.8472C51.931 37.9312 51.931 37.9312 52.0374 38.0389C52.135 38.1335 52.2206 38.1944 52.34 38.2581C52.3966 38.2883 52.4532 38.3186 52.5115 38.3497C52.5115 38.3842 52.5115 38.4187 52.5115 38.4543C52.5398 38.4667 52.568 38.4791 52.5971 38.4919C52.7584 38.578 52.897 38.6842 53.0426 38.7943C53.198 38.9116 53.3517 39.0269 53.5143 39.1343C53.5143 39.1689 53.5143 39.2034 53.5143 39.239C53.5524 39.2519 53.5905 39.2649 53.6297 39.2782C53.7927 39.35 53.9106 39.4337 54.042 39.5528C54.042 39.5874 54.042 39.6219 54.042 39.6575C54.0782 39.6691 54.1144 39.6808 54.1517 39.6928C54.347 39.7805 54.4966 39.8999 54.6621 40.0334C54.7274 40.0854 54.7927 40.1373 54.858 40.1891C54.9055 40.2271 54.9055 40.2271 54.954 40.2658C55.1138 40.392 55.2778 40.5127 55.4418 40.6336C55.4804 40.6683 55.4804 40.6683 55.5197 40.7037C55.5197 40.7382 55.5197 40.7727 55.5197 40.8083C55.55 40.8134 55.5803 40.8185 55.6115 40.8238C55.7564 40.8685 55.8357 40.9337 55.9518 41.0306C56.1993 41.2327 56.4518 41.4269 56.7072 41.6191C57.4447 42.1764 57.4447 42.1764 57.6835 42.3776C57.72 42.4076 57.7565 42.4376 57.7941 42.4686C57.9227 42.6199 57.9203 42.698 57.9186 42.8939C57.9186 42.9557 57.9185 43.0175 57.9185 43.0811C57.9174 43.1476 57.9163 43.214 57.9152 43.2824C57.9148 43.3848 57.9148 43.3848 57.9143 43.4891C57.9135 43.6701 57.9114 43.851 57.9091 44.032C57.9069 44.2167 57.906 44.4015 57.9049 44.5863C57.9027 44.9487 57.8991 45.3109 57.8946 45.6732C57.6058 45.6372 57.4663 45.5471 57.2646 45.3463C57.0125 45.1048 57.0125 45.1048 56.7335 44.8951C56.5749 44.7837 56.484 44.6719 56.3641 44.5224C56.3154 44.4903 56.2667 44.4582 56.2165 44.4251C56.0528 44.3167 55.917 44.2014 55.7737 44.0679C55.4875 43.8058 55.1893 43.5619 54.8864 43.3192C54.7597 43.2172 54.6377 43.1144 54.517 43.0054C54.517 42.9708 54.517 42.9363 54.517 42.9007C54.4711 42.894 54.4711 42.894 54.4242 42.8871C54.2733 42.8378 54.2088 42.7642 54.1014 42.649C53.9377 42.4739 53.7672 42.3528 53.567 42.2207C53.4686 42.1342 53.3719 42.0458 53.2768 41.9559C53.0097 41.7071 52.7302 41.48 52.4394 41.2591C52.1299 41.0236 52.1299 41.0236 52.0366 40.9129C52.0366 40.8784 52.0366 40.8439 52.0366 40.8083C52.0006 40.7986 51.9647 40.7889 51.9277 40.7789C51.7435 40.6895 51.637 40.575 51.4973 40.4288C51.4097 40.3437 51.3255 40.2807 51.2218 40.2165C51.1772 40.1874 51.1326 40.1583 51.0866 40.1283C51.0866 40.0937 51.0866 40.0592 51.0866 40.0236C51.059 40.0124 51.0314 40.0012 51.0029 39.9897C50.8237 39.8903 50.6795 39.759 50.5259 39.6248C50.2602 39.3955 49.9914 39.1726 49.7138 38.9576C49.6194 38.8813 49.5357 38.802 49.4506 38.7159C49.2063 38.4942 48.9548 38.2904 48.6837 38.1018C48.6581 38.08 48.6325 38.0583 48.6062 38.0358C48.6062 38.0013 48.6062 37.9668 48.6062 37.9312C48.575 37.9169 48.5438 37.9027 48.5117 37.888C48.3979 37.8281 48.3139 37.7651 48.218 37.6805C48.1853 37.652 48.1527 37.6235 48.1191 37.5941C48.085 37.564 48.0509 37.5339 48.0157 37.5029C47.7567 37.2769 47.4965 37.0569 47.22 36.8519C47.1292 36.7809 47.0509 36.7052 46.9701 36.6234C46.7284 36.404 46.4786 36.2004 46.2135 36.0094C46.1257 35.9434 46.1257 35.9434 46.0202 35.8387C45.9886 35.8787 45.957 35.9186 45.9245 35.9597C45.8363 36.0671 45.7492 36.1602 45.6507 36.2572C45.4247 36.5024 45.2147 36.7577 45.0104 37.0209C44.7312 37.3769 44.438 37.7217 44.1433 38.0652C43.8724 38.3813 43.6109 38.704 43.3511 39.029C43.2582 39.145 43.1648 39.2607 43.0714 39.3763C43.0412 39.4142 43.011 39.4521 42.9798 39.4911C42.9514 39.5262 42.923 39.5612 42.8936 39.5974C42.8681 39.6291 42.8426 39.6608 42.8164 39.6935C42.7938 39.7162 42.7713 39.7388 42.7481 39.7621C42.7133 39.7621 42.6784 39.7621 42.6425 39.7621C42.6295 39.7998 42.6164 39.8376 42.603 39.8765C42.5169 40.0685 42.3996 40.2152 42.2467 40.3604C42.1571 40.4479 42.1571 40.4479 42.0686 40.5925C41.9563 40.7563 41.8338 40.878 41.6926 41.0175C41.6188 41.1037 41.5462 41.1909 41.4749 41.2791C41.2976 41.4965 41.1172 41.7107 40.9339 41.9232C40.7059 42.1883 40.4871 42.4596 40.2713 42.7345C40.0308 43.04 39.7806 43.3367 39.5288 43.6331C39.5057 43.662 39.4825 43.691 39.4587 43.7208C39.3963 43.798 39.3308 43.8727 39.2649 43.947C39.2301 43.947 39.1953 43.947 39.1594 43.947C39.2607 44.2819 39.3954 44.5793 39.5566 44.89C39.6254 45.0275 39.6845 45.1639 39.7399 45.3071C39.8385 45.5612 39.9613 45.7999 40.086 46.0423C40.1748 46.2221 40.248 46.4052 40.3204 46.5919C40.3954 46.7731 40.4865 46.945 40.5765 47.1191C40.6294 47.2269 40.6729 47.3323 40.713 47.4453C40.7991 47.6855 40.9178 47.9081 41.0343 48.1351C41.1173 48.2991 41.193 48.465 41.2669 48.6331C41.3375 48.7917 41.4112 48.9489 41.4848 49.1061C41.5931 49.3379 41.6966 49.571 41.7981 49.8058C41.8497 49.9159 41.9014 50.026 41.9532 50.136C42.0478 50.3381 42.1387 50.5399 42.2203 50.7474C42.3804 51.1521 42.572 51.543 42.7611 51.935C43.1349 52.7109 43.1349 52.7109 43.282 53.0926C43.3515 53.2616 43.437 53.4218 43.521 53.5841C43.6352 53.8158 43.7337 54.054 43.8349 54.2915C43.9066 54.4556 43.9849 54.6138 44.0677 54.7725C44.161 54.9633 44.2385 55.1608 44.3196 55.3569C44.3878 55.5162 44.4645 55.6687 44.5445 55.8224C44.602 55.94 44.6498 56.0595 44.6975 56.1812C44.7682 56.3609 44.8462 56.5327 44.935 56.7043C45.0308 56.89 45.116 57.0768 45.1956 57.2699C45.3667 57.6852 45.5484 58.1062 45.7672 58.4993C45.8091 58.5941 45.8091 58.5941 45.8091 58.8033C45.6507 58.8033 45.6507 58.8033 45.5619 58.721C45.5313 58.6845 45.5008 58.648 45.4693 58.6104C45.4367 58.572 45.4042 58.5337 45.3706 58.4941C45.3043 58.413 45.2396 58.3306 45.1758 58.2475C45.0577 58.1086 44.9281 58.0015 44.7845 57.8893C44.7008 57.8094 44.7008 57.8094 44.6495 57.7064C44.5837 57.5776 44.5059 57.5121 44.394 57.4203C44.156 57.2197 43.9431 57.0223 43.7607 56.7697C43.6157 56.5713 43.4506 56.4244 43.2567 56.2736C43.1703 56.1878 43.1703 56.1878 43.1449 56.079C43.1359 56.0459 43.1269 56.0127 43.1175 55.9785C43.0485 55.9411 42.9779 55.9065 42.9064 55.8739C42.8161 55.7813 42.8161 55.7813 42.7283 55.6745C42.6137 55.5393 42.5023 55.4206 42.3622 55.3115C42.2203 55.1938 42.2203 55.1938 42.1713 55.0931C42.1039 54.9637 42.0264 54.8974 41.9136 54.8048C41.6756 54.6041 41.4627 54.4067 41.2803 54.1542C41.1353 53.9558 40.9701 53.8088 40.7762 53.658C40.6899 53.5722 40.6899 53.5722 40.6645 53.4635C40.6555 53.4303 40.6464 53.3971 40.6371 53.363C40.5369 53.3059 40.5369 53.3059 40.426 53.2583C40.3509 53.1809 40.3509 53.1809 40.2809 53.0916C40.1637 52.9501 40.0427 52.8303 39.9015 52.7123C39.6284 52.4819 39.4064 52.2144 39.1792 51.9408C39.0206 51.7546 38.8473 51.5873 38.6712 51.4176C38.4964 51.2404 38.3308 51.0557 38.1641 50.871C38.0426 50.7381 37.917 50.6109 37.7872 50.4858C37.5131 50.2186 37.2521 49.9395 36.9894 49.6613C36.7613 49.4201 36.7613 49.4201 36.5272 49.1846C36.4087 49.0672 36.3086 48.9415 36.204 48.8119C36.1637 48.772 36.1234 48.7321 36.0819 48.6909C35.9673 48.5773 35.8612 48.4624 35.7554 48.3411C35.612 48.1771 35.4637 48.0218 35.3068 47.8703C35.0327 47.6031 34.7717 47.3239 34.509 47.0458C34.3205 46.8466 34.1298 46.6507 33.9346 46.4579C33.6707 46.1718 33.6707 46.1718 33.6707 46.0394C33.639 46.0257 33.6072 46.0119 33.5745 45.9977C33.4534 45.9313 33.3957 45.8719 33.3112 45.7648C33.1732 45.5974 33.0251 45.4639 32.8536 45.331C32.7736 45.2547 32.7736 45.2547 32.7222 45.1515C32.6576 45.0251 32.5842 44.9644 32.4734 44.8755C32.2074 44.6525 31.9841 44.402 31.7741 44.1268C31.6441 43.9745 31.4984 43.851 31.346 43.7212C31.1475 43.5513 30.9803 43.3761 30.8275 43.1656C30.6948 42.9847 30.5518 42.8492 30.3731 42.7136C30.2931 42.6392 30.2931 42.6392 30.2418 42.5362C30.1772 42.4095 30.1039 42.3489 29.993 42.2599C29.7269 42.0369 29.5036 41.7864 29.2937 41.5112C29.1958 41.3965 29.0987 41.3074 28.9836 41.2104C28.7198 40.9869 28.4978 40.7351 28.2877 40.4617C28.1696 40.3228 28.04 40.2157 27.8964 40.1035C27.8127 40.0236 27.8127 40.0236 27.7614 39.9206C27.6956 39.7918 27.6178 39.7264 27.5059 39.6346C27.2679 39.4339 27.055 39.2365 26.8726 38.9839C26.7035 38.7545 26.5006 38.5838 26.2822 38.402C26.1235 38.2559 25.9926 38.108 25.8666 37.9345C25.734 37.7536 25.591 37.6181 25.4122 37.4825C25.3323 37.4081 25.3323 37.4081 25.2813 37.3057C25.2153 37.1766 25.1376 37.111 25.0255 37.019C24.747 36.7848 24.5105 36.5353 24.2767 36.2572C24.2354 36.2162 24.194 36.1752 24.1514 36.133C24.038 36.0205 23.933 35.9066 23.8282 35.7864C23.6475 35.5798 23.4552 35.3886 23.2575 35.1979C23.1157 35.0541 23.1157 35.0541 23.0395 34.9431C22.8033 34.6227 22.5713 34.5211 22.1881 34.4577C22.0719 34.4405 21.9556 34.4252 21.8392 34.41C21.7588 34.398 21.6785 34.3858 21.5982 34.3734C21.4392 34.349 21.2801 34.3254 21.1209 34.3025C20.8232 34.259 20.5281 34.203 20.2328 34.1452C20.087 34.1171 19.9411 34.0891 19.7908 34.0602C19.7734 34.6816 19.756 35.3031 19.7381 35.9434C19.6684 35.9606 19.5987 35.9779 19.527 35.9957C19.4843 35.9496 19.4417 35.9036 19.3977 35.8561C19.3407 35.7947 19.2838 35.7334 19.2268 35.672C19.1988 35.6418 19.1708 35.6115 19.142 35.5804C19.0186 35.4475 18.8945 35.3165 18.7656 35.1887C18.5479 34.9729 18.3398 34.7481 18.1299 34.5248C17.9856 34.3718 17.8413 34.2202 17.691 34.073C17.5882 33.9695 17.5056 33.8687 17.4226 33.7496C17.2906 33.5707 17.1486 33.4341 16.9758 33.2945C16.7414 33.1037 16.5538 32.8778 16.3605 32.6478C16.3202 32.6079 16.2799 32.5679 16.2384 32.5268C16.1154 32.4049 16.0004 32.2801 15.8855 32.1508C15.7325 31.979 15.5763 31.8137 15.4105 31.6539C15.1592 31.4087 14.9203 31.153 14.6807 30.8968C14.5052 30.7095 14.3266 30.5266 14.1439 30.3461C14.076 30.2738 14.0088 30.2009 13.9427 30.127C13.9108 30.0918 13.8789 30.0565 13.846 30.0202C13.7745 29.9276 13.7745 29.9276 13.7745 29.823C13.7434 29.8099 13.7123 29.7968 13.6803 29.7833C13.5479 29.7098 13.4776 29.6317 13.3819 29.5156C13.2745 29.3891 13.1802 29.289 13.0488 29.1854C12.9301 29.0906 12.9301 29.0906 12.8575 28.9664C12.7569 28.8053 12.6393 28.7117 12.4924 28.593C12.3757 28.4922 12.2876 28.3731 12.1912 28.2536C12.139 28.2364 12.0867 28.2191 12.0329 28.2013C12.0231 28.2472 12.0231 28.2472 12.0131 28.2941C11.9208 28.6749 11.7729 29.0171 11.6096 29.3717C11.4914 29.6289 11.3867 29.8863 11.2932 30.1534C11.2316 30.3198 11.1611 30.4811 11.0895 30.6436C10.9764 30.9018 10.8712 31.161 10.7729 31.425C10.6057 31.8735 10.4264 32.3168 10.2461 32.7603C10.18 32.9234 10.1144 33.0868 10.0489 33.2502C10.0256 33.3081 10.0023 33.3661 9.9783 33.4258C9.93306 33.5385 9.88787 33.6512 9.84276 33.7639C9.73235 34.0383 9.61743 34.3095 9.49498 34.5789C9.41904 34.751 9.35356 34.9267 9.28856 35.1031C9.11921 35.5601 8.93507 36.0107 8.74775 36.4608C8.55462 36.925 8.36812 37.3904 8.19554 37.8625C8.12935 38.0311 8.05074 38.188 7.96918 38.3497C7.92035 38.4733 7.8732 38.5976 7.82735 38.7224C7.5824 39.3802 7.3277 40.035 7.02706 40.67C6.92665 40.8991 6.84815 41.136 6.76545 41.3719C6.7023 41.5414 6.62796 41.6967 6.54212 41.8557C6.49083 41.9605 6.45401 42.063 6.4185 42.1739C6.33198 42.4368 6.23495 42.6949 6.13524 42.9531C6.11692 43.0006 6.09861 43.0482 6.07973 43.0972C5.93297 43.4761 5.77925 43.8519 5.62171 44.2265C5.55726 44.3802 5.49429 44.5343 5.43267 44.6891C5.35218 44.8905 5.26589 45.0889 5.17869 45.2874C5.04522 45.5938 4.92498 45.9033 4.80858 46.2164C4.72641 46.4362 4.63703 46.6502 4.53838 46.8631C4.42221 47.1247 4.32423 47.3939 4.22214 47.6611C4.05696 48.0903 3.88809 48.5179 3.71521 48.9441C3.67303 49.0482 3.63101 49.1524 3.58945 49.2567C3.48875 49.5096 3.38318 49.7601 3.27603 50.0103C3.12314 50.3674 2.97527 50.7234 2.84586 51.0897C2.79322 51.2287 2.73217 51.3616 2.66856 51.4961C2.56612 51.7138 2.48101 51.9329 2.40139 52.1598C2.32364 52.3812 2.24138 52.595 2.14081 52.8072C1.9842 53.1384 1.85991 53.4806 1.73209 53.8234C1.38086 54.7587 1.38086 54.7587 1.18426 55.171C1.05319 55.447 0.95376 55.7318 0.856669 56.021C0.779281 56.2474 0.687453 56.4575 0.575037 56.669C0.509164 56.8005 0.464792 56.9367 0.422316 57.077C0.370069 57.077 0.317821 57.077 0.26399 57.077C0.257954 54.4758 0.253303 51.8746 0.250515 49.2734C0.250185 48.9665 0.249844 48.6596 0.249495 48.3527C0.249426 48.2916 0.249357 48.2305 0.249286 48.1675C0.248137 47.1774 0.246056 46.1873 0.243632 45.1972C0.241167 44.1817 0.239699 43.1662 0.239162 42.1507C0.2388 41.5238 0.237654 40.8969 0.235514 40.27C0.234122 39.8404 0.233697 39.4109 0.23404 38.9813C0.234209 38.7333 0.233945 38.4853 0.232535 38.2372C0.231254 38.0102 0.231183 37.7833 0.232088 37.5564C0.2322 37.4741 0.231862 37.3919 0.231036 37.3097C0.229981 37.1981 0.230546 37.0866 0.231521 36.975C0.231421 36.913 0.231321 36.851 0.231217 36.787C0.273665 36.5751 0.363998 36.4993 0.527867 36.3619C0.57991 36.3168 0.57991 36.3168 0.633005 36.2709C0.665796 36.2438 0.698586 36.2166 0.732371 36.1886C0.917893 36.0296 1.07717 35.8584 1.236 35.6736C1.39687 35.4878 1.57171 35.3244 1.76149 35.1685C1.94222 35.0183 2.09014 34.8498 2.23894 34.6689C2.32223 34.5833 2.32223 34.5833 2.48055 34.531C2.4947 34.5018 2.50885 34.4727 2.52343 34.4427C2.61422 34.2674 2.74895 34.1321 2.90275 34.0079C2.93759 34.0079 2.97242 34.0079 3.00831 34.0079C3.02028 33.9787 3.03225 33.9496 3.04459 33.9196C3.13367 33.764 3.24404 33.6563 3.37773 33.5371C3.41256 33.5371 3.4474 33.5371 3.48328 33.5371C3.499 33.495 3.499 33.495 3.51503 33.4521C3.62077 33.2741 3.77162 33.1504 3.92528 33.0139C4.4083 32.5766 4.86818 32.117 5.32858 31.6564C5.41513 31.57 5.50218 31.4842 5.58955 31.3986C5.68177 31.3059 5.76585 31.2123 5.84828 31.1111C5.99777 30.9355 6.16372 30.7888 6.33975 30.6397C6.53811 30.4705 6.7111 30.2846 6.88069 30.0878C7.028 29.9189 7.18319 29.7744 7.35629 29.6321C7.56216 29.4612 7.737 29.2645 7.91311 29.0645C8.03516 28.9269 8.15466 28.7997 8.29903 28.6852C8.4481 28.5729 8.4481 28.5729 8.55631 28.4269C8.65526 28.306 8.65526 28.306 8.75566 28.2585C8.88651 28.1909 8.95395 28.1142 9.04778 28.0019C9.19169 27.8334 9.34003 27.6755 9.49967 27.5213C9.52701 27.493 9.55436 27.4648 9.58254 27.4357C9.6585 27.3577 9.73724 27.2823 9.81632 27.2074C9.85115 27.2074 9.88598 27.2074 9.92187 27.2074C9.93584 27.1766 9.94981 27.1457 9.96421 27.1139C10.0296 26.9942 10.0973 26.9163 10.1944 26.8208C10.2451 26.7705 10.2451 26.7705 10.2969 26.7192C10.3333 26.6837 10.3697 26.6482 10.4072 26.6116C10.4445 26.5747 10.4818 26.5378 10.5203 26.4999C10.6394 26.3824 10.7589 26.2652 10.8784 26.1481C10.9593 26.0684 11.0402 25.9888 11.1211 25.909C11.3192 25.7138 11.5176 25.5189 11.7162 25.3242Z" fill="#29574A"/>
<path d="M0 25.3763C0.929571 25.3741 1.85914 25.372 2.81688 25.3698C3.25766 25.3683 3.25766 25.3683 3.70734 25.3669C4.06531 25.3664 4.06531 25.3664 4.23273 25.3663C4.35001 25.3662 4.4673 25.3658 4.58459 25.3653C4.76193 25.3645 4.93926 25.3644 5.1166 25.3644C5.16912 25.364 5.22165 25.3637 5.27576 25.3633C5.32332 25.3634 5.37088 25.3636 5.41988 25.3637C5.4822 25.3636 5.4822 25.3636 5.54578 25.3634C5.64696 25.3763 5.64696 25.3763 5.75251 25.4809C5.76358 25.6296 5.76358 25.6296 5.76046 25.8209C5.75979 25.873 5.75979 25.873 5.75911 25.9261C5.75748 26.0393 5.75504 26.1524 5.75251 26.2656C5.75115 26.34 5.74981 26.4144 5.74849 26.4888C5.73946 26.9539 5.72504 27.4189 5.70972 27.8839C5.70205 28.1173 5.69508 28.3507 5.68969 28.5841C5.68441 28.8124 5.67739 29.0405 5.66916 29.2686C5.66634 29.3548 5.66413 29.4411 5.66256 29.5273C5.64815 30.2809 5.64815 30.2809 5.41431 30.5498C5.35287 30.6058 5.2898 30.6602 5.22475 30.712C5.17584 30.759 5.12693 30.806 5.07653 30.8545C5.03074 30.8948 4.98496 30.9352 4.93779 30.9769C4.88785 31.0211 4.83792 31.0653 4.78647 31.1109C4.63452 31.2436 4.4824 31.3761 4.32964 31.5079C3.93332 31.8504 3.93332 31.8504 3.55574 32.2127C3.44638 32.3182 3.33911 32.4022 3.21599 32.4906C3.04521 32.6139 2.92768 32.7439 2.79709 32.9091C2.70973 32.9624 2.62174 33.0147 2.53321 33.066C2.44415 33.1521 2.3562 33.2393 2.26934 33.3276C2.18138 33.3973 2.09342 33.4671 2.00546 33.5368C1.88756 33.6506 1.77261 33.7669 1.65768 33.8836C1.46703 34.0751 1.27061 34.256 1.06499 34.4316C0.890392 34.5821 0.719701 34.7367 0.548574 34.891C0.183006 35.2108 0.183006 35.2108 0.0527753 35.2108C0.0266515 35.2626 0.0266515 35.2626 0 35.3154C0 32.0355 0 28.7556 0 25.3763Z" fill="#29574A"/>
<path d="M12.4188 58.1299C12.6181 58.2677 12.7673 58.4284 12.8773 58.6465C12.9409 59.0372 12.9371 59.4325 12.9352 59.8271C12.9351 59.8879 12.9351 59.9487 12.935 60.0114C12.9347 60.2037 12.934 60.3961 12.9334 60.5885C12.9331 60.7197 12.9329 60.8509 12.9326 60.9821C12.9321 61.3021 12.9312 61.6221 12.9301 61.9421C12.9989 61.884 13.0675 61.8257 13.136 61.7673C13.1742 61.7349 13.2125 61.7025 13.2519 61.6691C13.3669 61.5623 13.4308 61.4484 13.5106 61.3143C13.5998 61.2328 13.6929 61.1572 13.7868 61.081C13.9242 60.9623 14.0294 60.827 14.1439 60.6866C14.2953 60.5284 14.4543 60.3857 14.6222 60.2452C14.7987 60.0944 14.9135 59.9389 15.0411 59.745C15.1181 59.6803 15.1952 59.6156 15.2746 59.5539C15.3973 59.4499 15.4956 59.3287 15.5985 59.2059C15.7047 59.0818 15.8207 58.9692 15.9383 58.8557C15.9987 58.7958 15.9987 58.7958 16.0603 58.7347C16.1305 58.6651 16.1305 58.6651 16.2021 58.5941C16.2355 58.5592 16.2689 58.5243 16.3033 58.4883C16.3577 58.4323 16.3577 58.4323 16.4132 58.3751C16.447 58.3398 16.4807 58.3046 16.5155 58.2682C16.7513 58.0677 16.9848 58.0502 17.2842 58.0586C17.5232 58.0812 17.7007 58.1372 17.8666 58.315C18.0237 58.5333 18.0928 58.7295 18.0738 58.9981C17.9485 59.6066 17.3518 60.053 16.8882 60.425C16.7584 60.5505 16.632 60.6788 16.5056 60.8076C16.3812 60.928 16.254 61.041 16.123 61.1541C15.935 61.318 15.7748 61.4846 15.6216 61.6805C15.6673 61.7355 15.6673 61.7355 15.714 61.7917C15.8326 61.942 15.937 62.0971 16.0438 62.2559C16.127 62.3717 16.2105 62.4872 16.2945 62.6025C16.5025 62.8892 16.7019 63.1806 16.8981 63.4754C17.0052 63.6328 17.118 63.7844 17.2354 63.9344C17.3362 64.0689 17.4284 64.2085 17.5215 64.3484C17.5885 64.4486 17.6556 64.5489 17.7227 64.6492C17.7775 64.7313 17.7775 64.7313 17.8334 64.8151C17.902 64.9152 17.9725 65.0141 18.0458 65.111C18.3171 65.4695 18.5574 65.8884 18.5275 66.3525C18.4583 66.5907 18.3677 66.722 18.2076 66.9116C18.0225 67.0033 17.8111 66.9736 17.6073 66.9737C17.5617 66.9744 17.5161 66.975 17.4691 66.9757C17.4251 66.9758 17.381 66.9759 17.3356 66.976C17.2953 66.9762 17.2551 66.9764 17.2136 66.9766C16.9963 66.9525 16.9008 66.8736 16.7577 66.7114C16.7117 66.652 16.6662 66.5923 16.621 66.5324C16.5981 66.503 16.5752 66.4737 16.5517 66.4435C16.4107 66.2593 16.3032 66.0747 16.2021 65.8654C16.1587 65.7957 16.1136 65.727 16.0669 65.6594C16.0397 65.6198 16.0126 65.5801 15.9846 65.5393C15.9356 65.4676 15.9356 65.4676 15.8855 65.3946C15.7951 65.2607 15.7051 65.1266 15.615 64.9924C15.5497 64.8953 15.4844 64.7982 15.419 64.7011C15.3606 64.6141 15.3023 64.527 15.2441 64.4399C15.171 64.3319 15.0964 64.2269 15.018 64.1228C14.889 63.9459 14.7863 63.7592 14.682 63.5674C14.6036 63.4329 14.5059 63.3183 14.4078 63.1975C14.3418 63.0504 14.3418 63.0504 14.3022 62.936C14.0465 63.1463 13.8113 63.3685 13.5782 63.6031C13.4321 63.7457 13.2788 63.8776 13.1216 64.0079C12.9829 64.1352 12.9318 64.2184 12.9189 64.4061C12.9198 64.4717 12.9207 64.5374 12.9216 64.605C12.9219 64.6406 12.9222 64.6762 12.9224 64.7128C12.9234 64.8267 12.925 64.9406 12.9268 65.0546C12.9456 66.4905 12.9456 66.4905 12.6662 66.807C12.4989 66.9756 12.3457 66.9895 12.1174 66.9991C11.5724 67.0026 11.5724 67.0026 11.3643 66.883C10.9923 66.4773 11.0148 65.9934 11.0165 65.4752C11.0163 65.404 11.0162 65.3328 11.0159 65.2616C11.0155 65.0692 11.0156 64.8767 11.016 64.6842C11.0162 64.4824 11.016 64.2805 11.0158 64.0787C11.0156 63.7399 11.0159 63.4011 11.0164 63.0623C11.017 62.6709 11.0168 62.2796 11.0162 61.8883C11.0157 61.5518 11.0156 61.2153 11.0159 60.8789C11.0161 60.6781 11.0161 60.4774 11.0158 60.2766C11.0155 60.0879 11.0157 59.8992 11.0163 59.7105C11.0165 59.6085 11.0162 59.5065 11.0158 59.4044C11.0161 59.3434 11.0164 59.2823 11.0167 59.2193C11.0168 59.1665 11.0168 59.1136 11.0169 59.0592C11.0472 58.7137 11.1915 58.4156 11.4557 58.1855C11.7449 58.0097 12.1062 58.0247 12.4188 58.1299Z" fill="#29574A"/>
<path d="M39.2151 58.7632C39.6315 59.1177 39.9372 59.5314 39.9905 60.0845C39.9956 60.1325 40.0008 60.1805 40.0061 60.23C40.0015 60.495 39.8903 60.6622 39.7167 60.8561C39.6852 60.892 39.6537 60.9278 39.6213 60.9648C39.4735 61.1044 39.3316 61.1127 39.1362 61.1144C39.0759 61.1155 39.0759 61.1155 39.0143 61.1166C38.8174 61.0967 38.7166 61.0336 38.5806 60.8919C38.4107 60.6788 38.2543 60.4744 38.1301 60.2316C37.9701 59.9305 37.7373 59.7198 37.4309 59.5679C36.8338 59.4541 36.2205 59.4377 35.6761 59.7445C35.4975 59.8853 35.38 60.0173 35.3306 60.2416C35.3174 60.4848 35.3278 60.596 35.4881 60.7874C35.555 60.8408 35.555 60.8408 35.6233 60.8953C35.6407 60.9471 35.6582 60.9989 35.6761 61.0523C35.7714 61.0982 35.7714 61.0982 35.8926 61.1258C35.9404 61.1388 35.9882 61.1517 36.0375 61.1651C36.0924 61.1796 36.1473 61.1942 36.2038 61.2092C36.333 61.2465 36.462 61.2842 36.591 61.322C36.6966 61.3526 36.8022 61.3831 36.9079 61.4136C36.9793 61.4342 37.0507 61.4549 37.1221 61.4756C37.2276 61.5063 37.3331 61.5368 37.4387 61.5672C37.4901 61.582 37.4901 61.582 37.5425 61.5971C37.754 61.6575 37.9662 61.7106 38.1804 61.7603C38.4452 61.8245 38.6752 61.9162 38.9152 62.0429C38.9499 62.0604 38.9847 62.0779 39.0205 62.0959C39.5892 62.3867 40.0399 62.7657 40.2511 63.3801C40.4476 64.1439 40.3871 64.9848 39.9872 65.6687C39.941 65.7348 39.8937 65.8002 39.8453 65.8649C39.8225 65.8985 39.7996 65.9322 39.7761 65.9668C39.5825 66.2212 39.3484 66.3753 39.0735 66.5318C39.0405 66.5509 39.0074 66.57 38.9734 66.5897C38.3297 66.9379 37.7061 66.9985 36.9872 66.9936C36.8408 66.9928 36.6946 66.9946 36.5482 66.9966C35.7203 67.0002 34.8796 66.8337 34.2563 66.24C34.2039 66.1792 34.1532 66.1169 34.1046 66.0531C34.0356 65.9581 34.0356 65.9581 33.9081 65.8551C33.5631 65.4703 33.359 64.9578 33.3525 64.4427C33.3716 64.1874 33.4538 64.019 33.6179 63.8247C33.8369 63.6449 34.0794 63.616 34.3567 63.6155C34.5903 63.6694 34.7794 63.8042 34.9372 63.9817C35.0758 64.2099 35.1795 64.4499 35.277 64.6977C35.3658 64.8842 35.471 65.0107 35.6124 65.1597C35.6761 65.2371 35.6761 65.2371 35.6761 65.3418C35.7508 65.3669 35.8256 65.392 35.9004 65.417C35.942 65.4309 35.9837 65.4449 36.0266 65.4593C36.0676 65.4723 36.1087 65.4853 36.1511 65.4987C36.1824 65.5087 36.2138 65.5187 36.2461 65.5289C36.8073 65.6356 37.4277 65.5772 37.9454 65.3418C38.1095 65.2273 38.1095 65.2273 38.2093 65.0802C38.2485 65.0327 38.2877 64.9853 38.3281 64.9364C38.4671 64.6804 38.5055 64.4603 38.4493 64.1736C38.3388 63.8584 38.1418 63.6997 37.8551 63.5362C37.5671 63.4074 37.2665 63.3444 36.9595 63.2774C35.8582 63.0242 34.5871 62.7292 33.8817 61.7846C33.836 61.7247 33.836 61.7247 33.7894 61.6636C33.4728 60.9889 33.499 60.2964 33.7094 59.5939C33.9595 58.9825 34.4819 58.6053 35.0728 58.3567C36.3987 57.8205 38.0464 57.914 39.2151 58.7632Z" fill="#29574A"/>
<path d="M24.7827 58.2136C24.8521 58.2131 24.9215 58.2126 24.9931 58.2121C25.0687 58.2121 25.1442 58.2122 25.2198 58.2123C25.2981 58.2121 25.3764 58.2118 25.4548 58.2116C25.619 58.2112 25.7833 58.2112 25.9476 58.2115C26.1561 58.2118 26.3645 58.2109 26.573 58.2097C26.7349 58.2089 26.8969 58.2089 27.0589 58.209C27.1356 58.209 27.2123 58.2087 27.289 58.2082C27.9397 58.2042 28.5741 58.2591 29.1617 58.5582C29.2205 58.5871 29.2794 58.6161 29.34 58.6459C29.5282 58.7686 29.6281 58.8889 29.7653 59.065C29.8322 59.1281 29.8322 59.1281 29.9005 59.1925C30.3235 59.6332 30.4005 60.256 30.4184 60.8435C30.4006 61.4063 30.3192 62.0028 29.9764 62.4652C29.9504 62.5009 29.9244 62.5367 29.8976 62.5735C29.4807 63.0936 28.928 63.3196 28.2876 63.4591C28.2312 63.4732 28.2312 63.4732 28.1736 63.4876C27.6606 63.6009 27.1377 63.5751 26.6153 63.5703C26.5162 63.5697 26.4172 63.5693 26.3181 63.5688C26.0774 63.5677 25.8367 63.5659 25.596 63.5637C25.5965 63.5953 25.597 63.6269 25.5975 63.6595C25.6022 63.9905 25.6053 64.3215 25.6076 64.6525C25.6087 64.7758 25.6101 64.899 25.612 65.0223C25.6146 65.2002 25.6157 65.3781 25.6167 65.556C25.6178 65.6106 25.6188 65.6651 25.62 65.7212C25.6201 66.1105 25.5599 66.4733 25.317 66.7914C25.1397 66.9615 24.973 66.9976 24.737 66.9997C24.6983 66.9987 24.6596 66.9977 24.6197 66.9966C24.581 66.9976 24.5423 66.9987 24.5024 66.9997C24.2714 66.9977 24.0931 66.9643 23.9189 66.7981C23.6514 66.401 23.6735 65.8412 23.6765 65.3835C23.6763 65.3175 23.6761 65.2514 23.6759 65.1834C23.6754 65.0044 23.6759 64.8253 23.6766 64.6462C23.6772 64.4576 23.677 64.269 23.6769 64.0804C23.6768 63.764 23.6774 63.4475 23.6784 63.1311C23.6795 62.7666 23.6797 62.4021 23.6794 62.0377C23.6791 61.6852 23.6794 61.3327 23.68 60.9802C23.6802 60.831 23.6803 60.6818 23.6801 60.5327C23.68 60.3239 23.6808 60.1151 23.6816 59.9063C23.6815 59.8453 23.6814 59.7843 23.6812 59.7214C23.6873 58.7867 23.6873 58.7867 23.8873 58.5416C24.1561 58.2962 24.4191 58.2151 24.7827 58.2136ZM25.596 59.6404C25.596 60.469 25.596 61.2976 25.596 62.1513C26.9787 62.2173 26.9787 62.2173 28.2348 61.7328C28.4761 61.4649 28.5113 61.0859 28.4987 60.7389C28.4457 60.4359 28.3592 60.1695 28.1293 59.9543C27.6009 59.5948 27.027 59.6269 26.4108 59.6339C26.0075 59.6371 26.0075 59.6371 25.596 59.6404Z" fill="#29574A"/>
<path d="M12.2435 2.04576C12.2627 2.08123 12.2819 2.1167 12.3016 2.15325C12.4593 2.44261 12.6222 2.72737 12.7941 3.00862C13.0018 3.34939 13.2044 3.69278 13.3947 4.04339C13.5356 4.3016 13.6835 4.55532 13.8334 4.80844C13.8555 4.84598 13.8777 4.88352 13.9005 4.9222C13.9996 5.08883 14.0995 5.24917 14.2123 5.40737C14.3018 5.55061 14.3018 5.55061 14.3018 5.75985C14.2724 5.7757 14.243 5.79155 14.2127 5.80787C14.0111 5.91757 13.8123 6.02872 13.619 6.15219C13.4638 6.25005 13.306 6.33371 13.1407 6.41374C12.9421 6.51007 12.7561 6.61538 12.5703 6.73374C12.2499 6.93413 11.9196 7.11984 11.5871 7.29976C11.3268 7.44149 11.076 7.59818 10.8246 7.75462C10.6672 7.84815 10.508 7.92877 10.3436 8.00923C10.2052 8.08281 10.0682 8.15864 9.9313 8.23482C9.89413 8.25538 9.85697 8.27594 9.81868 8.29712C9.57466 8.43354 9.34282 8.57922 9.11905 8.7469C9.02422 8.7939 9.02422 8.7939 8.91805 8.79247C8.76466 8.71809 8.71259 8.61397 8.62511 8.47022C8.593 8.41783 8.56089 8.36543 8.5278 8.31145C8.44075 8.16108 8.36357 8.00733 8.28537 7.8523C8.23547 7.77774 8.18481 7.70368 8.13364 7.62997C7.99116 7.4225 7.87874 7.20954 7.76875 6.98385C7.69192 6.83302 7.60282 6.6934 7.51064 6.55147C7.39879 6.37237 7.2998 6.18651 7.19894 6.00118C7.07958 5.78254 6.95776 5.56612 6.82085 5.35771C6.75488 5.23674 6.75488 5.23674 6.75488 5.0275C6.84992 4.94944 6.84992 4.94944 6.98248 4.8771C7.05442 4.83705 7.05442 4.83705 7.12781 4.79618C7.20445 4.75532 7.20445 4.75532 7.28264 4.71363C7.35846 4.67277 7.35846 4.67277 7.43581 4.63108C7.53467 4.57785 7.63362 4.52478 7.73267 4.4719C7.88761 4.38625 8.0328 4.2888 8.17982 4.19052C8.22662 4.16786 8.27343 4.14521 8.32165 4.12186C8.48492 4.03942 8.63076 3.94729 8.78343 3.84723C9.00438 3.70542 9.18903 3.61381 9.44642 3.56279C9.44642 3.52826 9.44642 3.49374 9.44642 3.45816C9.47244 3.44396 9.49845 3.42976 9.52525 3.41513C10.1733 3.06114 10.1733 3.06114 10.8107 2.68882C10.9632 2.59788 11.1182 2.51211 11.2744 2.42768C11.3664 2.37746 11.4577 2.3259 11.5486 2.2736C11.5994 2.24481 11.6502 2.21602 11.7026 2.18635C11.7491 2.15958 11.7956 2.13281 11.8436 2.10523C11.9892 2.04156 12.0862 2.03371 12.2435 2.04576Z" fill="#29574A"/>
<path d="M31.4739 65.3029C31.6736 65.4394 31.7738 65.5783 31.8598 65.8031C31.9126 66.1693 31.8899 66.4507 31.6652 66.7545C31.5112 66.9157 31.3963 66.9769 31.177 66.9934C31.0935 66.9944 31.0099 66.9943 30.9264 66.9932C30.8635 66.9951 30.8635 66.9951 30.7994 66.997C30.5716 66.9964 30.4797 66.9866 30.2974 66.8397C30.2611 66.7943 30.2249 66.749 30.1875 66.7022C30.1472 66.6569 30.107 66.6116 30.0655 66.5649C29.9379 66.3119 29.9361 66.0906 29.9764 65.8129C30.0646 65.5586 30.2243 65.3822 30.4514 65.2375C30.8012 65.072 31.1442 65.1124 31.4739 65.3029Z" fill="#29574A"/>
<path d="M21.5253 65.3163C21.7311 65.4658 21.8242 65.6017 21.8857 65.8464C21.9273 66.1753 21.8794 66.4769 21.6902 66.7549C21.4282 66.9723 21.2379 66.993 20.9118 66.9805C20.8713 66.98 20.8308 66.9795 20.7891 66.979C20.4944 66.9731 20.4944 66.9731 20.3709 66.9118C20.3709 66.8773 20.3709 66.8428 20.3709 66.8072C20.3186 66.79 20.2664 66.7727 20.2125 66.7549C19.9811 66.4534 19.9554 66.1857 20.0014 65.8133C20.0929 65.5413 20.2418 65.402 20.4764 65.2379C20.8387 65.0623 21.1856 65.1192 21.5253 65.3163Z" fill="#29574A"/>
</svg>
