<svg width="287" height="143" viewBox="0 0 287 143" fill="none" xmlns="http://www.w3.org/2000/svg">
<path d="M182.975 141.086C182.975 141.136 182.965 141.186 182.946 141.233C182.927 141.279 182.898 141.321 182.863 141.357C182.827 141.393 182.785 141.421 182.738 141.44C182.692 141.459 182.642 141.469 182.591 141.469H0.383595C0.281859 141.469 0.18429 141.428 0.112352 141.357C0.0404141 141.285 0 141.187 0 141.086C0 140.984 0.0404141 140.887 0.112352 140.815C0.18429 140.743 0.281859 140.703 0.383595 140.703H182.591C182.642 140.703 182.692 140.713 182.738 140.732C182.785 140.751 182.827 140.779 182.863 140.815C182.898 140.85 182.927 140.893 182.946 140.939C182.965 140.986 182.975 141.036 182.975 141.086Z" fill="#3F3D56"/>
<path d="M210.536 143C217.951 143 223.962 141.972 223.962 140.703C223.962 139.435 217.951 138.406 210.536 138.406C203.121 138.406 197.11 139.435 197.11 140.703C197.11 141.972 203.121 143 210.536 143Z" fill="#D0A767"/>
<path d="M286.616 141.637H235.215C235.113 141.637 235.015 141.597 234.943 141.525C234.871 141.453 234.831 141.356 234.831 141.254C234.831 141.153 234.871 141.055 234.943 140.984C235.015 140.912 235.113 140.872 235.215 140.872H286.616C286.718 140.872 286.816 140.912 286.888 140.984C286.96 141.055 287 141.153 287 141.254C287 141.356 286.96 141.453 286.888 141.525C286.816 141.597 286.718 141.637 286.616 141.637Z" fill="#3F3D56"/>
<path d="M200.557 41.0616C200.557 36.8911 201.99 32.8469 204.617 29.6031C207.243 26.3593 210.905 24.1119 214.99 23.2355C212.326 22.6649 209.568 22.6963 206.918 23.3271C204.268 23.9579 201.792 25.1724 199.673 26.8814C197.554 28.5905 195.845 30.7509 194.671 33.2044C193.497 35.658 192.887 38.3426 192.887 41.0616C192.887 43.7806 193.497 46.4652 194.671 48.9188C195.845 51.3723 197.554 53.5327 199.673 55.2418C201.792 56.9508 204.268 58.1652 206.918 58.7961C209.568 59.4269 212.326 59.4583 214.99 58.8877C210.905 58.0113 207.243 55.7639 204.617 52.5201C201.99 49.2762 200.557 45.232 200.557 41.0616Z" fill="#D0A767"/>
<path d="M180.674 41.0615C180.674 31.1147 184.32 21.5115 190.923 14.0608C197.527 6.61016 206.632 1.82636 216.525 0.610567C210.785 -0.0916999 204.96 0.430288 199.437 2.142C193.914 3.85372 188.818 6.71615 184.486 10.54C180.155 14.3638 176.686 19.0619 174.309 24.3234C171.932 29.585 170.702 35.2901 170.7 41.0615C170.7 59.3425 197.64 110.894 207.759 129.612C208.126 130.293 208.672 130.862 209.337 131.258C210.002 131.655 210.763 131.865 211.538 131.865C212.313 131.865 213.074 131.655 213.74 131.258C214.405 130.862 214.95 130.293 215.318 129.612C215.697 128.911 216.102 128.159 216.525 127.37C205.632 107.077 180.674 58.6583 180.674 41.0615Z" fill="#D0A767"/>
<path d="M211.573 132.323C210.727 132.329 209.896 132.104 209.17 131.671C208.444 131.238 207.851 130.615 207.456 129.868C196.3 109.231 170.352 59.2723 170.352 41.1368C170.352 30.2266 174.695 19.7633 182.425 12.0487C190.156 4.33404 200.641 0 211.573 0C222.506 0 232.991 4.33404 240.722 12.0487C248.452 19.7633 252.795 30.2266 252.795 41.1368C252.795 59.274 226.847 109.231 215.69 129.868C215.295 130.615 214.702 131.238 213.976 131.671C213.25 132.104 212.419 132.329 211.573 132.323ZM211.573 0.765607C200.848 0.777679 190.565 5.03494 182.981 12.6034C175.397 20.1718 171.131 30.4334 171.119 41.1368C171.119 59.0979 197.003 108.918 208.131 129.505C208.466 130.125 208.962 130.644 209.569 131.005C210.175 131.366 210.867 131.557 211.573 131.557C212.279 131.557 212.972 131.366 213.578 131.005C214.184 130.644 214.681 130.125 215.015 129.505C226.144 108.919 252.028 59.0996 252.028 41.1368C252.016 30.4334 247.75 20.1718 240.166 12.6034C232.582 5.03494 222.299 0.777682 211.573 0.765607Z" fill="#3F3D56"/>
<path d="M211.574 59.7514C207.884 59.7515 204.278 58.6598 201.21 56.6144C198.143 54.569 195.752 51.6618 194.34 48.2603C192.928 44.8589 192.559 41.1161 193.278 37.5051C193.998 33.8942 195.775 30.5773 198.383 27.974C200.992 25.3706 204.316 23.5977 207.934 22.8794C211.553 22.1612 215.303 22.5298 218.712 23.9387C222.12 25.3476 225.033 27.7336 227.083 30.7948C229.133 33.856 230.227 37.455 230.227 41.1367C230.221 46.0719 228.254 50.8033 224.757 54.2931C221.26 57.7828 216.519 59.7458 211.574 59.7514ZM211.574 23.2873C208.036 23.2873 204.578 24.3341 201.636 26.2953C198.695 28.2566 196.403 31.0443 195.049 34.3058C193.695 37.5673 193.341 41.1562 194.031 44.6186C194.721 48.081 196.424 51.2615 198.926 53.7578C201.427 56.2541 204.614 57.9541 208.084 58.6428C211.553 59.3316 215.15 58.9781 218.418 57.6272C221.686 56.2762 224.48 53.9885 226.445 51.0532C228.41 48.1179 229.459 44.6669 229.459 41.1367C229.454 36.4044 227.568 31.8675 224.215 28.5213C220.862 25.1751 216.316 23.2928 211.574 23.2873Z" fill="#3F3D56"/>
</svg>
