<svg width="185" height="152" viewBox="0 0 185 152" fill="none" xmlns="http://www.w3.org/2000/svg">
<path d="M136.5 152C163.286 152 185 130.286 185 103.5C185 76.7142 163.286 55 136.5 55C109.714 55 88 76.7142 88 103.5C88 130.286 109.714 152 136.5 152Z" fill="#29574A"/>
<path d="M115.674 94.2998L94.4023 73.2413C93.3668 72.2081 92.1381 71.3899 90.7867 70.8337C89.4353 70.2775 87.9878 69.9942 86.527 70.0001H86.4522C84.9804 70.0044 83.524 70.3013 82.1674 70.8737C80.8108 71.4462 79.5809 72.2827 78.5489 73.335C73.7926 78.1617 71.0874 84.6493 71.0021 91.4344C70.9167 98.2194 73.4578 104.773 78.0911 109.719C78.3154 109.962 78.5489 110.197 78.7824 110.431C80.0762 111.72 81.5043 112.867 83.0424 113.85C87.2477 116.575 92.1515 118.016 97.1582 118H97.317C100.753 117.988 104.154 117.293 107.32 115.955C110.487 114.618 113.358 112.664 115.767 110.206C117.855 108.082 119.017 105.215 119 102.234C118.982 99.2518 117.786 96.3986 115.674 94.2998ZM114.441 108.885C110.491 112.875 105.291 115.377 99.7166 115.971C94.142 116.565 88.5336 115.214 83.8365 112.145C82.493 111.254 81.2384 110.234 80.0903 109.101C75.5069 104.561 72.9093 98.3824 72.869 91.9228C72.8287 85.4632 75.349 79.2522 79.8755 74.6558C80.7359 73.7766 81.7621 73.0778 82.8944 72.6002C84.0267 72.1225 85.2425 71.8755 86.471 71.8736H86.527C87.7433 71.8693 88.9484 72.1054 90.0737 72.5683C91.199 73.0312 92.2222 73.7119 93.085 74.5715L114.357 95.6393C116.118 97.3857 117.116 99.7614 117.131 102.245C117.147 104.728 116.18 107.116 114.441 108.885Z" fill="#29574A"/>
<path d="M45.5952 24.3044L23.8802 3.24061C21.7428 1.15794 18.8518 -0.00741077 15.8408 3.54661e-05H15.7741C14.2696 0.00597897 12.7811 0.304497 11.3947 0.878369C10.0083 1.45224 8.75142 2.29011 7.6965 3.34359C3.68252 7.34719 1.07983 12.5082 0.269788 18.0702C-0.540256 23.6322 0.484965 29.3027 3.19522 34.2509L3.20477 34.2602C4.32284 36.2841 5.71158 38.152 7.3341 39.8142C7.51529 40.0202 7.72511 40.2263 7.93491 40.4323C12.9216 45.2936 19.6673 48.0149 26.6936 47.9999H26.8652C30.3737 47.9856 33.8446 47.2887 37.0774 45.9496C40.3102 44.6105 43.2408 42.6558 45.7001 40.1982C46.756 39.1479 47.5908 37.9036 48.157 36.5364C48.7231 35.1692 49.0095 33.7058 48.9998 32.2299C48.99 30.754 48.6843 29.2944 48.1002 27.9346C47.516 26.5747 46.6648 25.3412 45.5952 24.3044ZM44.3364 38.887C42.0537 41.1676 39.3337 42.9815 36.3334 44.2241C33.333 45.4667 30.1118 46.1134 26.8557 46.1268H26.6936C21.8035 46.125 17.0231 44.7031 12.9536 42.0401C8.88422 39.3771 5.70745 35.5918 3.82281 31.1603C1.93817 26.7288 1.42984 21.8489 2.36175 17.1344C3.29366 12.4199 5.62416 8.08134 9.06023 4.66424C10.8382 2.89892 13.2567 1.89855 15.7849 1.88275C18.3131 1.86695 20.7444 2.83698 22.5451 4.57992L44.2601 25.6344C46.0565 27.3835 47.0734 29.7609 47.0877 32.2452C47.102 34.7296 46.1126 37.1181 44.3364 38.887Z" fill="#29574A"/>
<path d="M117 100.898L93.499 77.3816C91.958 75.843 89.8774 74.9866 87.7139 75.0002C85.5503 75.0138 83.4805 75.8963 81.9584 77.4541C80.0543 79.403 78.5481 81.713 77.5257 84.252C76.5034 86.791 75.985 89.5093 76.0003 92.2515C76.0156 94.9936 76.5642 97.7058 77.6148 100.233C78.6654 102.76 80.1974 105.053 82.1231 106.98C84.0488 108.907 86.3304 110.43 88.8377 111.463C91.3449 112.496 94.0286 113.018 96.7351 113C99.4417 112.981 102.118 112.422 104.611 111.355C107.105 110.288 109.366 108.733 111.265 106.78L117 100.898Z" fill="#D0A767"/>
<path d="M47 30.8976L22.9258 7.38159C21.3472 5.843 19.2159 4.98656 16.9996 5.00016C14.7833 5.01376 12.6629 5.89631 11.1037 7.45415C9.15318 9.40301 7.6102 11.713 6.56294 14.252C5.51568 16.7911 4.98467 19.5093 5.00034 22.2515C5.016 24.9936 5.57799 27.7058 6.65419 30.2329C7.7304 32.7601 9.29973 35.0527 11.2724 36.9796C13.2451 38.9066 15.5824 40.4301 18.1508 41.463C20.7192 42.4959 23.4683 43.0181 26.2409 42.9995C29.0134 42.981 31.7551 42.4221 34.3091 41.3549C36.8632 40.2878 39.1795 38.7331 41.1256 36.78L47 30.8976Z" fill="#D0A767"/>
<path d="M91 115.502L90.4323 117C87.7638 115.986 85.1773 114.969 82.6728 113.948C38.3115 95.8163 17.134 74.5947 2.96826 34.3124L2.95879 34.3029C2.28694 32.4073 1.634 30.4675 1 28.4834L2.49513 28C2.99505 29.9081 3.72593 31.7479 4.67154 33.4784C5.44749 35.6868 6.24554 37.8383 7.06564 39.933C20.3797 73.9312 40.0148 93.3615 77.6576 109.768C79.5501 110.593 81.49 111.411 83.4772 112.223C85.7846 113.729 88.3273 114.837 91 115.502Z" fill="#29574A"/>
<path d="M23.3135 46.7614L21.9824 48.1079L71.1585 96.6365L72.4895 95.29L23.3135 46.7614Z" fill="#29574A"/>
</svg>
