<svg width="129" height="166" viewBox="0 0 129 166" fill="none" xmlns="http://www.w3.org/2000/svg">
<path d="M43 86C66.7482 86 86 66.7482 86 43C86 19.2518 66.7482 0 43 0C19.2518 0 0 19.2518 0 43C0 66.7482 19.2518 86 43 86Z" fill="#29574A"/>
<path d="M121 47.7679V146.232C121 148.277 120.205 150.24 118.788 151.694C117.371 153.148 115.446 153.975 113.432 153.996C113.404 153.999 113.376 154 113.348 154H102.058C93.0256 154 84.3627 150.357 77.9755 143.874C71.5883 137.39 68 128.596 68 119.426V47.7679C68 45.7077 68.8062 43.7319 70.2413 42.2752C71.6763 40.8184 73.6227 40 75.6522 40H80.2267C78.1074 46.2756 106.87 48.9176 108.449 40H113.348C115.377 40 117.324 40.8184 118.759 42.2752C120.194 43.732 121 45.7077 121 47.7679Z" fill="#D0A767"/>
<path d="M87 33C87.0003 32.7349 87.1082 32.4807 87.3 32.2932C87.4918 32.1058 87.7518 32.0003 88.023 32H94.9799C95.2507 32.0008 95.5102 32.1065 95.7014 32.2939C95.8927 32.4814 96 32.7353 96 33C96 33.2647 95.8927 33.5186 95.7014 33.7061C95.5102 33.8935 95.2507 33.9992 94.9799 34H88.023C87.7518 33.9997 87.4918 33.8943 87.3 33.7068C87.1082 33.5193 87.0003 33.2651 87 33Z" fill="#29574A"/>
<path d="M115.651 166H72.5709C69.2286 165.996 66.0241 164.655 63.6607 162.27C61.2972 159.886 59.9678 156.652 59.9639 153.28V84.9343C59.7273 84.7629 59.5347 84.537 59.4019 84.2755C59.2692 84.014 59.2001 83.7243 59.2005 83.4304V76.5568C59.2001 76.263 59.2691 75.9733 59.4019 75.7119C59.5347 75.4504 59.7274 75.2246 59.9639 75.0533V73.2085C59.7274 73.0372 59.5347 72.8114 59.4019 72.5499C59.2691 72.2885 59.2001 71.9989 59.2005 71.7051V64.831C59.2001 64.5372 59.2691 64.2476 59.4019 63.9861C59.5347 63.7246 59.7274 63.4989 59.9639 63.3276V59.9933C59.6718 59.835 59.4278 59.5996 59.2581 59.3123C59.0883 59.0249 58.9991 58.6964 59 58.3619V51.4883C58.9991 51.1537 59.0882 50.8251 59.258 50.5377C59.4278 50.2503 59.6718 50.0148 59.9639 49.8564V40.7202C59.9678 37.3477 61.2973 34.1145 63.6607 31.7298C66.0242 29.3451 69.2285 28.0038 72.5709 28H115.651C118.994 28.0038 122.198 29.3452 124.561 31.7299C126.925 34.1145 128.254 37.3478 128.258 40.7202V60.6352C128.485 60.7785 128.672 60.9777 128.802 61.214C128.932 61.4504 129 61.7161 129 61.9863V75.093C129 75.3632 128.932 75.629 128.802 75.8654C128.672 76.1018 128.485 76.3011 128.258 76.4445V153.28C128.254 156.652 126.925 159.885 124.561 162.27C122.198 164.655 118.994 165.996 115.651 166ZM72.5709 29.6909C69.6728 29.6941 66.8944 30.8572 64.8451 32.9249C62.7958 34.9926 61.6429 37.796 61.6396 40.7202V51.2947L60.8336 51.3261C60.7917 51.3276 60.752 51.3452 60.7227 51.3754C60.6933 51.4056 60.6765 51.446 60.6757 51.4883V58.3619C60.6766 58.4041 60.6935 58.4445 60.7228 58.4746C60.7522 58.5048 60.7918 58.5225 60.8336 58.5241L61.6396 58.5551V64.5147L61.0022 64.6733C60.9669 64.6818 60.9354 64.702 60.9126 64.7305C60.8899 64.759 60.877 64.7943 60.8762 64.831V71.705C60.877 71.7417 60.8899 71.777 60.9126 71.8055C60.9354 71.834 60.9669 71.8541 61.0022 71.8627L61.6396 72.0212V76.2405L61.0022 76.399C60.9669 76.4076 60.9354 76.4278 60.9126 76.4563C60.8899 76.4848 60.877 76.5201 60.8762 76.5568V83.4304C60.8769 83.4671 60.8897 83.5025 60.9125 83.5311C60.9353 83.5597 60.9668 83.5799 61.0022 83.5885L61.6396 83.747V153.28C61.6429 156.204 62.7958 159.007 64.8451 161.075C66.8944 163.143 69.6728 164.306 72.5709 164.309H115.651C118.549 164.306 121.328 163.143 123.377 161.075C125.426 159.007 126.579 156.204 126.582 153.28V74.9968H127.324V62.0829H126.582V40.7202C126.579 37.796 125.426 34.9926 123.377 32.9249C121.328 30.8573 118.549 29.6942 115.651 29.6908L72.5709 29.6909Z" fill="#29574A"/>
<path d="M99 34C99.5523 34 100 33.5523 100 33C100 32.4477 99.5523 32 99 32C98.4477 32 98 32.4477 98 33C98 33.5523 98.4477 34 99 34Z" fill="#29574A"/>
<path d="M94.5 142C98.6421 142 102 138.866 102 135C102 131.134 98.6421 128 94.5 128C90.3579 128 87 131.134 87 135C87 138.866 90.3579 142 94.5 142Z" fill="white"/>
</svg>
